{"glyphs":{"0":{"ha":872,"x_min":97,"x_max":775,"o":"m 97 139 l 97 833 l 236 972 l 636 972 l 775 833 l 775 139 l 636 0 l 236 0 l 97 139 m 589 94 l 669 174 l 669 799 l 589 878 l 283 878 l 203 799 l 203 174 l 283 94 l 589 94 z "},"1":{"ha":497,"x_min":56,"x_max":379,"o":"m 274 864 l 56 751 l 56 849 l 282 972 l 379 972 l 379 0 l 274 0 l 274 864 z "},"2":{"ha":764,"x_min":69,"x_max":694,"o":"m 75 186 l 583 689 l 583 810 l 514 878 l 244 878 l 175 810 l 175 736 l 69 736 l 69 844 l 197 972 l 561 972 l 689 844 l 689 658 l 181 156 l 181 94 l 694 94 l 694 0 l 75 0 l 75 186 z "},"3":{"ha":804,"x_min":69,"x_max":714,"o":"m 69 128 l 69 236 l 175 236 l 175 163 l 244 94 l 539 94 l 608 163 l 608 375 l 542 442 l 264 442 l 264 536 l 542 536 l 608 603 l 608 810 l 539 878 l 253 878 l 183 810 l 183 736 l 78 736 l 78 844 l 206 972 l 586 972 l 714 844 l 714 572 l 629 489 l 714 404 l 714 128 l 586 0 l 197 0 l 69 128 z "},"4":{"ha":771,"x_min":35,"x_max":736,"o":"m 513 199 l 35 199 l 35 363 l 450 972 l 618 972 l 618 293 l 736 293 l 736 199 l 618 199 l 618 0 l 513 0 l 513 199 m 513 290 l 513 883 l 504 883 l 138 346 l 138 290 l 513 290 z "},"5":{"ha":808,"x_min":83,"x_max":725,"o":"m 83 128 l 83 236 l 189 236 l 189 163 l 258 94 l 550 94 l 619 163 l 619 440 l 550 508 l 97 508 l 97 972 l 706 972 l 706 879 l 200 879 l 200 603 l 596 603 l 725 474 l 725 128 l 597 0 l 211 0 l 83 128 z "},"6":{"ha":831,"x_min":97,"x_max":747,"o":"m 97 128 l 97 844 l 225 972 l 614 972 l 742 844 l 742 736 l 636 736 l 636 810 l 567 878 l 272 878 l 203 810 l 203 482 l 315 594 l 619 594 l 747 467 l 747 128 l 619 0 l 225 0 l 97 128 m 572 94 l 642 163 l 642 432 l 572 500 l 343 500 l 203 360 l 203 163 l 272 94 l 572 94 z "},"7":{"ha":692,"x_min":28,"x_max":636,"o":"m 531 825 l 531 878 l 28 878 l 28 972 l 636 972 l 636 818 l 256 0 l 144 0 l 531 825 z "},"8":{"ha":853,"x_min":90,"x_max":763,"o":"m 90 128 l 90 414 l 178 501 l 104 575 l 104 844 l 232 972 l 621 972 l 749 844 l 749 575 l 675 501 l 763 414 l 763 128 l 635 0 l 218 0 l 90 128 m 574 540 l 643 608 l 643 810 l 574 878 l 279 878 l 210 810 l 210 608 l 279 540 l 574 540 m 588 94 l 657 163 l 657 381 l 588 449 l 265 449 l 196 381 l 196 163 l 265 94 l 588 94 z "},"9":{"ha":838,"x_min":90,"x_max":740,"o":"m 104 128 l 104 236 l 210 236 l 210 163 l 279 94 l 565 94 l 635 163 l 635 471 l 536 372 l 218 372 l 90 500 l 90 844 l 218 972 l 613 972 l 740 844 l 740 128 l 613 0 l 232 0 l 104 128 m 508 467 l 635 593 l 635 810 l 565 878 l 265 878 l 196 810 l 196 535 l 265 467 l 508 467 z "},"\u0000":{"ha":0,"x_min":0,"x_max":0,"o":""},"\r":{"ha":339,"x_min":0,"x_max":0,"o":""}," ":{"ha":339,"x_min":0,"x_max":0,"o":""},"A":{"ha":861,"x_min":28,"x_max":833,"o":"m 374 972 l 488 972 l 833 0 l 724 0 l 633 263 l 228 263 l 138 0 l 28 0 l 374 972 m 603 354 l 432 850 l 429 850 l 260 354 l 603 354 z "},"Á":{"ha":861,"x_min":28,"x_max":833,"o":"m 374 972 l 488 972 l 833 0 l 724 0 l 633 263 l 228 263 l 138 0 l 28 0 l 374 972 m 603 354 l 432 850 l 429 850 l 260 354 l 603 354 m 492 1276 l 610 1276 l 485 1058 l 388 1058 l 492 1276 z "},"Ă":{"ha":861,"x_min":28,"x_max":833,"o":"m 374 972 l 488 972 l 833 0 l 724 0 l 633 263 l 228 263 l 138 0 l 28 0 l 374 972 m 603 354 l 432 850 l 429 850 l 260 354 l 603 354 m 240 1158 l 240 1242 l 326 1242 l 326 1185 l 376 1133 l 488 1133 l 538 1185 l 538 1242 l 624 1242 l 624 1158 l 524 1058 l 340 1058 l 240 1158 z "},"Ắ":{"ha":861,"x_min":28,"x_max":833,"o":"m 374 972 l 488 972 l 833 0 l 724 0 l 633 263 l 228 263 l 138 0 l 28 0 l 374 972 m 603 354 l 432 850 l 429 850 l 260 354 l 603 354 m 481 1465 l 588 1465 l 472 1267 l 386 1267 l 481 1465 m 240 1158 l 240 1242 l 326 1242 l 326 1185 l 376 1133 l 488 1133 l 538 1185 l 538 1242 l 624 1242 l 624 1158 l 524 1058 l 340 1058 l 240 1158 z "},"Ặ":{"ha":861,"x_min":28,"x_max":833,"o":"m 374 972 l 488 972 l 833 0 l 724 0 l 633 263 l 228 263 l 138 0 l 28 0 l 374 972 m 603 354 l 432 850 l 429 850 l 260 354 l 603 354 m 240 1158 l 240 1242 l 326 1242 l 326 1185 l 376 1133 l 488 1133 l 538 1185 l 538 1242 l 624 1242 l 624 1158 l 524 1058 l 340 1058 l 240 1158 z "},"Ằ":{"ha":861,"x_min":28,"x_max":833,"o":"m 374 972 l 488 972 l 833 0 l 724 0 l 633 263 l 228 263 l 138 0 l 28 0 l 374 972 m 603 354 l 432 850 l 429 850 l 260 354 l 603 354 m 282 1465 l 389 1465 l 483 1267 l 397 1267 l 282 1465 m 240 1158 l 240 1242 l 326 1242 l 326 1185 l 376 1133 l 488 1133 l 538 1185 l 538 1242 l 624 1242 l 624 1158 l 524 1058 l 340 1058 l 240 1158 z "},"Ẳ":{"ha":861,"x_min":28,"x_max":833,"o":"m 374 972 l 488 972 l 833 0 l 724 0 l 633 263 l 228 263 l 138 0 l 28 0 l 374 972 m 603 354 l 432 850 l 429 850 l 260 354 l 603 354 m 388 1311 l 492 1400 l 492 1433 l 469 1454 l 394 1454 l 369 1431 l 369 1394 l 292 1394 l 292 1456 l 363 1526 l 501 1526 l 572 1456 l 572 1378 l 475 1299 l 475 1258 l 388 1258 l 388 1311 m 240 1158 l 240 1242 l 326 1242 l 326 1185 l 376 1133 l 488 1133 l 538 1185 l 538 1242 l 624 1242 l 624 1158 l 524 1058 l 340 1058 l 240 1158 z "},"Ẵ":{"ha":861,"x_min":28,"x_max":833,"o":"m 374 972 l 488 972 l 833 0 l 724 0 l 633 263 l 228 263 l 138 0 l 28 0 l 374 972 m 603 354 l 432 850 l 429 850 l 260 354 l 603 354 m 378 1367 l 350 1367 l 324 1340 l 324 1306 l 246 1306 l 246 1363 l 319 1436 l 403 1436 l 486 1367 l 515 1367 l 540 1392 l 540 1428 l 618 1428 l 618 1371 l 544 1297 l 461 1297 l 378 1367 m 240 1158 l 240 1242 l 326 1242 l 326 1185 l 376 1133 l 488 1133 l 538 1185 l 538 1242 l 624 1242 l 624 1158 l 524 1058 l 340 1058 l 240 1158 z "},"Ǎ":{"ha":861,"x_min":28,"x_max":833,"o":"m 374 972 l 488 972 l 833 0 l 724 0 l 633 263 l 228 263 l 138 0 l 28 0 l 374 972 m 603 354 l 432 850 l 429 850 l 260 354 l 603 354 m 238 1253 l 338 1253 l 428 1128 l 436 1128 l 526 1253 l 626 1253 l 483 1058 l 381 1058 l 238 1253 z "},"Â":{"ha":861,"x_min":28,"x_max":833,"o":"m 374 972 l 488 972 l 833 0 l 724 0 l 633 263 l 228 263 l 138 0 l 28 0 l 374 972 m 603 354 l 432 850 l 429 850 l 260 354 l 603 354 m 381 1253 l 483 1253 l 626 1058 l 526 1058 l 436 1183 l 428 1183 l 338 1058 l 238 1058 l 381 1253 z "},"Ấ":{"ha":861,"x_min":28,"x_max":833,"o":"m 374 972 l 488 972 l 833 0 l 724 0 l 633 263 l 228 263 l 138 0 l 28 0 l 374 972 m 603 354 l 432 850 l 429 850 l 260 354 l 603 354 m 658 1465 l 765 1465 l 650 1267 l 564 1267 l 658 1465 m 381 1253 l 483 1253 l 626 1058 l 526 1058 l 436 1183 l 428 1183 l 338 1058 l 238 1058 l 381 1253 z "},"Ậ":{"ha":861,"x_min":28,"x_max":833,"o":"m 374 972 l 488 972 l 833 0 l 724 0 l 633 263 l 228 263 l 138 0 l 28 0 l 374 972 m 603 354 l 432 850 l 429 850 l 260 354 l 603 354 m 381 1253 l 483 1253 l 626 1058 l 526 1058 l 436 1183 l 428 1183 l 338 1058 l 238 1058 l 381 1253 z "},"Ầ":{"ha":861,"x_min":28,"x_max":833,"o":"m 374 972 l 488 972 l 833 0 l 724 0 l 633 263 l 228 263 l 138 0 l 28 0 l 374 972 m 603 354 l 432 850 l 429 850 l 260 354 l 603 354 m 486 1465 l 593 1465 l 688 1267 l 601 1267 l 486 1465 m 381 1253 l 483 1253 l 626 1058 l 526 1058 l 436 1183 l 428 1183 l 338 1058 l 238 1058 l 381 1253 z "},"Ẩ":{"ha":861,"x_min":28,"x_max":833,"o":"m 374 972 l 488 972 l 833 0 l 724 0 l 633 263 l 228 263 l 138 0 l 28 0 l 374 972 m 603 354 l 432 850 l 429 850 l 260 354 l 603 354 m 574 1269 l 672 1358 l 672 1392 l 650 1413 l 581 1413 l 556 1389 l 556 1353 l 478 1353 l 478 1414 l 549 1485 l 682 1485 l 753 1414 l 753 1336 l 661 1257 l 661 1217 l 574 1217 l 574 1269 m 381 1253 l 483 1253 l 626 1058 l 526 1058 l 436 1183 l 428 1183 l 338 1058 l 238 1058 l 381 1253 z "},"Ẫ":{"ha":861,"x_min":28,"x_max":833,"o":"m 374 972 l 488 972 l 833 0 l 724 0 l 633 263 l 228 263 l 138 0 l 28 0 l 374 972 m 603 354 l 432 850 l 429 850 l 260 354 l 603 354 m 378 1367 l 350 1367 l 324 1340 l 324 1306 l 246 1306 l 246 1363 l 319 1436 l 403 1436 l 486 1367 l 515 1367 l 540 1392 l 540 1428 l 618 1428 l 618 1371 l 544 1297 l 461 1297 l 378 1367 m 381 1253 l 483 1253 l 626 1058 l 526 1058 l 436 1183 l 428 1183 l 338 1058 l 238 1058 l 381 1253 z "},"Ä":{"ha":861,"x_min":28,"x_max":833,"o":"m 374 972 l 488 972 l 833 0 l 724 0 l 633 263 l 228 263 l 138 0 l 28 0 l 374 972 m 603 354 l 432 850 l 429 850 l 260 354 l 603 354 m 226 1110 l 226 1171 l 264 1208 l 326 1208 l 363 1171 l 363 1110 l 326 1072 l 264 1072 l 226 1110 m 501 1110 l 501 1171 l 538 1208 l 600 1208 l 638 1171 l 638 1110 l 600 1072 l 538 1072 l 501 1110 z "},"Ạ":{"ha":861,"x_min":28,"x_max":833,"o":"m 374 972 l 488 972 l 833 0 l 724 0 l 633 263 l 228 263 l 138 0 l 28 0 l 374 972 m 603 354 l 432 850 l 429 850 l 260 354 l 603 354 z "},"À":{"ha":861,"x_min":28,"x_max":833,"o":"m 374 972 l 488 972 l 833 0 l 724 0 l 633 263 l 228 263 l 138 0 l 28 0 l 374 972 m 603 354 l 432 850 l 429 850 l 260 354 l 603 354 m 250 1276 l 368 1276 l 472 1058 l 375 1058 l 250 1276 z "},"Ả":{"ha":861,"x_min":28,"x_max":833,"o":"m 374 972 l 488 972 l 833 0 l 724 0 l 633 263 l 228 263 l 138 0 l 28 0 l 374 972 m 603 354 l 432 850 l 429 850 l 260 354 l 603 354 m 388 1111 l 490 1213 l 490 1251 l 468 1274 l 392 1274 l 367 1249 l 367 1214 l 288 1214 l 288 1275 l 358 1346 l 506 1346 l 576 1275 l 576 1197 l 478 1099 l 478 1058 l 388 1058 l 388 1111 z "},"Ā":{"ha":861,"x_min":28,"x_max":833,"o":"m 374 972 l 488 972 l 833 0 l 724 0 l 633 263 l 228 263 l 138 0 l 28 0 l 374 972 m 603 354 l 432 850 l 429 850 l 260 354 l 603 354 m 238 1169 l 626 1169 l 626 1086 l 238 1086 l 238 1169 z "},"Ą":{"ha":861,"x_min":28,"x_max":885,"o":"m 374 972 l 488 972 l 833 0 l 724 0 l 633 263 l 228 263 l 138 0 l 28 0 l 374 972 m 603 354 l 432 850 l 429 850 l 260 354 l 603 354 m 663 -185 l 663 -90 l 742 0 l 833 0 l 751 -103 l 751 -157 l 788 -193 l 885 -193 l 885 -265 l 743 -265 l 663 -185 z "},"Å":{"ha":861,"x_min":28,"x_max":833,"o":"m 374 972 l 488 972 l 833 0 l 724 0 l 633 263 l 228 263 l 138 0 l 28 0 l 374 972 m 603 354 l 432 850 l 429 850 l 260 354 l 603 354 m 292 1124 l 292 1240 l 371 1319 l 493 1319 l 572 1240 l 572 1124 l 493 1044 l 371 1044 l 292 1124 m 464 1114 l 500 1150 l 500 1214 l 464 1250 l 400 1250 l 364 1214 l 364 1150 l 400 1114 l 464 1114 z "},"Ǻ":{"ha":861,"x_min":28,"x_max":833,"o":"m 374 972 l 488 972 l 833 0 l 724 0 l 633 263 l 228 263 l 138 0 l 28 0 l 374 972 m 603 354 l 432 850 l 429 850 l 260 354 l 603 354 m 292 1124 l 292 1240 l 371 1319 l 493 1319 l 572 1240 l 572 1124 l 493 1044 l 371 1044 l 292 1124 m 464 1114 l 500 1150 l 500 1214 l 464 1250 l 400 1250 l 364 1214 l 364 1150 l 400 1114 l 464 1114 m 492 1603 l 610 1603 l 485 1385 l 388 1385 l 492 1603 z "},"Ã":{"ha":861,"x_min":28,"x_max":833,"o":"m 374 972 l 488 972 l 833 0 l 724 0 l 633 263 l 228 263 l 138 0 l 28 0 l 374 972 m 603 354 l 432 850 l 429 850 l 260 354 l 603 354 m 374 1144 l 349 1144 l 322 1118 l 322 1081 l 242 1081 l 242 1143 l 315 1217 l 401 1217 l 490 1144 l 517 1144 l 542 1169 l 542 1208 l 622 1208 l 622 1146 l 549 1072 l 463 1072 l 374 1144 z "},"Æ":{"ha":1283,"x_min":21,"x_max":1214,"o":"m 717 878 l 717 533 l 1174 533 l 1174 439 l 717 439 l 717 94 l 1214 94 l 1214 0 l 611 0 l 611 263 l 246 263 l 132 0 l 21 0 l 450 972 l 1214 972 l 1214 878 l 717 878 m 611 357 l 611 878 l 514 878 l 288 357 l 611 357 z "},"Ǽ":{"ha":1283,"x_min":21,"x_max":1214,"o":"m 717 878 l 717 533 l 1174 533 l 1174 439 l 717 439 l 717 94 l 1214 94 l 1214 0 l 611 0 l 611 263 l 246 263 l 132 0 l 21 0 l 450 972 l 1214 972 l 1214 878 l 717 878 m 611 357 l 611 878 l 514 878 l 288 357 l 611 357 m 760 1276 l 878 1276 l 753 1058 l 656 1058 l 760 1276 z "},"B":{"ha":897,"x_min":111,"x_max":828,"o":"m 111 972 l 657 972 l 785 844 l 785 575 l 718 508 l 828 399 l 828 136 l 692 0 l 111 0 l 111 972 m 613 533 l 682 603 l 682 813 l 613 881 l 214 881 l 214 533 l 613 533 m 644 92 l 725 171 l 725 365 l 644 444 l 214 444 l 214 92 l 644 92 z "},"C":{"ha":876,"x_min":97,"x_max":814,"o":"m 97 153 l 97 819 l 250 972 l 667 972 l 814 825 l 814 736 l 708 736 l 708 790 l 619 878 l 297 878 l 203 785 l 203 188 l 297 94 l 619 94 l 708 182 l 708 236 l 814 236 l 814 147 l 667 0 l 250 0 l 97 153 z "},"Ć":{"ha":876,"x_min":97,"x_max":814,"o":"m 97 153 l 97 819 l 250 972 l 667 972 l 814 825 l 814 736 l 708 736 l 708 790 l 619 878 l 297 878 l 203 785 l 203 188 l 297 94 l 619 94 l 708 182 l 708 236 l 814 236 l 814 147 l 667 0 l 250 0 l 97 153 m 518 1276 l 636 1276 l 511 1058 l 414 1058 l 518 1276 z "},"Č":{"ha":876,"x_min":97,"x_max":814,"o":"m 97 153 l 97 819 l 250 972 l 667 972 l 814 825 l 814 736 l 708 736 l 708 790 l 619 878 l 297 878 l 203 785 l 203 188 l 297 94 l 619 94 l 708 182 l 708 236 l 814 236 l 814 147 l 667 0 l 250 0 l 97 153 m 264 1253 l 364 1253 l 454 1128 l 463 1128 l 553 1253 l 653 1253 l 510 1058 l 407 1058 l 264 1253 z "},"Ç":{"ha":876,"x_min":97,"x_max":814,"o":"m 708 736 l 708 790 l 619 878 l 297 878 l 203 785 l 203 188 l 297 94 l 619 94 l 708 182 l 708 236 l 814 236 l 814 147 l 667 0 l 486 0 l 457 -75 l 544 -75 l 614 -144 l 614 -249 l 542 -321 l 339 -321 l 339 -250 l 504 -250 l 532 -222 l 532 -174 l 504 -146 l 363 -146 l 363 -92 l 397 0 l 250 0 l 97 153 l 97 819 l 250 972 l 667 972 l 814 825 l 814 736 l 708 736 z "},"Ĉ":{"ha":876,"x_min":97,"x_max":814,"o":"m 97 153 l 97 819 l 250 972 l 667 972 l 814 825 l 814 736 l 708 736 l 708 790 l 619 878 l 297 878 l 203 785 l 203 188 l 297 94 l 619 94 l 708 182 l 708 236 l 814 236 l 814 147 l 667 0 l 250 0 l 97 153 m 407 1253 l 510 1253 l 653 1058 l 553 1058 l 463 1183 l 454 1183 l 364 1058 l 264 1058 l 407 1253 z "},"Ċ":{"ha":876,"x_min":97,"x_max":814,"o":"m 97 153 l 97 819 l 250 972 l 667 972 l 814 825 l 814 736 l 708 736 l 708 790 l 619 878 l 297 878 l 203 785 l 203 188 l 297 94 l 619 94 l 708 182 l 708 236 l 814 236 l 814 147 l 667 0 l 250 0 l 97 153 m 390 1110 l 390 1171 l 428 1208 l 489 1208 l 526 1171 l 526 1110 l 489 1072 l 428 1072 l 390 1110 z "},"D":{"ha":922,"x_min":111,"x_max":825,"o":"m 111 972 l 672 972 l 825 819 l 825 153 l 672 0 l 111 0 l 111 972 m 625 94 l 719 188 l 719 785 l 625 878 l 217 878 l 217 94 l 625 94 z "},"Ð":{"ha":978,"x_min":35,"x_max":881,"o":"m 881 819 l 881 153 l 728 0 l 167 0 l 167 442 l 35 442 l 35 533 l 167 533 l 167 972 l 728 972 l 881 819 m 775 785 l 681 878 l 272 878 l 272 533 l 507 533 l 507 442 l 272 442 l 272 94 l 681 94 l 775 188 l 775 785 z "},"Ď":{"ha":922,"x_min":111,"x_max":825,"o":"m 111 972 l 672 972 l 825 819 l 825 153 l 672 0 l 111 0 l 111 972 m 625 94 l 719 188 l 719 785 l 625 878 l 217 878 l 217 94 l 625 94 m 258 1253 l 358 1253 l 449 1128 l 457 1128 l 547 1253 l 647 1253 l 504 1058 l 401 1058 l 258 1253 z "},"Đ":{"ha":978,"x_min":35,"x_max":881,"o":"m 881 819 l 881 153 l 728 0 l 167 0 l 167 442 l 35 442 l 35 533 l 167 533 l 167 972 l 728 972 l 881 819 m 775 785 l 681 878 l 272 878 l 272 533 l 507 533 l 507 442 l 272 442 l 272 94 l 681 94 l 775 188 l 775 785 z "},"Ḍ":{"ha":922,"x_min":111,"x_max":825,"o":"m 111 972 l 672 972 l 825 819 l 825 153 l 672 0 l 111 0 l 111 972 m 625 94 l 719 188 l 719 785 l 625 878 l 217 878 l 217 94 l 625 94 z "},"Ḏ":{"ha":922,"x_min":111,"x_max":825,"o":"m 111 972 l 672 972 l 825 819 l 825 153 l 672 0 l 111 0 l 111 972 m 625 94 l 719 188 l 719 785 l 625 878 l 217 878 l 217 94 l 625 94 z "},"E":{"ha":808,"x_min":111,"x_max":739,"o":"m 111 972 l 739 972 l 739 878 l 217 878 l 217 536 l 699 536 l 699 442 l 217 442 l 217 94 l 739 94 l 739 0 l 111 0 l 111 972 z "},"É":{"ha":808,"x_min":111,"x_max":739,"o":"m 111 972 l 739 972 l 739 878 l 217 878 l 217 536 l 699 536 l 699 442 l 217 442 l 217 94 l 739 94 l 739 0 l 111 0 l 111 972 m 493 1276 l 611 1276 l 486 1058 l 389 1058 l 493 1276 z "},"Ĕ":{"ha":808,"x_min":111,"x_max":739,"o":"m 111 972 l 739 972 l 739 878 l 217 878 l 217 536 l 699 536 l 699 442 l 217 442 l 217 94 l 739 94 l 739 0 l 111 0 l 111 972 m 247 1158 l 247 1242 l 333 1242 l 333 1185 l 383 1133 l 494 1133 l 544 1185 l 544 1242 l 631 1242 l 631 1158 l 531 1058 l 347 1058 l 247 1158 z "},"Ě":{"ha":808,"x_min":111,"x_max":739,"o":"m 111 972 l 739 972 l 739 878 l 217 878 l 217 536 l 699 536 l 699 442 l 217 442 l 217 94 l 739 94 l 739 0 l 111 0 l 111 972 m 239 1253 l 339 1253 l 429 1128 l 438 1128 l 528 1253 l 628 1253 l 485 1058 l 382 1058 l 239 1253 z "},"Ê":{"ha":808,"x_min":111,"x_max":739,"o":"m 111 972 l 739 972 l 739 878 l 217 878 l 217 536 l 699 536 l 699 442 l 217 442 l 217 94 l 739 94 l 739 0 l 111 0 l 111 972 m 382 1253 l 485 1253 l 628 1058 l 528 1058 l 438 1183 l 429 1183 l 339 1058 l 239 1058 l 382 1253 z "},"Ế":{"ha":808,"x_min":111,"x_max":767,"o":"m 111 972 l 739 972 l 739 878 l 217 878 l 217 536 l 699 536 l 699 442 l 217 442 l 217 94 l 739 94 l 739 0 l 111 0 l 111 972 m 660 1465 l 767 1465 l 651 1267 l 565 1267 l 660 1465 m 382 1253 l 485 1253 l 628 1058 l 528 1058 l 438 1183 l 429 1183 l 339 1058 l 239 1058 l 382 1253 z "},"Ệ":{"ha":808,"x_min":111,"x_max":739,"o":"m 111 972 l 739 972 l 739 878 l 217 878 l 217 536 l 699 536 l 699 442 l 217 442 l 217 94 l 739 94 l 739 0 l 111 0 l 111 972 m 382 1253 l 485 1253 l 628 1058 l 528 1058 l 438 1183 l 429 1183 l 339 1058 l 239 1058 l 382 1253 z "},"Ề":{"ha":808,"x_min":111,"x_max":739,"o":"m 111 972 l 739 972 l 739 878 l 217 878 l 217 536 l 699 536 l 699 442 l 217 442 l 217 94 l 739 94 l 739 0 l 111 0 l 111 972 m 488 1465 l 594 1465 l 689 1267 l 603 1267 l 488 1465 m 382 1253 l 485 1253 l 628 1058 l 528 1058 l 438 1183 l 429 1183 l 339 1058 l 239 1058 l 382 1253 z "},"Ể":{"ha":808,"x_min":111,"x_max":754,"o":"m 111 972 l 739 972 l 739 878 l 217 878 l 217 536 l 699 536 l 699 442 l 217 442 l 217 94 l 739 94 l 739 0 l 111 0 l 111 972 m 575 1269 l 674 1358 l 674 1392 l 651 1413 l 582 1413 l 557 1389 l 557 1353 l 479 1353 l 479 1414 l 550 1485 l 683 1485 l 754 1414 l 754 1336 l 663 1257 l 663 1217 l 575 1217 l 575 1269 m 382 1253 l 485 1253 l 628 1058 l 528 1058 l 438 1183 l 429 1183 l 339 1058 l 239 1058 l 382 1253 z "},"Ễ":{"ha":808,"x_min":111,"x_max":739,"o":"m 111 972 l 739 972 l 739 878 l 217 878 l 217 536 l 699 536 l 699 442 l 217 442 l 217 94 l 739 94 l 739 0 l 111 0 l 111 972 m 379 1367 l 351 1367 l 325 1340 l 325 1306 l 247 1306 l 247 1363 l 321 1436 l 404 1436 l 488 1367 l 517 1367 l 542 1392 l 542 1428 l 619 1428 l 619 1371 l 546 1297 l 463 1297 l 379 1367 m 382 1253 l 485 1253 l 628 1058 l 528 1058 l 438 1183 l 429 1183 l 339 1058 l 239 1058 l 382 1253 z "},"Ë":{"ha":808,"x_min":111,"x_max":739,"o":"m 111 972 l 739 972 l 739 878 l 217 878 l 217 536 l 699 536 l 699 442 l 217 442 l 217 94 l 739 94 l 739 0 l 111 0 l 111 972 m 228 1110 l 228 1171 l 265 1208 l 328 1208 l 364 1171 l 364 1110 l 328 1072 l 265 1072 l 228 1110 m 503 1110 l 503 1171 l 539 1208 l 601 1208 l 639 1171 l 639 1110 l 601 1072 l 539 1072 l 503 1110 z "},"Ė":{"ha":808,"x_min":111,"x_max":739,"o":"m 111 972 l 739 972 l 739 878 l 217 878 l 217 536 l 699 536 l 699 442 l 217 442 l 217 94 l 739 94 l 739 0 l 111 0 l 111 972 m 365 1110 l 365 1171 l 403 1208 l 464 1208 l 501 1171 l 501 1110 l 464 1072 l 403 1072 l 365 1110 z "},"Ẹ":{"ha":808,"x_min":111,"x_max":739,"o":"m 111 972 l 739 972 l 739 878 l 217 878 l 217 536 l 699 536 l 699 442 l 217 442 l 217 94 l 739 94 l 739 0 l 111 0 l 111 972 z "},"È":{"ha":808,"x_min":111,"x_max":739,"o":"m 111 972 l 739 972 l 739 878 l 217 878 l 217 536 l 699 536 l 699 442 l 217 442 l 217 94 l 739 94 l 739 0 l 111 0 l 111 972 m 278 1276 l 396 1276 l 500 1058 l 403 1058 l 278 1276 z "},"Ẻ":{"ha":808,"x_min":111,"x_max":739,"o":"m 111 972 l 739 972 l 739 878 l 217 878 l 217 536 l 699 536 l 699 442 l 217 442 l 217 94 l 739 94 l 739 0 l 111 0 l 111 972 m 389 1111 l 492 1213 l 492 1251 l 469 1274 l 393 1274 l 368 1249 l 368 1214 l 289 1214 l 289 1275 l 360 1346 l 507 1346 l 578 1275 l 578 1197 l 479 1099 l 479 1058 l 389 1058 l 389 1111 z "},"Ē":{"ha":808,"x_min":111,"x_max":739,"o":"m 111 972 l 739 972 l 739 878 l 217 878 l 217 536 l 699 536 l 699 442 l 217 442 l 217 94 l 739 94 l 739 0 l 111 0 l 111 972 m 239 1169 l 628 1169 l 628 1086 l 239 1086 l 239 1169 z "},"Ę":{"ha":808,"x_min":111,"x_max":790,"o":"m 111 972 l 739 972 l 739 878 l 217 878 l 217 536 l 699 536 l 699 442 l 217 442 l 217 94 l 739 94 l 739 0 l 111 0 l 111 972 m 568 -185 l 568 -90 l 647 0 l 739 0 l 657 -103 l 657 -157 l 693 -193 l 790 -193 l 790 -265 l 649 -265 l 568 -185 z "},"Ẽ":{"ha":808,"x_min":111,"x_max":739,"o":"m 111 972 l 739 972 l 739 878 l 217 878 l 217 536 l 699 536 l 699 442 l 217 442 l 217 94 l 739 94 l 739 0 l 111 0 l 111 972 m 375 1144 l 350 1144 l 324 1118 l 324 1081 l 243 1081 l 243 1143 l 317 1217 l 403 1217 l 492 1144 l 518 1144 l 543 1169 l 543 1208 l 624 1208 l 624 1146 l 550 1072 l 464 1072 l 375 1144 z "},"F":{"ha":767,"x_min":111,"x_max":725,"o":"m 111 972 l 725 972 l 725 878 l 217 878 l 217 528 l 658 528 l 658 433 l 217 433 l 217 0 l 111 0 l 111 972 z "},"G":{"ha":906,"x_min":97,"x_max":822,"o":"m 97 153 l 97 819 l 250 972 l 675 972 l 822 825 l 822 736 l 717 736 l 717 790 l 628 878 l 297 878 l 203 785 l 203 188 l 297 94 l 622 94 l 717 188 l 717 413 l 497 413 l 497 507 l 822 507 l 822 153 l 669 0 l 250 0 l 97 153 z "},"Ğ":{"ha":906,"x_min":97,"x_max":822,"o":"m 97 153 l 97 819 l 250 972 l 675 972 l 822 825 l 822 736 l 717 736 l 717 790 l 628 878 l 297 878 l 203 785 l 203 188 l 297 94 l 622 94 l 717 188 l 717 413 l 497 413 l 497 507 l 822 507 l 822 153 l 669 0 l 250 0 l 97 153 m 267 1158 l 267 1242 l 353 1242 l 353 1185 l 403 1133 l 514 1133 l 564 1185 l 564 1242 l 650 1242 l 650 1158 l 550 1058 l 367 1058 l 267 1158 z "},"Ǧ":{"ha":906,"x_min":97,"x_max":822,"o":"m 97 153 l 97 819 l 250 972 l 675 972 l 822 825 l 822 736 l 717 736 l 717 790 l 628 878 l 297 878 l 203 785 l 203 188 l 297 94 l 622 94 l 717 188 l 717 413 l 497 413 l 497 507 l 822 507 l 822 153 l 669 0 l 250 0 l 97 153 m 264 1253 l 364 1253 l 454 1128 l 463 1128 l 553 1253 l 653 1253 l 510 1058 l 407 1058 l 264 1253 z "},"Ĝ":{"ha":906,"x_min":97,"x_max":822,"o":"m 97 153 l 97 819 l 250 972 l 675 972 l 822 825 l 822 736 l 717 736 l 717 790 l 628 878 l 297 878 l 203 785 l 203 188 l 297 94 l 622 94 l 717 188 l 717 413 l 497 413 l 497 507 l 822 507 l 822 153 l 669 0 l 250 0 l 97 153 m 407 1253 l 510 1253 l 653 1058 l 553 1058 l 463 1183 l 454 1183 l 364 1058 l 264 1058 l 407 1253 z "},"Ģ":{"ha":906,"x_min":97,"x_max":822,"o":"m 97 153 l 97 819 l 250 972 l 675 972 l 822 825 l 822 736 l 717 736 l 717 790 l 628 878 l 297 878 l 203 785 l 203 188 l 297 94 l 622 94 l 717 188 l 717 413 l 497 413 l 497 507 l 822 507 l 822 153 l 669 0 l 250 0 l 97 153 z "},"Ġ":{"ha":906,"x_min":97,"x_max":822,"o":"m 97 153 l 97 819 l 250 972 l 675 972 l 822 825 l 822 736 l 717 736 l 717 790 l 628 878 l 297 878 l 203 785 l 203 188 l 297 94 l 622 94 l 717 188 l 717 413 l 497 413 l 497 507 l 822 507 l 822 153 l 669 0 l 250 0 l 97 153 m 390 1110 l 390 1171 l 428 1208 l 489 1208 l 526 1171 l 526 1110 l 489 1072 l 428 1072 l 390 1110 z "},"Ḡ":{"ha":906,"x_min":97,"x_max":822,"o":"m 97 153 l 97 819 l 250 972 l 675 972 l 822 825 l 822 736 l 717 736 l 717 790 l 628 878 l 297 878 l 203 785 l 203 188 l 297 94 l 622 94 l 717 188 l 717 413 l 497 413 l 497 507 l 822 507 l 822 153 l 669 0 l 250 0 l 97 153 m 264 1169 l 653 1169 l 653 1086 l 264 1086 l 264 1169 z "},"H":{"ha":936,"x_min":111,"x_max":825,"o":"m 111 972 l 217 972 l 217 532 l 719 532 l 719 972 l 825 972 l 825 0 l 719 0 l 719 438 l 217 438 l 217 0 l 111 0 l 111 972 z "},"Ħ":{"ha":1061,"x_min":35,"x_max":1026,"o":"m 1026 707 l 888 707 l 888 0 l 782 0 l 782 438 l 279 438 l 279 0 l 174 0 l 174 707 l 35 707 l 35 790 l 174 790 l 174 972 l 279 972 l 279 790 l 782 790 l 782 972 l 888 972 l 888 790 l 1026 790 l 1026 707 m 782 707 l 279 707 l 279 532 l 782 532 l 782 707 z "},"Ḫ":{"ha":936,"x_min":111,"x_max":825,"o":"m 111 972 l 217 972 l 217 532 l 719 532 l 719 972 l 825 972 l 825 0 l 719 0 l 719 438 l 217 438 l 217 0 l 111 0 l 111 972 z "},"Ĥ":{"ha":936,"x_min":111,"x_max":825,"o":"m 111 972 l 217 972 l 217 532 l 719 532 l 719 972 l 825 972 l 825 0 l 719 0 l 719 438 l 217 438 l 217 0 l 111 0 l 111 972 m 415 1253 l 518 1253 l 661 1058 l 561 1058 l 471 1183 l 463 1183 l 372 1058 l 272 1058 l 415 1253 z "},"Ḥ":{"ha":936,"x_min":111,"x_max":825,"o":"m 111 972 l 217 972 l 217 532 l 719 532 l 719 972 l 825 972 l 825 0 l 719 0 l 719 438 l 217 438 l 217 0 l 111 0 l 111 972 z "},"I":{"ha":342,"x_min":118,"x_max":224,"o":"m 118 972 l 224 972 l 224 0 l 118 0 l 118 972 z "},"Ĳ":{"ha":1086,"x_min":118,"x_max":982,"o":"m 118 972 l 224 972 l 224 0 l 118 0 l 118 972 m 363 153 l 363 290 l 465 290 l 465 188 l 560 94 l 797 94 l 876 172 l 876 972 l 982 972 l 982 139 l 843 0 l 515 0 l 363 153 z "},"Í":{"ha":342,"x_min":118,"x_max":349,"o":"m 118 972 l 224 972 l 224 0 l 118 0 l 118 972 m 231 1276 l 349 1276 l 224 1058 l 126 1058 l 231 1276 z "},"Ĭ":{"ha":342,"x_min":-21,"x_max":363,"o":"m 118 972 l 224 972 l 224 0 l 118 0 l 118 972 m -21 1158 l -21 1242 l 65 1242 l 65 1185 l 115 1133 l 226 1133 l 276 1185 l 276 1242 l 363 1242 l 363 1158 l 263 1058 l 79 1058 l -21 1158 z "},"Ǐ":{"ha":342,"x_min":-24,"x_max":365,"o":"m 118 972 l 224 972 l 224 0 l 118 0 l 118 972 m -24 1253 l 76 1253 l 167 1128 l 175 1128 l 265 1253 l 365 1253 l 222 1058 l 119 1058 l -24 1253 z "},"Î":{"ha":342,"x_min":-24,"x_max":365,"o":"m 118 972 l 224 972 l 224 0 l 118 0 l 118 972 m 119 1253 l 222 1253 l 365 1058 l 265 1058 l 175 1183 l 167 1183 l 76 1058 l -24 1058 l 119 1253 z "},"Ï":{"ha":342,"x_min":-35,"x_max":376,"o":"m 118 972 l 224 972 l 224 0 l 118 0 l 118 972 m -35 1110 l -35 1171 l 3 1208 l 65 1208 l 101 1171 l 101 1110 l 65 1072 l 3 1072 l -35 1110 m 240 1110 l 240 1171 l 276 1208 l 339 1208 l 376 1171 l 376 1110 l 339 1072 l 276 1072 l 240 1110 z "},"İ":{"ha":342,"x_min":103,"x_max":239,"o":"m 118 972 l 224 972 l 224 0 l 118 0 l 118 972 m 103 1110 l 103 1171 l 140 1208 l 201 1208 l 239 1171 l 239 1110 l 201 1072 l 140 1072 l 103 1110 z "},"Ị":{"ha":342,"x_min":103,"x_max":239,"o":"m 118 972 l 224 972 l 224 0 l 118 0 l 118 972 z "},"Ì":{"ha":342,"x_min":-11,"x_max":224,"o":"m 118 972 l 224 972 l 224 0 l 118 0 l 118 972 m -11 1276 l 107 1276 l 211 1058 l 114 1058 l -11 1276 z "},"Ỉ":{"ha":342,"x_min":26,"x_max":315,"o":"m 118 972 l 224 972 l 224 0 l 118 0 l 118 972 m 126 1111 l 229 1213 l 229 1251 l 207 1274 l 131 1274 l 106 1249 l 106 1214 l 26 1214 l 26 1275 l 97 1346 l 244 1346 l 315 1275 l 315 1197 l 217 1099 l 217 1058 l 126 1058 l 126 1111 z "},"Ī":{"ha":342,"x_min":-24,"x_max":365,"o":"m 118 972 l 224 972 l 224 0 l 118 0 l 118 972 m -24 1169 l 365 1169 l 365 1086 l -24 1086 l -24 1169 z "},"Į":{"ha":342,"x_min":53,"x_max":275,"o":"m 118 972 l 224 972 l 224 0 l 118 0 l 118 972 m 53 -185 l 53 -90 l 132 0 l 224 0 l 142 -103 l 142 -157 l 178 -193 l 275 -193 l 275 -265 l 133 -265 l 53 -185 z "},"Ĩ":{"ha":342,"x_min":-19,"x_max":361,"o":"m 118 972 l 224 972 l 224 0 l 118 0 l 118 972 m 113 1144 l 88 1144 l 61 1118 l 61 1081 l -19 1081 l -19 1143 l 54 1217 l 140 1217 l 229 1144 l 256 1144 l 281 1169 l 281 1208 l 361 1208 l 361 1146 l 288 1072 l 201 1072 l 113 1144 z "},"J":{"ha":772,"x_min":49,"x_max":668,"o":"m 49 153 l 49 290 l 151 290 l 151 188 l 246 94 l 483 94 l 563 172 l 563 972 l 668 972 l 668 139 l 529 0 l 201 0 l 49 153 z "},"Ĵ":{"ha":772,"x_min":49,"x_max":808,"o":"m 49 153 l 49 290 l 151 290 l 151 188 l 246 94 l 483 94 l 563 172 l 563 972 l 668 972 l 668 139 l 529 0 l 201 0 l 49 153 m 563 1253 l 665 1253 l 808 1058 l 708 1058 l 618 1183 l 610 1183 l 519 1058 l 419 1058 l 563 1253 z "},"K":{"ha":857,"x_min":111,"x_max":829,"o":"m 111 972 l 217 972 l 217 532 l 443 532 l 694 972 l 808 972 l 532 488 l 829 0 l 713 0 l 444 438 l 217 438 l 217 0 l 111 0 l 111 972 z "},"Ķ":{"ha":857,"x_min":111,"x_max":829,"o":"m 111 972 l 217 972 l 217 532 l 443 532 l 694 972 l 808 972 l 532 488 l 829 0 l 713 0 l 444 438 l 217 438 l 217 0 l 111 0 l 111 972 z "},"L":{"ha":746,"x_min":111,"x_max":711,"o":"m 111 972 l 217 972 l 217 93 l 711 93 l 711 0 l 111 0 l 111 972 z "},"Ĺ":{"ha":746,"x_min":111,"x_max":711,"o":"m 111 972 l 217 972 l 217 93 l 711 93 l 711 0 l 111 0 l 111 972 m 225 1276 l 343 1276 l 218 1058 l 121 1058 l 225 1276 z "},"Ľ":{"ha":835,"x_min":111,"x_max":785,"o":"m 111 972 l 217 972 l 217 93 l 711 93 l 711 0 l 111 0 l 111 972 z "},"Ļ":{"ha":746,"x_min":111,"x_max":711,"o":"m 111 972 l 217 972 l 217 93 l 711 93 l 711 0 l 111 0 l 111 972 z "},"Ŀ":{"ha":760,"x_min":111,"x_max":711,"o":"m 111 972 l 217 972 l 217 93 l 711 93 l 711 0 l 111 0 l 111 972 z "},"Ḷ":{"ha":746,"x_min":111,"x_max":711,"o":"m 111 972 l 217 972 l 217 93 l 711 93 l 711 0 l 111 0 l 111 972 z "},"Ḹ":{"ha":746,"x_min":-29,"x_max":711,"o":"m 111 972 l 217 972 l 217 93 l 711 93 l 711 0 l 111 0 l 111 972 m -29 1169 l 360 1169 l 360 1086 l -29 1086 l -29 1169 z "},"Ḻ":{"ha":746,"x_min":111,"x_max":711,"o":"m 111 972 l 217 972 l 217 93 l 711 93 l 711 0 l 111 0 l 111 972 z "},"Ł":{"ha":794,"x_min":21,"x_max":760,"o":"m 760 93 l 760 0 l 160 0 l 160 386 l 21 292 l 21 389 l 160 483 l 160 972 l 265 972 l 265 554 l 432 667 l 432 569 l 265 457 l 265 93 l 760 93 z "},"M":{"ha":1079,"x_min":111,"x_max":968,"o":"m 111 972 l 225 972 l 538 219 l 540 219 l 853 972 l 968 972 l 968 0 l 868 0 l 868 768 l 865 768 l 581 97 l 497 97 l 214 768 l 211 768 l 211 0 l 111 0 l 111 972 z "},"Ṃ":{"ha":1079,"x_min":111,"x_max":968,"o":"m 111 972 l 225 972 l 538 219 l 540 219 l 853 972 l 968 972 l 968 0 l 868 0 l 868 768 l 865 768 l 581 97 l 497 97 l 214 768 l 211 768 l 211 0 l 111 0 l 111 972 z "},"N":{"ha":935,"x_min":111,"x_max":824,"o":"m 111 972 l 214 972 l 721 172 l 724 172 l 724 972 l 824 972 l 824 0 l 721 0 l 214 800 l 211 800 l 211 0 l 111 0 l 111 972 z "},"Ń":{"ha":935,"x_min":111,"x_max":824,"o":"m 111 972 l 214 972 l 721 172 l 724 172 l 724 972 l 824 972 l 824 0 l 721 0 l 214 800 l 211 800 l 211 0 l 111 0 l 111 972 m 526 1276 l 644 1276 l 519 1058 l 422 1058 l 526 1276 z "},"Ň":{"ha":935,"x_min":111,"x_max":824,"o":"m 111 972 l 214 972 l 721 172 l 724 172 l 724 972 l 824 972 l 824 0 l 721 0 l 214 800 l 211 800 l 211 0 l 111 0 l 111 972 m 272 1253 l 372 1253 l 463 1128 l 471 1128 l 561 1253 l 661 1253 l 518 1058 l 415 1058 l 272 1253 z "},"Ņ":{"ha":935,"x_min":111,"x_max":824,"o":"m 111 972 l 214 972 l 721 172 l 724 172 l 724 972 l 824 972 l 824 0 l 721 0 l 214 800 l 211 800 l 211 0 l 111 0 l 111 972 z "},"Ṅ":{"ha":935,"x_min":111,"x_max":824,"o":"m 111 972 l 214 972 l 721 172 l 724 172 l 724 972 l 824 972 l 824 0 l 721 0 l 214 800 l 211 800 l 211 0 l 111 0 l 111 972 m 399 1110 l 399 1171 l 436 1208 l 497 1208 l 535 1171 l 535 1110 l 497 1072 l 436 1072 l 399 1110 z "},"Ṇ":{"ha":935,"x_min":111,"x_max":824,"o":"m 111 972 l 214 972 l 721 172 l 724 172 l 724 972 l 824 972 l 824 0 l 721 0 l 214 800 l 211 800 l 211 0 l 111 0 l 111 972 z "},"Ŋ":{"ha":931,"x_min":111,"x_max":819,"o":"m 819 972 l 819 -176 l 693 -303 l 508 -303 l 508 -211 l 647 -211 l 717 -143 l 717 0 l 214 800 l 211 800 l 211 0 l 111 0 l 111 972 l 214 972 l 717 172 l 719 172 l 719 972 l 819 972 z "},"Ṉ":{"ha":935,"x_min":111,"x_max":824,"o":"m 111 972 l 214 972 l 721 172 l 724 172 l 724 972 l 824 972 l 824 0 l 721 0 l 214 800 l 211 800 l 211 0 l 111 0 l 111 972 z "},"Ñ":{"ha":935,"x_min":111,"x_max":824,"o":"m 111 972 l 214 972 l 721 172 l 724 172 l 724 972 l 824 972 l 824 0 l 721 0 l 214 800 l 211 800 l 211 0 l 111 0 l 111 972 m 408 1144 l 383 1144 l 357 1118 l 357 1081 l 276 1081 l 276 1143 l 350 1217 l 436 1217 l 525 1144 l 551 1144 l 576 1169 l 576 1208 l 657 1208 l 657 1146 l 583 1072 l 497 1072 l 408 1144 z "},"O":{"ha":939,"x_min":97,"x_max":842,"o":"m 97 153 l 97 819 l 250 972 l 689 972 l 842 819 l 842 153 l 689 0 l 250 0 l 97 153 m 642 94 l 736 188 l 736 785 l 642 878 l 297 878 l 203 785 l 203 188 l 297 94 l 642 94 z "},"Ó":{"ha":939,"x_min":97,"x_max":842,"o":"m 97 153 l 97 819 l 250 972 l 689 972 l 842 819 l 842 153 l 689 0 l 250 0 l 97 153 m 642 94 l 736 188 l 736 785 l 642 878 l 297 878 l 203 785 l 203 188 l 297 94 l 642 94 m 531 1276 l 649 1276 l 524 1058 l 426 1058 l 531 1276 z "},"Ŏ":{"ha":939,"x_min":97,"x_max":842,"o":"m 97 153 l 97 819 l 250 972 l 689 972 l 842 819 l 842 153 l 689 0 l 250 0 l 97 153 m 642 94 l 736 188 l 736 785 l 642 878 l 297 878 l 203 785 l 203 188 l 297 94 l 642 94 m 279 1158 l 279 1242 l 365 1242 l 365 1185 l 415 1133 l 526 1133 l 576 1185 l 576 1242 l 663 1242 l 663 1158 l 563 1058 l 379 1058 l 279 1158 z "},"Ǒ":{"ha":939,"x_min":97,"x_max":842,"o":"m 97 153 l 97 819 l 250 972 l 689 972 l 842 819 l 842 153 l 689 0 l 250 0 l 97 153 m 642 94 l 736 188 l 736 785 l 642 878 l 297 878 l 203 785 l 203 188 l 297 94 l 642 94 m 276 1253 l 376 1253 l 467 1128 l 475 1128 l 565 1253 l 665 1253 l 522 1058 l 419 1058 l 276 1253 z "},"Ô":{"ha":939,"x_min":97,"x_max":842,"o":"m 97 153 l 97 819 l 250 972 l 689 972 l 842 819 l 842 153 l 689 0 l 250 0 l 97 153 m 642 94 l 736 188 l 736 785 l 642 878 l 297 878 l 203 785 l 203 188 l 297 94 l 642 94 m 419 1253 l 522 1253 l 665 1058 l 565 1058 l 475 1183 l 467 1183 l 376 1058 l 276 1058 l 419 1253 z "},"Ố":{"ha":939,"x_min":97,"x_max":842,"o":"m 97 153 l 97 819 l 250 972 l 689 972 l 842 819 l 842 153 l 689 0 l 250 0 l 97 153 m 642 94 l 736 188 l 736 785 l 642 878 l 297 878 l 203 785 l 203 188 l 297 94 l 642 94 m 697 1465 l 804 1465 l 689 1267 l 603 1267 l 697 1465 m 419 1253 l 522 1253 l 665 1058 l 565 1058 l 475 1183 l 467 1183 l 376 1058 l 276 1058 l 419 1253 z "},"Ộ":{"ha":939,"x_min":97,"x_max":842,"o":"m 97 153 l 97 819 l 250 972 l 689 972 l 842 819 l 842 153 l 689 0 l 250 0 l 97 153 m 642 94 l 736 188 l 736 785 l 642 878 l 297 878 l 203 785 l 203 188 l 297 94 l 642 94 m 419 1253 l 522 1253 l 665 1058 l 565 1058 l 475 1183 l 467 1183 l 376 1058 l 276 1058 l 419 1253 z "},"Ồ":{"ha":939,"x_min":97,"x_max":842,"o":"m 97 153 l 97 819 l 250 972 l 689 972 l 842 819 l 842 153 l 689 0 l 250 0 l 97 153 m 642 94 l 736 188 l 736 785 l 642 878 l 297 878 l 203 785 l 203 188 l 297 94 l 642 94 m 525 1465 l 632 1465 l 726 1267 l 640 1267 l 525 1465 m 419 1253 l 522 1253 l 665 1058 l 565 1058 l 475 1183 l 467 1183 l 376 1058 l 276 1058 l 419 1253 z "},"Ổ":{"ha":939,"x_min":97,"x_max":842,"o":"m 97 153 l 97 819 l 250 972 l 689 972 l 842 819 l 842 153 l 689 0 l 250 0 l 97 153 m 642 94 l 736 188 l 736 785 l 642 878 l 297 878 l 203 785 l 203 188 l 297 94 l 642 94 m 613 1269 l 711 1358 l 711 1392 l 689 1413 l 619 1413 l 594 1389 l 594 1353 l 517 1353 l 517 1414 l 588 1485 l 721 1485 l 792 1414 l 792 1336 l 700 1257 l 700 1217 l 613 1217 l 613 1269 m 419 1253 l 522 1253 l 665 1058 l 565 1058 l 475 1183 l 467 1183 l 376 1058 l 276 1058 l 419 1253 z "},"Ỗ":{"ha":939,"x_min":97,"x_max":842,"o":"m 97 153 l 97 819 l 250 972 l 689 972 l 842 819 l 842 153 l 689 0 l 250 0 l 97 153 m 642 94 l 736 188 l 736 785 l 642 878 l 297 878 l 203 785 l 203 188 l 297 94 l 642 94 m 417 1367 l 389 1367 l 363 1340 l 363 1306 l 285 1306 l 285 1363 l 358 1436 l 442 1436 l 525 1367 l 554 1367 l 579 1392 l 579 1428 l 657 1428 l 657 1371 l 583 1297 l 500 1297 l 417 1367 m 419 1253 l 522 1253 l 665 1058 l 565 1058 l 475 1183 l 467 1183 l 376 1058 l 276 1058 l 419 1253 z "},"Ö":{"ha":939,"x_min":97,"x_max":842,"o":"m 97 153 l 97 819 l 250 972 l 689 972 l 842 819 l 842 153 l 689 0 l 250 0 l 97 153 m 642 94 l 736 188 l 736 785 l 642 878 l 297 878 l 203 785 l 203 188 l 297 94 l 642 94 m 265 1110 l 265 1171 l 303 1208 l 365 1208 l 401 1171 l 401 1110 l 365 1072 l 303 1072 l 265 1110 m 540 1110 l 540 1171 l 576 1208 l 639 1208 l 676 1171 l 676 1110 l 639 1072 l 576 1072 l 540 1110 z "},"Ọ":{"ha":939,"x_min":97,"x_max":842,"o":"m 97 153 l 97 819 l 250 972 l 689 972 l 842 819 l 842 153 l 689 0 l 250 0 l 97 153 m 642 94 l 736 188 l 736 785 l 642 878 l 297 878 l 203 785 l 203 188 l 297 94 l 642 94 z "},"Ò":{"ha":939,"x_min":97,"x_max":842,"o":"m 97 153 l 97 819 l 250 972 l 689 972 l 842 819 l 842 153 l 689 0 l 250 0 l 97 153 m 642 94 l 736 188 l 736 785 l 642 878 l 297 878 l 203 785 l 203 188 l 297 94 l 642 94 m 289 1276 l 407 1276 l 511 1058 l 414 1058 l 289 1276 z "},"Ỏ":{"ha":939,"x_min":97,"x_max":842,"o":"m 97 153 l 97 819 l 250 972 l 689 972 l 842 819 l 842 153 l 689 0 l 250 0 l 97 153 m 642 94 l 736 188 l 736 785 l 642 878 l 297 878 l 203 785 l 203 188 l 297 94 l 642 94 m 426 1111 l 529 1213 l 529 1251 l 507 1274 l 431 1274 l 406 1249 l 406 1214 l 326 1214 l 326 1275 l 397 1346 l 544 1346 l 615 1275 l 615 1197 l 517 1099 l 517 1058 l 426 1058 l 426 1111 z "},"Ơ":{"ha":1019,"x_min":97,"x_max":1019,"o":"m 1019 986 l 1019 843 l 906 729 l 842 729 l 842 153 l 689 0 l 250 0 l 97 153 l 97 819 l 250 972 l 689 972 l 842 819 l 842 815 l 858 815 l 922 878 l 922 986 l 1019 986 m 736 785 l 642 878 l 297 878 l 203 785 l 203 188 l 297 94 l 642 94 l 736 188 l 736 785 z "},"Ớ":{"ha":1019,"x_min":97,"x_max":1019,"o":"m 1019 986 l 1019 843 l 906 729 l 842 729 l 842 153 l 689 0 l 250 0 l 97 153 l 97 819 l 250 972 l 689 972 l 842 819 l 842 815 l 858 815 l 922 878 l 922 986 l 1019 986 m 736 785 l 642 878 l 297 878 l 203 785 l 203 188 l 297 94 l 642 94 l 736 188 l 736 785 m 531 1276 l 649 1276 l 524 1058 l 426 1058 l 531 1276 z "},"Ợ":{"ha":1019,"x_min":97,"x_max":1019,"o":"m 1019 986 l 1019 843 l 906 729 l 842 729 l 842 153 l 689 0 l 250 0 l 97 153 l 97 819 l 250 972 l 689 972 l 842 819 l 842 815 l 858 815 l 922 878 l 922 986 l 1019 986 m 736 785 l 642 878 l 297 878 l 203 785 l 203 188 l 297 94 l 642 94 l 736 188 l 736 785 z "},"Ờ":{"ha":1019,"x_min":97,"x_max":1019,"o":"m 1019 986 l 1019 843 l 906 729 l 842 729 l 842 153 l 689 0 l 250 0 l 97 153 l 97 819 l 250 972 l 689 972 l 842 819 l 842 815 l 858 815 l 922 878 l 922 986 l 1019 986 m 736 785 l 642 878 l 297 878 l 203 785 l 203 188 l 297 94 l 642 94 l 736 188 l 736 785 m 289 1276 l 407 1276 l 511 1058 l 414 1058 l 289 1276 z "},"Ở":{"ha":1019,"x_min":97,"x_max":1019,"o":"m 1019 986 l 1019 843 l 906 729 l 842 729 l 842 153 l 689 0 l 250 0 l 97 153 l 97 819 l 250 972 l 689 972 l 842 819 l 842 815 l 858 815 l 922 878 l 922 986 l 1019 986 m 736 785 l 642 878 l 297 878 l 203 785 l 203 188 l 297 94 l 642 94 l 736 188 l 736 785 m 426 1111 l 529 1213 l 529 1251 l 507 1274 l 431 1274 l 406 1249 l 406 1214 l 326 1214 l 326 1275 l 397 1346 l 544 1346 l 615 1275 l 615 1197 l 517 1099 l 517 1058 l 426 1058 l 426 1111 z "},"Ỡ":{"ha":1019,"x_min":97,"x_max":1019,"o":"m 1019 986 l 1019 843 l 906 729 l 842 729 l 842 153 l 689 0 l 250 0 l 97 153 l 97 819 l 250 972 l 689 972 l 842 819 l 842 815 l 858 815 l 922 878 l 922 986 l 1019 986 m 736 785 l 642 878 l 297 878 l 203 785 l 203 188 l 297 94 l 642 94 l 736 188 l 736 785 m 413 1144 l 388 1144 l 361 1118 l 361 1081 l 281 1081 l 281 1143 l 354 1217 l 440 1217 l 529 1144 l 556 1144 l 581 1169 l 581 1208 l 661 1208 l 661 1146 l 588 1072 l 501 1072 l 413 1144 z "},"Ő":{"ha":939,"x_min":97,"x_max":842,"o":"m 97 153 l 97 819 l 250 972 l 689 972 l 842 819 l 842 153 l 689 0 l 250 0 l 97 153 m 642 94 l 736 188 l 736 785 l 642 878 l 297 878 l 203 785 l 203 188 l 297 94 l 642 94 m 421 1276 l 536 1276 l 411 1058 l 317 1058 l 421 1276 m 631 1276 l 744 1276 l 621 1058 l 525 1058 l 631 1276 z "},"Ō":{"ha":939,"x_min":97,"x_max":842,"o":"m 97 153 l 97 819 l 250 972 l 689 972 l 842 819 l 842 153 l 689 0 l 250 0 l 97 153 m 642 94 l 736 188 l 736 785 l 642 878 l 297 878 l 203 785 l 203 188 l 297 94 l 642 94 m 276 1169 l 665 1169 l 665 1086 l 276 1086 l 276 1169 z "},"Ø":{"ha":939,"x_min":39,"x_max":900,"o":"m 794 867 l 842 819 l 842 153 l 689 0 l 250 0 l 207 43 l 147 -42 l 39 -42 l 144 106 l 97 153 l 97 819 l 250 972 l 689 972 l 732 929 l 792 1014 l 900 1014 l 794 867 m 203 188 l 672 847 l 642 878 l 297 878 l 203 785 l 203 188 m 736 785 l 267 125 l 297 94 l 642 94 l 736 188 l 736 785 z "},"Ǿ":{"ha":939,"x_min":39,"x_max":900,"o":"m 794 867 l 842 819 l 842 153 l 689 0 l 250 0 l 207 43 l 147 -42 l 39 -42 l 144 106 l 97 153 l 97 819 l 250 972 l 689 972 l 732 929 l 792 1014 l 900 1014 l 794 867 m 203 188 l 672 847 l 642 878 l 297 878 l 203 785 l 203 188 m 736 785 l 267 125 l 297 94 l 642 94 l 736 188 l 736 785 m 531 1276 l 649 1276 l 524 1058 l 426 1058 l 531 1276 z "},"Õ":{"ha":939,"x_min":97,"x_max":842,"o":"m 97 153 l 97 819 l 250 972 l 689 972 l 842 819 l 842 153 l 689 0 l 250 0 l 97 153 m 642 94 l 736 188 l 736 785 l 642 878 l 297 878 l 203 785 l 203 188 l 297 94 l 642 94 m 413 1144 l 388 1144 l 361 1118 l 361 1081 l 281 1081 l 281 1143 l 354 1217 l 440 1217 l 529 1144 l 556 1144 l 581 1169 l 581 1208 l 661 1208 l 661 1146 l 588 1072 l 501 1072 l 413 1144 z "},"Œ":{"ha":1408,"x_min":97,"x_max":1339,"o":"m 842 533 l 1299 533 l 1299 439 l 842 439 l 842 94 l 1339 94 l 1339 0 l 750 0 l 750 89 l 661 0 l 250 0 l 97 153 l 97 819 l 250 972 l 661 972 l 750 883 l 750 972 l 1339 972 l 1339 878 l 842 878 l 842 533 m 736 201 l 736 771 l 628 878 l 297 878 l 203 785 l 203 188 l 297 94 l 628 94 l 736 201 z "},"P":{"ha":864,"x_min":111,"x_max":794,"o":"m 111 972 l 667 972 l 794 844 l 794 532 l 665 403 l 217 403 l 217 0 l 111 0 l 111 972 m 621 494 l 690 563 l 690 813 l 621 881 l 217 881 l 217 494 l 621 494 z "},"Þ":{"ha":864,"x_min":111,"x_max":794,"o":"m 794 643 l 794 331 l 665 201 l 217 201 l 217 0 l 111 0 l 111 972 l 217 972 l 217 771 l 667 771 l 794 643 m 692 611 l 622 679 l 217 679 l 217 293 l 622 293 l 692 361 l 692 611 z "},"Q":{"ha":939,"x_min":97,"x_max":875,"o":"m 875 -86 l 811 -150 l 664 0 l 250 0 l 97 153 l 97 819 l 250 972 l 689 972 l 842 819 l 842 153 l 739 50 l 875 -86 m 736 188 l 736 785 l 642 878 l 297 878 l 203 785 l 203 188 l 297 94 l 642 94 l 736 188 z "},"R":{"ha":904,"x_min":111,"x_max":800,"o":"m 800 297 l 800 0 l 694 0 l 694 268 l 561 408 l 217 408 l 217 0 l 111 0 l 111 972 l 667 972 l 794 844 l 794 538 l 682 425 l 800 297 m 217 500 l 621 500 l 690 568 l 690 813 l 621 881 l 217 881 l 217 500 z "},"Ŕ":{"ha":904,"x_min":111,"x_max":800,"o":"m 800 297 l 800 0 l 694 0 l 694 268 l 561 408 l 217 408 l 217 0 l 111 0 l 111 972 l 667 972 l 794 844 l 794 538 l 682 425 l 800 297 m 217 500 l 621 500 l 690 568 l 690 813 l 621 881 l 217 881 l 217 500 m 496 1276 l 614 1276 l 489 1058 l 392 1058 l 496 1276 z "},"Ř":{"ha":904,"x_min":111,"x_max":800,"o":"m 800 297 l 800 0 l 694 0 l 694 268 l 561 408 l 217 408 l 217 0 l 111 0 l 111 972 l 667 972 l 794 844 l 794 538 l 682 425 l 800 297 m 217 500 l 621 500 l 690 568 l 690 813 l 621 881 l 217 881 l 217 500 m 242 1253 l 342 1253 l 432 1128 l 440 1128 l 531 1253 l 631 1253 l 488 1058 l 385 1058 l 242 1253 z "},"Ŗ":{"ha":904,"x_min":111,"x_max":800,"o":"m 800 297 l 800 0 l 694 0 l 694 268 l 561 408 l 217 408 l 217 0 l 111 0 l 111 972 l 667 972 l 794 844 l 794 538 l 682 425 l 800 297 m 217 500 l 621 500 l 690 568 l 690 813 l 621 881 l 217 881 l 217 500 z "},"Ṛ":{"ha":904,"x_min":111,"x_max":800,"o":"m 800 297 l 800 0 l 694 0 l 694 268 l 561 408 l 217 408 l 217 0 l 111 0 l 111 972 l 667 972 l 794 844 l 794 538 l 682 425 l 800 297 m 217 500 l 621 500 l 690 568 l 690 813 l 621 881 l 217 881 l 217 500 z "},"Ṝ":{"ha":904,"x_min":111,"x_max":800,"o":"m 800 297 l 800 0 l 694 0 l 694 268 l 561 408 l 217 408 l 217 0 l 111 0 l 111 972 l 667 972 l 794 844 l 794 538 l 682 425 l 800 297 m 217 500 l 621 500 l 690 568 l 690 813 l 621 881 l 217 881 l 217 500 m 242 1169 l 631 1169 l 631 1086 l 242 1086 l 242 1169 z "},"Ṟ":{"ha":904,"x_min":111,"x_max":800,"o":"m 800 297 l 800 0 l 694 0 l 694 268 l 561 408 l 217 408 l 217 0 l 111 0 l 111 972 l 667 972 l 794 844 l 794 538 l 682 425 l 800 297 m 217 500 l 621 500 l 690 568 l 690 813 l 621 881 l 217 881 l 217 500 z "},"S":{"ha":851,"x_min":90,"x_max":768,"o":"m 90 128 l 90 217 l 194 217 l 194 163 l 261 94 l 594 94 l 664 165 l 664 383 l 594 451 l 221 451 l 93 579 l 93 844 l 221 972 l 629 972 l 757 844 l 757 754 l 654 754 l 654 810 l 585 878 l 267 878 l 197 810 l 197 614 l 267 546 l 640 546 l 768 418 l 768 131 l 638 0 l 218 0 l 90 128 z "},"Ś":{"ha":851,"x_min":90,"x_max":768,"o":"m 90 128 l 90 217 l 194 217 l 194 163 l 261 94 l 594 94 l 664 165 l 664 383 l 594 451 l 221 451 l 93 579 l 93 844 l 221 972 l 629 972 l 757 844 l 757 754 l 654 754 l 654 810 l 585 878 l 267 878 l 197 810 l 197 614 l 267 546 l 640 546 l 768 418 l 768 131 l 638 0 l 218 0 l 90 128 m 483 1276 l 601 1276 l 476 1058 l 379 1058 l 483 1276 z "},"Š":{"ha":851,"x_min":90,"x_max":768,"o":"m 90 128 l 90 217 l 194 217 l 194 163 l 261 94 l 594 94 l 664 165 l 664 383 l 594 451 l 221 451 l 93 579 l 93 844 l 221 972 l 629 972 l 757 844 l 757 754 l 654 754 l 654 810 l 585 878 l 267 878 l 197 810 l 197 614 l 267 546 l 640 546 l 768 418 l 768 131 l 638 0 l 218 0 l 90 128 m 229 1253 l 329 1253 l 419 1128 l 428 1128 l 518 1253 l 618 1253 l 475 1058 l 372 1058 l 229 1253 z "},"Ş":{"ha":851,"x_min":90,"x_max":768,"o":"m 768 418 l 768 131 l 638 0 l 475 0 l 446 -75 l 533 -75 l 603 -144 l 603 -249 l 531 -321 l 328 -321 l 328 -250 l 493 -250 l 521 -222 l 521 -174 l 493 -146 l 351 -146 l 351 -92 l 386 0 l 218 0 l 90 128 l 90 217 l 194 217 l 194 163 l 261 94 l 594 94 l 664 165 l 664 383 l 594 451 l 221 451 l 93 579 l 93 844 l 221 972 l 629 972 l 757 844 l 757 754 l 654 754 l 654 810 l 585 878 l 267 878 l 197 810 l 197 614 l 267 546 l 640 546 l 768 418 z "},"Ŝ":{"ha":851,"x_min":90,"x_max":768,"o":"m 90 128 l 90 217 l 194 217 l 194 163 l 261 94 l 594 94 l 664 165 l 664 383 l 594 451 l 221 451 l 93 579 l 93 844 l 221 972 l 629 972 l 757 844 l 757 754 l 654 754 l 654 810 l 585 878 l 267 878 l 197 810 l 197 614 l 267 546 l 640 546 l 768 418 l 768 131 l 638 0 l 218 0 l 90 128 m 372 1253 l 475 1253 l 618 1058 l 518 1058 l 428 1183 l 419 1183 l 329 1058 l 229 1058 l 372 1253 z "},"Ș":{"ha":851,"x_min":90,"x_max":768,"o":"m 90 128 l 90 217 l 194 217 l 194 163 l 261 94 l 594 94 l 664 165 l 664 383 l 594 451 l 221 451 l 93 579 l 93 844 l 221 972 l 629 972 l 757 844 l 757 754 l 654 754 l 654 810 l 585 878 l 267 878 l 197 810 l 197 614 l 267 546 l 640 546 l 768 418 l 768 131 l 638 0 l 218 0 l 90 128 z "},"Ṡ":{"ha":851,"x_min":90,"x_max":768,"o":"m 90 128 l 90 217 l 194 217 l 194 163 l 261 94 l 594 94 l 664 165 l 664 383 l 594 451 l 221 451 l 93 579 l 93 844 l 221 972 l 629 972 l 757 844 l 757 754 l 654 754 l 654 810 l 585 878 l 267 878 l 197 810 l 197 614 l 267 546 l 640 546 l 768 418 l 768 131 l 638 0 l 218 0 l 90 128 m 356 1110 l 356 1171 l 393 1208 l 454 1208 l 492 1171 l 492 1110 l 454 1072 l 393 1072 l 356 1110 z "},"Ṣ":{"ha":851,"x_min":90,"x_max":768,"o":"m 90 128 l 90 217 l 194 217 l 194 163 l 261 94 l 594 94 l 664 165 l 664 383 l 594 451 l 221 451 l 93 579 l 93 844 l 221 972 l 629 972 l 757 844 l 757 754 l 654 754 l 654 810 l 585 878 l 267 878 l 197 810 l 197 614 l 267 546 l 640 546 l 768 418 l 768 131 l 638 0 l 218 0 l 90 128 z "},"ẞ":{"ha":918,"x_min":111,"x_max":849,"o":"m 849 431 l 849 114 l 735 0 l 471 0 l 360 111 l 360 200 l 463 200 l 463 146 l 518 92 l 688 92 l 743 146 l 743 397 l 688 453 l 485 453 l 485 558 l 658 878 l 279 878 l 217 817 l 217 0 l 111 0 l 111 851 l 232 972 l 769 972 l 769 878 l 588 544 l 735 544 l 849 431 z "},"Ə":{"ha":969,"x_min":97,"x_max":872,"o":"m 97 179 l 97 531 l 767 531 l 767 757 l 644 878 l 325 878 l 203 757 l 203 671 l 97 671 l 97 793 l 276 972 l 693 972 l 872 793 l 872 179 l 693 0 l 276 0 l 97 179 m 642 94 l 767 218 l 767 436 l 203 436 l 203 218 l 328 94 l 642 94 z "},"T":{"ha":778,"x_min":42,"x_max":736,"o":"m 336 879 l 42 879 l 42 972 l 736 972 l 736 879 l 442 879 l 442 0 l 336 0 l 336 879 z "},"Ŧ":{"ha":778,"x_min":42,"x_max":736,"o":"m 442 879 l 442 504 l 685 504 l 685 418 l 442 418 l 442 0 l 336 0 l 336 418 l 110 418 l 110 504 l 336 504 l 336 879 l 42 879 l 42 972 l 736 972 l 736 879 l 442 879 z "},"Ť":{"ha":778,"x_min":42,"x_max":736,"o":"m 336 879 l 42 879 l 42 972 l 736 972 l 736 879 l 442 879 l 442 0 l 336 0 l 336 879 m 194 1253 l 294 1253 l 385 1128 l 393 1128 l 483 1253 l 583 1253 l 440 1058 l 338 1058 l 194 1253 z "},"Ţ":{"ha":778,"x_min":42,"x_max":736,"o":"m 336 879 l 42 879 l 42 972 l 736 972 l 736 879 l 442 879 l 442 0 l 336 0 l 336 879 m 271 -292 l 436 -292 l 464 -264 l 464 -215 l 436 -187 l 294 -187 l 294 -133 l 346 0 l 435 0 l 389 -117 l 476 -117 l 546 -186 l 546 -290 l 474 -362 l 271 -362 l 271 -292 z "},"Ț":{"ha":778,"x_min":42,"x_max":736,"o":"m 336 879 l 42 879 l 42 972 l 736 972 l 736 879 l 442 879 l 442 0 l 336 0 l 336 879 z "},"Ṭ":{"ha":778,"x_min":42,"x_max":736,"o":"m 336 879 l 42 879 l 42 972 l 736 972 l 736 879 l 442 879 l 442 0 l 336 0 l 336 879 z "},"Ṯ":{"ha":778,"x_min":42,"x_max":736,"o":"m 336 879 l 42 879 l 42 972 l 736 972 l 736 879 l 442 879 l 442 0 l 336 0 l 336 879 z "},"U":{"ha":939,"x_min":111,"x_max":828,"o":"m 111 153 l 111 972 l 217 972 l 217 188 l 311 94 l 628 94 l 722 188 l 722 972 l 828 972 l 828 153 l 675 0 l 264 0 l 111 153 z "},"Ú":{"ha":939,"x_min":111,"x_max":828,"o":"m 111 153 l 111 972 l 217 972 l 217 188 l 311 94 l 628 94 l 722 188 l 722 972 l 828 972 l 828 153 l 675 0 l 264 0 l 111 153 m 529 1276 l 647 1276 l 522 1058 l 425 1058 l 529 1276 z "},"Ŭ":{"ha":939,"x_min":111,"x_max":828,"o":"m 111 153 l 111 972 l 217 972 l 217 188 l 311 94 l 628 94 l 722 188 l 722 972 l 828 972 l 828 153 l 675 0 l 264 0 l 111 153 m 278 1158 l 278 1242 l 364 1242 l 364 1185 l 414 1133 l 525 1133 l 575 1185 l 575 1242 l 661 1242 l 661 1158 l 561 1058 l 378 1058 l 278 1158 z "},"Ǔ":{"ha":939,"x_min":111,"x_max":828,"o":"m 111 153 l 111 972 l 217 972 l 217 188 l 311 94 l 628 94 l 722 188 l 722 972 l 828 972 l 828 153 l 675 0 l 264 0 l 111 153 m 275 1253 l 375 1253 l 465 1128 l 474 1128 l 564 1253 l 664 1253 l 521 1058 l 418 1058 l 275 1253 z "},"Û":{"ha":939,"x_min":111,"x_max":828,"o":"m 111 153 l 111 972 l 217 972 l 217 188 l 311 94 l 628 94 l 722 188 l 722 972 l 828 972 l 828 153 l 675 0 l 264 0 l 111 153 m 418 1253 l 521 1253 l 664 1058 l 564 1058 l 474 1183 l 465 1183 l 375 1058 l 275 1058 l 418 1253 z "},"Ü":{"ha":939,"x_min":111,"x_max":828,"o":"m 111 153 l 111 972 l 217 972 l 217 188 l 311 94 l 628 94 l 722 188 l 722 972 l 828 972 l 828 153 l 675 0 l 264 0 l 111 153 m 264 1110 l 264 1171 l 301 1208 l 364 1208 l 400 1171 l 400 1110 l 364 1072 l 301 1072 l 264 1110 m 539 1110 l 539 1171 l 575 1208 l 638 1208 l 675 1171 l 675 1110 l 638 1072 l 575 1072 l 539 1110 z "},"Ǘ":{"ha":939,"x_min":111,"x_max":828,"o":"m 111 153 l 111 972 l 217 972 l 217 188 l 311 94 l 628 94 l 722 188 l 722 972 l 828 972 l 828 153 l 675 0 l 264 0 l 111 153 m 517 1465 l 624 1465 l 508 1267 l 422 1267 l 517 1465 m 264 1110 l 264 1171 l 301 1208 l 364 1208 l 400 1171 l 400 1110 l 364 1072 l 301 1072 l 264 1110 m 539 1110 l 539 1171 l 575 1208 l 638 1208 l 675 1171 l 675 1110 l 638 1072 l 575 1072 l 539 1110 z "},"Ǚ":{"ha":939,"x_min":111,"x_max":828,"o":"m 111 153 l 111 972 l 217 972 l 217 188 l 311 94 l 628 94 l 722 188 l 722 972 l 828 972 l 828 153 l 675 0 l 264 0 l 111 153 m 281 1447 l 378 1447 l 465 1331 l 474 1331 l 561 1447 l 658 1447 l 518 1267 l 421 1267 l 281 1447 m 264 1110 l 264 1171 l 301 1208 l 364 1208 l 400 1171 l 400 1110 l 364 1072 l 301 1072 l 264 1110 m 539 1110 l 539 1171 l 575 1208 l 638 1208 l 675 1171 l 675 1110 l 638 1072 l 575 1072 l 539 1110 z "},"Ǜ":{"ha":939,"x_min":111,"x_max":828,"o":"m 111 153 l 111 972 l 217 972 l 217 188 l 311 94 l 628 94 l 722 188 l 722 972 l 828 972 l 828 153 l 675 0 l 264 0 l 111 153 m 315 1465 l 422 1465 l 517 1267 l 431 1267 l 315 1465 m 264 1110 l 264 1171 l 301 1208 l 364 1208 l 400 1171 l 400 1110 l 364 1072 l 301 1072 l 264 1110 m 539 1110 l 539 1171 l 575 1208 l 638 1208 l 675 1171 l 675 1110 l 638 1072 l 575 1072 l 539 1110 z "},"Ǖ":{"ha":939,"x_min":111,"x_max":828,"o":"m 111 153 l 111 972 l 217 972 l 217 188 l 311 94 l 628 94 l 722 188 l 722 972 l 828 972 l 828 153 l 675 0 l 264 0 l 111 153 m 275 1386 l 664 1386 l 664 1306 l 275 1306 l 275 1386 m 264 1110 l 264 1171 l 301 1208 l 364 1208 l 400 1171 l 400 1110 l 364 1072 l 301 1072 l 264 1110 m 539 1110 l 539 1171 l 575 1208 l 638 1208 l 675 1171 l 675 1110 l 638 1072 l 575 1072 l 539 1110 z "},"Ụ":{"ha":939,"x_min":111,"x_max":828,"o":"m 111 153 l 111 972 l 217 972 l 217 188 l 311 94 l 628 94 l 722 188 l 722 972 l 828 972 l 828 153 l 675 0 l 264 0 l 111 153 z "},"Ù":{"ha":939,"x_min":111,"x_max":828,"o":"m 111 153 l 111 972 l 217 972 l 217 188 l 311 94 l 628 94 l 722 188 l 722 972 l 828 972 l 828 153 l 675 0 l 264 0 l 111 153 m 304 1276 l 422 1276 l 526 1058 l 429 1058 l 304 1276 z "},"Ủ":{"ha":939,"x_min":111,"x_max":828,"o":"m 111 153 l 111 972 l 217 972 l 217 188 l 311 94 l 628 94 l 722 188 l 722 972 l 828 972 l 828 153 l 675 0 l 264 0 l 111 153 m 425 1111 l 528 1213 l 528 1251 l 506 1274 l 429 1274 l 404 1249 l 404 1214 l 325 1214 l 325 1275 l 396 1346 l 543 1346 l 614 1275 l 614 1197 l 515 1099 l 515 1058 l 425 1058 l 425 1111 z "},"Ư":{"ha":1019,"x_min":111,"x_max":1033,"o":"m 1033 986 l 1033 843 l 919 729 l 828 729 l 828 153 l 675 0 l 264 0 l 111 153 l 111 972 l 217 972 l 217 188 l 311 94 l 628 94 l 722 188 l 722 972 l 828 972 l 828 815 l 872 815 l 936 878 l 936 986 l 1033 986 z "},"Ứ":{"ha":1019,"x_min":111,"x_max":1033,"o":"m 1033 986 l 1033 843 l 919 729 l 828 729 l 828 153 l 675 0 l 264 0 l 111 153 l 111 972 l 217 972 l 217 188 l 311 94 l 628 94 l 722 188 l 722 972 l 828 972 l 828 815 l 872 815 l 936 878 l 936 986 l 1033 986 m 529 1276 l 647 1276 l 522 1058 l 425 1058 l 529 1276 z "},"Ự":{"ha":1019,"x_min":111,"x_max":1033,"o":"m 1033 986 l 1033 843 l 919 729 l 828 729 l 828 153 l 675 0 l 264 0 l 111 153 l 111 972 l 217 972 l 217 188 l 311 94 l 628 94 l 722 188 l 722 972 l 828 972 l 828 815 l 872 815 l 936 878 l 936 986 l 1033 986 z "},"Ừ":{"ha":1019,"x_min":111,"x_max":1033,"o":"m 1033 986 l 1033 843 l 919 729 l 828 729 l 828 153 l 675 0 l 264 0 l 111 153 l 111 972 l 217 972 l 217 188 l 311 94 l 628 94 l 722 188 l 722 972 l 828 972 l 828 815 l 872 815 l 936 878 l 936 986 l 1033 986 m 304 1276 l 422 1276 l 526 1058 l 429 1058 l 304 1276 z "},"Ử":{"ha":1019,"x_min":111,"x_max":1033,"o":"m 1033 986 l 1033 843 l 919 729 l 828 729 l 828 153 l 675 0 l 264 0 l 111 153 l 111 972 l 217 972 l 217 188 l 311 94 l 628 94 l 722 188 l 722 972 l 828 972 l 828 815 l 872 815 l 936 878 l 936 986 l 1033 986 m 425 1111 l 528 1213 l 528 1251 l 506 1274 l 429 1274 l 404 1249 l 404 1214 l 325 1214 l 325 1275 l 396 1346 l 543 1346 l 614 1275 l 614 1197 l 515 1099 l 515 1058 l 425 1058 l 425 1111 z "},"Ữ":{"ha":1019,"x_min":111,"x_max":1033,"o":"m 1033 986 l 1033 843 l 919 729 l 828 729 l 828 153 l 675 0 l 264 0 l 111 153 l 111 972 l 217 972 l 217 188 l 311 94 l 628 94 l 722 188 l 722 972 l 828 972 l 828 815 l 872 815 l 936 878 l 936 986 l 1033 986 m 411 1144 l 386 1144 l 360 1118 l 360 1081 l 279 1081 l 279 1143 l 353 1217 l 439 1217 l 528 1144 l 554 1144 l 579 1169 l 579 1208 l 660 1208 l 660 1146 l 586 1072 l 500 1072 l 411 1144 z "},"Ű":{"ha":939,"x_min":111,"x_max":828,"o":"m 111 153 l 111 972 l 217 972 l 217 188 l 311 94 l 628 94 l 722 188 l 722 972 l 828 972 l 828 153 l 675 0 l 264 0 l 111 153 m 419 1276 l 535 1276 l 410 1058 l 315 1058 l 419 1276 m 629 1276 l 743 1276 l 619 1058 l 524 1058 l 629 1276 z "},"Ū":{"ha":939,"x_min":111,"x_max":828,"o":"m 111 153 l 111 972 l 217 972 l 217 188 l 311 94 l 628 94 l 722 188 l 722 972 l 828 972 l 828 153 l 675 0 l 264 0 l 111 153 m 275 1169 l 664 1169 l 664 1086 l 275 1086 l 275 1169 z "},"Ų":{"ha":939,"x_min":111,"x_max":828,"o":"m 111 153 l 111 972 l 217 972 l 217 188 l 311 94 l 628 94 l 722 188 l 722 972 l 828 972 l 828 153 l 675 0 l 264 0 l 111 153 m 375 -185 l 375 -90 l 454 0 l 546 0 l 464 -103 l 464 -157 l 500 -193 l 597 -193 l 597 -265 l 456 -265 l 375 -185 z "},"Ů":{"ha":939,"x_min":111,"x_max":828,"o":"m 111 153 l 111 972 l 217 972 l 217 188 l 311 94 l 628 94 l 722 188 l 722 972 l 828 972 l 828 153 l 675 0 l 264 0 l 111 153 m 329 1124 l 329 1240 l 408 1319 l 531 1319 l 610 1240 l 610 1124 l 531 1044 l 408 1044 l 329 1124 m 501 1114 l 538 1150 l 538 1214 l 501 1250 l 438 1250 l 401 1214 l 401 1150 l 438 1114 l 501 1114 z "},"Ũ":{"ha":939,"x_min":111,"x_max":828,"o":"m 111 153 l 111 972 l 217 972 l 217 188 l 311 94 l 628 94 l 722 188 l 722 972 l 828 972 l 828 153 l 675 0 l 264 0 l 111 153 m 411 1144 l 386 1144 l 360 1118 l 360 1081 l 279 1081 l 279 1143 l 353 1217 l 439 1217 l 528 1144 l 554 1144 l 579 1169 l 579 1208 l 660 1208 l 660 1146 l 586 1072 l 500 1072 l 411 1144 z "},"V":{"ha":869,"x_min":35,"x_max":835,"o":"m 35 972 l 144 972 l 433 126 l 436 126 l 725 972 l 835 972 l 492 0 l 378 0 l 35 972 z "},"W":{"ha":1199,"x_min":56,"x_max":1143,"o":"m 56 972 l 163 972 l 318 150 l 321 150 l 554 972 l 657 972 l 882 150 l 885 150 l 1036 972 l 1143 972 l 947 0 l 833 0 l 607 822 l 604 822 l 365 0 l 251 0 l 56 972 z "},"Ẃ":{"ha":1199,"x_min":56,"x_max":1143,"o":"m 56 972 l 163 972 l 318 150 l 321 150 l 554 972 l 657 972 l 882 150 l 885 150 l 1036 972 l 1143 972 l 947 0 l 833 0 l 607 822 l 604 822 l 365 0 l 251 0 l 56 972 m 660 1276 l 778 1276 l 653 1058 l 556 1058 l 660 1276 z "},"Ŵ":{"ha":1199,"x_min":56,"x_max":1143,"o":"m 56 972 l 163 972 l 318 150 l 321 150 l 554 972 l 657 972 l 882 150 l 885 150 l 1036 972 l 1143 972 l 947 0 l 833 0 l 607 822 l 604 822 l 365 0 l 251 0 l 56 972 m 549 1253 l 651 1253 l 794 1058 l 694 1058 l 604 1183 l 596 1183 l 506 1058 l 406 1058 l 549 1253 z "},"Ẅ":{"ha":1199,"x_min":56,"x_max":1143,"o":"m 56 972 l 163 972 l 318 150 l 321 150 l 554 972 l 657 972 l 882 150 l 885 150 l 1036 972 l 1143 972 l 947 0 l 833 0 l 607 822 l 604 822 l 365 0 l 251 0 l 56 972 m 394 1110 l 394 1171 l 432 1208 l 494 1208 l 531 1171 l 531 1110 l 494 1072 l 432 1072 l 394 1110 m 669 1110 l 669 1171 l 706 1208 l 768 1208 l 806 1171 l 806 1110 l 768 1072 l 706 1072 l 669 1110 z "},"Ẁ":{"ha":1199,"x_min":56,"x_max":1143,"o":"m 56 972 l 163 972 l 318 150 l 321 150 l 554 972 l 657 972 l 882 150 l 885 150 l 1036 972 l 1143 972 l 947 0 l 833 0 l 607 822 l 604 822 l 365 0 l 251 0 l 56 972 m 418 1276 l 536 1276 l 640 1058 l 543 1058 l 418 1276 z "},"X":{"ha":839,"x_min":28,"x_max":811,"o":"m 361 500 l 42 972 l 160 972 l 421 582 l 679 972 l 797 972 l 479 494 l 811 0 l 693 0 l 419 413 l 146 0 l 28 0 l 361 500 z "},"Y":{"ha":822,"x_min":21,"x_max":801,"o":"m 358 406 l 21 972 l 135 972 l 410 501 l 413 501 l 688 972 l 801 972 l 464 406 l 464 0 l 358 0 l 358 406 z "},"Ý":{"ha":822,"x_min":21,"x_max":801,"o":"m 358 406 l 21 972 l 135 972 l 410 501 l 413 501 l 688 972 l 801 972 l 464 406 l 464 0 l 358 0 l 358 406 m 471 1276 l 589 1276 l 464 1058 l 367 1058 l 471 1276 z "},"Ŷ":{"ha":822,"x_min":21,"x_max":801,"o":"m 358 406 l 21 972 l 135 972 l 410 501 l 413 501 l 688 972 l 801 972 l 464 406 l 464 0 l 358 0 l 358 406 m 360 1253 l 463 1253 l 606 1058 l 506 1058 l 415 1183 l 407 1183 l 317 1058 l 217 1058 l 360 1253 z "},"Ÿ":{"ha":822,"x_min":21,"x_max":801,"o":"m 358 406 l 21 972 l 135 972 l 410 501 l 413 501 l 688 972 l 801 972 l 464 406 l 464 0 l 358 0 l 358 406 m 206 1110 l 206 1171 l 243 1208 l 306 1208 l 342 1171 l 342 1110 l 306 1072 l 243 1072 l 206 1110 m 481 1110 l 481 1171 l 517 1208 l 579 1208 l 617 1171 l 617 1110 l 579 1072 l 517 1072 l 481 1110 z "},"Ẏ":{"ha":822,"x_min":21,"x_max":801,"o":"m 358 406 l 21 972 l 135 972 l 410 501 l 413 501 l 688 972 l 801 972 l 464 406 l 464 0 l 358 0 l 358 406 m 343 1110 l 343 1171 l 381 1208 l 442 1208 l 479 1171 l 479 1110 l 442 1072 l 381 1072 l 343 1110 z "},"Ỵ":{"ha":822,"x_min":21,"x_max":801,"o":"m 358 406 l 21 972 l 135 972 l 410 501 l 413 501 l 688 972 l 801 972 l 464 406 l 464 0 l 358 0 l 358 406 z "},"Ỳ":{"ha":822,"x_min":21,"x_max":801,"o":"m 358 406 l 21 972 l 135 972 l 410 501 l 413 501 l 688 972 l 801 972 l 464 406 l 464 0 l 358 0 l 358 406 m 229 1276 l 347 1276 l 451 1058 l 354 1058 l 229 1276 z "},"Ỷ":{"ha":822,"x_min":21,"x_max":801,"o":"m 358 406 l 21 972 l 135 972 l 410 501 l 413 501 l 688 972 l 801 972 l 464 406 l 464 0 l 358 0 l 358 406 m 367 1111 l 469 1213 l 469 1251 l 447 1274 l 371 1274 l 346 1249 l 346 1214 l 267 1214 l 267 1275 l 338 1346 l 485 1346 l 556 1275 l 556 1197 l 457 1099 l 457 1058 l 367 1058 l 367 1111 z "},"Ỹ":{"ha":822,"x_min":21,"x_max":801,"o":"m 358 406 l 21 972 l 135 972 l 410 501 l 413 501 l 688 972 l 801 972 l 464 406 l 464 0 l 358 0 l 358 406 m 353 1144 l 328 1144 l 301 1118 l 301 1081 l 221 1081 l 221 1143 l 294 1217 l 381 1217 l 469 1144 l 496 1144 l 521 1169 l 521 1208 l 601 1208 l 601 1146 l 528 1072 l 442 1072 l 353 1144 z "},"Z":{"ha":789,"x_min":69,"x_max":719,"o":"m 69 104 l 607 879 l 607 882 l 83 882 l 83 972 l 719 972 l 719 868 l 182 93 l 182 90 l 719 90 l 719 0 l 69 0 l 69 104 z "},"Ź":{"ha":789,"x_min":69,"x_max":719,"o":"m 69 104 l 607 879 l 607 882 l 83 882 l 83 972 l 719 972 l 719 868 l 182 93 l 182 90 l 719 90 l 719 0 l 69 0 l 69 104 m 461 1276 l 579 1276 l 454 1058 l 357 1058 l 461 1276 z "},"Ž":{"ha":789,"x_min":69,"x_max":719,"o":"m 69 104 l 607 879 l 607 882 l 83 882 l 83 972 l 719 972 l 719 868 l 182 93 l 182 90 l 719 90 l 719 0 l 69 0 l 69 104 m 207 1253 l 307 1253 l 397 1128 l 406 1128 l 496 1253 l 596 1253 l 453 1058 l 350 1058 l 207 1253 z "},"Ż":{"ha":789,"x_min":69,"x_max":719,"o":"m 69 104 l 607 879 l 607 882 l 83 882 l 83 972 l 719 972 l 719 868 l 182 93 l 182 90 l 719 90 l 719 0 l 69 0 l 69 104 m 333 1110 l 333 1171 l 371 1208 l 432 1208 l 469 1171 l 469 1110 l 432 1072 l 371 1072 l 333 1110 z "},"Ẓ":{"ha":789,"x_min":69,"x_max":719,"o":"m 69 104 l 607 879 l 607 882 l 83 882 l 83 972 l 719 972 l 719 868 l 182 93 l 182 90 l 719 90 l 719 0 l 69 0 l 69 104 z "},"a":{"ha":765,"x_min":83,"x_max":668,"o":"m 83 114 l 83 290 l 197 403 l 567 403 l 567 535 l 497 603 l 261 603 l 192 535 l 192 478 l 89 478 l 89 564 l 217 692 l 540 692 l 668 564 l 668 0 l 569 0 l 569 122 l 442 0 l 197 0 l 83 114 m 421 89 l 567 229 l 567 314 l 242 314 l 186 260 l 186 143 l 242 89 l 421 89 z "},"á":{"ha":765,"x_min":83,"x_max":668,"o":"m 83 114 l 83 290 l 197 403 l 567 403 l 567 535 l 497 603 l 261 603 l 192 535 l 192 478 l 89 478 l 89 564 l 217 692 l 540 692 l 668 564 l 668 0 l 569 0 l 569 122 l 442 0 l 197 0 l 83 114 m 421 89 l 567 229 l 567 314 l 242 314 l 186 260 l 186 143 l 242 89 l 421 89 m 443 996 l 561 996 l 436 778 l 339 778 l 443 996 z "},"ă":{"ha":765,"x_min":83,"x_max":668,"o":"m 83 114 l 83 290 l 197 403 l 567 403 l 567 535 l 497 603 l 261 603 l 192 535 l 192 478 l 89 478 l 89 564 l 217 692 l 540 692 l 668 564 l 668 0 l 569 0 l 569 122 l 442 0 l 197 0 l 83 114 m 421 89 l 567 229 l 567 314 l 242 314 l 186 260 l 186 143 l 242 89 l 421 89 m 192 878 l 192 961 l 278 961 l 278 904 l 328 853 l 439 853 l 489 904 l 489 961 l 575 961 l 575 878 l 475 778 l 292 778 l 192 878 z "},"ắ":{"ha":765,"x_min":83,"x_max":668,"o":"m 83 114 l 83 290 l 197 403 l 567 403 l 567 535 l 497 603 l 261 603 l 192 535 l 192 478 l 89 478 l 89 564 l 217 692 l 540 692 l 668 564 l 668 0 l 569 0 l 569 122 l 442 0 l 197 0 l 83 114 m 421 89 l 567 229 l 567 314 l 242 314 l 186 260 l 186 143 l 242 89 l 421 89 m 432 1185 l 539 1185 l 424 986 l 338 986 l 432 1185 m 192 878 l 192 961 l 278 961 l 278 904 l 328 853 l 439 853 l 489 904 l 489 961 l 575 961 l 575 878 l 475 778 l 292 778 l 192 878 z "},"ặ":{"ha":765,"x_min":83,"x_max":668,"o":"m 83 114 l 83 290 l 197 403 l 567 403 l 567 535 l 497 603 l 261 603 l 192 535 l 192 478 l 89 478 l 89 564 l 217 692 l 540 692 l 668 564 l 668 0 l 569 0 l 569 122 l 442 0 l 197 0 l 83 114 m 421 89 l 567 229 l 567 314 l 242 314 l 186 260 l 186 143 l 242 89 l 421 89 m 192 878 l 192 961 l 278 961 l 278 904 l 328 853 l 439 853 l 489 904 l 489 961 l 575 961 l 575 878 l 475 778 l 292 778 l 192 878 z "},"ằ":{"ha":765,"x_min":83,"x_max":668,"o":"m 83 114 l 83 290 l 197 403 l 567 403 l 567 535 l 497 603 l 261 603 l 192 535 l 192 478 l 89 478 l 89 564 l 217 692 l 540 692 l 668 564 l 668 0 l 569 0 l 569 122 l 442 0 l 197 0 l 83 114 m 421 89 l 567 229 l 567 314 l 242 314 l 186 260 l 186 143 l 242 89 l 421 89 m 233 1185 l 340 1185 l 435 986 l 349 986 l 233 1185 m 192 878 l 192 961 l 278 961 l 278 904 l 328 853 l 439 853 l 489 904 l 489 961 l 575 961 l 575 878 l 475 778 l 292 778 l 192 878 z "},"ẳ":{"ha":765,"x_min":83,"x_max":668,"o":"m 83 114 l 83 290 l 197 403 l 567 403 l 567 535 l 497 603 l 261 603 l 192 535 l 192 478 l 89 478 l 89 564 l 217 692 l 540 692 l 668 564 l 668 0 l 569 0 l 569 122 l 442 0 l 197 0 l 83 114 m 421 89 l 567 229 l 567 314 l 242 314 l 186 260 l 186 143 l 242 89 l 421 89 m 339 1031 l 443 1119 l 443 1153 l 421 1174 l 346 1174 l 321 1150 l 321 1114 l 243 1114 l 243 1175 l 314 1246 l 453 1246 l 524 1175 l 524 1097 l 426 1018 l 426 978 l 339 978 l 339 1031 m 192 878 l 192 961 l 278 961 l 278 904 l 328 853 l 439 853 l 489 904 l 489 961 l 575 961 l 575 878 l 475 778 l 292 778 l 192 878 z "},"ẵ":{"ha":765,"x_min":83,"x_max":668,"o":"m 83 114 l 83 290 l 197 403 l 567 403 l 567 535 l 497 603 l 261 603 l 192 535 l 192 478 l 89 478 l 89 564 l 217 692 l 540 692 l 668 564 l 668 0 l 569 0 l 569 122 l 442 0 l 197 0 l 83 114 m 421 89 l 567 229 l 567 314 l 242 314 l 186 260 l 186 143 l 242 89 l 421 89 m 329 1086 l 301 1086 l 275 1060 l 275 1025 l 197 1025 l 197 1082 l 271 1156 l 354 1156 l 438 1086 l 467 1086 l 492 1111 l 492 1147 l 569 1147 l 569 1090 l 496 1017 l 413 1017 l 329 1086 m 192 878 l 192 961 l 278 961 l 278 904 l 328 853 l 439 853 l 489 904 l 489 961 l 575 961 l 575 878 l 475 778 l 292 778 l 192 878 z "},"ǎ":{"ha":765,"x_min":83,"x_max":668,"o":"m 83 114 l 83 290 l 197 403 l 567 403 l 567 535 l 497 603 l 261 603 l 192 535 l 192 478 l 89 478 l 89 564 l 217 692 l 540 692 l 668 564 l 668 0 l 569 0 l 569 122 l 442 0 l 197 0 l 83 114 m 421 89 l 567 229 l 567 314 l 242 314 l 186 260 l 186 143 l 242 89 l 421 89 m 189 972 l 289 972 l 379 847 l 388 847 l 478 972 l 578 972 l 435 778 l 332 778 l 189 972 z "},"â":{"ha":765,"x_min":83,"x_max":668,"o":"m 83 114 l 83 290 l 197 403 l 567 403 l 567 535 l 497 603 l 261 603 l 192 535 l 192 478 l 89 478 l 89 564 l 217 692 l 540 692 l 668 564 l 668 0 l 569 0 l 569 122 l 442 0 l 197 0 l 83 114 m 421 89 l 567 229 l 567 314 l 242 314 l 186 260 l 186 143 l 242 89 l 421 89 m 332 972 l 435 972 l 578 778 l 478 778 l 388 903 l 379 903 l 289 778 l 189 778 l 332 972 z "},"ấ":{"ha":765,"x_min":83,"x_max":717,"o":"m 83 114 l 83 290 l 197 403 l 567 403 l 567 535 l 497 603 l 261 603 l 192 535 l 192 478 l 89 478 l 89 564 l 217 692 l 540 692 l 668 564 l 668 0 l 569 0 l 569 122 l 442 0 l 197 0 l 83 114 m 421 89 l 567 229 l 567 314 l 242 314 l 186 260 l 186 143 l 242 89 l 421 89 m 610 1185 l 717 1185 l 601 986 l 515 986 l 610 1185 m 332 972 l 435 972 l 578 778 l 478 778 l 388 903 l 379 903 l 289 778 l 189 778 l 332 972 z "},"ậ":{"ha":765,"x_min":83,"x_max":668,"o":"m 83 114 l 83 290 l 197 403 l 567 403 l 567 535 l 497 603 l 261 603 l 192 535 l 192 478 l 89 478 l 89 564 l 217 692 l 540 692 l 668 564 l 668 0 l 569 0 l 569 122 l 442 0 l 197 0 l 83 114 m 421 89 l 567 229 l 567 314 l 242 314 l 186 260 l 186 143 l 242 89 l 421 89 m 332 972 l 435 972 l 578 778 l 478 778 l 388 903 l 379 903 l 289 778 l 189 778 l 332 972 z "},"ầ":{"ha":765,"x_min":83,"x_max":668,"o":"m 83 114 l 83 290 l 197 403 l 567 403 l 567 535 l 497 603 l 261 603 l 192 535 l 192 478 l 89 478 l 89 564 l 217 692 l 540 692 l 668 564 l 668 0 l 569 0 l 569 122 l 442 0 l 197 0 l 83 114 m 421 89 l 567 229 l 567 314 l 242 314 l 186 260 l 186 143 l 242 89 l 421 89 m 438 1185 l 544 1185 l 639 986 l 553 986 l 438 1185 m 332 972 l 435 972 l 578 778 l 478 778 l 388 903 l 379 903 l 289 778 l 189 778 l 332 972 z "},"ẩ":{"ha":765,"x_min":83,"x_max":704,"o":"m 83 114 l 83 290 l 197 403 l 567 403 l 567 535 l 497 603 l 261 603 l 192 535 l 192 478 l 89 478 l 89 564 l 217 692 l 540 692 l 668 564 l 668 0 l 569 0 l 569 122 l 442 0 l 197 0 l 83 114 m 421 89 l 567 229 l 567 314 l 242 314 l 186 260 l 186 143 l 242 89 l 421 89 m 525 989 l 624 1078 l 624 1111 l 601 1132 l 532 1132 l 507 1108 l 507 1072 l 429 1072 l 429 1133 l 500 1204 l 633 1204 l 704 1133 l 704 1056 l 613 976 l 613 936 l 525 936 l 525 989 m 332 972 l 435 972 l 578 778 l 478 778 l 388 903 l 379 903 l 289 778 l 189 778 l 332 972 z "},"ẫ":{"ha":765,"x_min":83,"x_max":668,"o":"m 83 114 l 83 290 l 197 403 l 567 403 l 567 535 l 497 603 l 261 603 l 192 535 l 192 478 l 89 478 l 89 564 l 217 692 l 540 692 l 668 564 l 668 0 l 569 0 l 569 122 l 442 0 l 197 0 l 83 114 m 421 89 l 567 229 l 567 314 l 242 314 l 186 260 l 186 143 l 242 89 l 421 89 m 329 1086 l 301 1086 l 275 1060 l 275 1025 l 197 1025 l 197 1082 l 271 1156 l 354 1156 l 438 1086 l 467 1086 l 492 1111 l 492 1147 l 569 1147 l 569 1090 l 496 1017 l 413 1017 l 329 1086 m 332 972 l 435 972 l 578 778 l 478 778 l 388 903 l 379 903 l 289 778 l 189 778 l 332 972 z "},"ä":{"ha":765,"x_min":83,"x_max":668,"o":"m 83 114 l 83 290 l 197 403 l 567 403 l 567 535 l 497 603 l 261 603 l 192 535 l 192 478 l 89 478 l 89 564 l 217 692 l 540 692 l 668 564 l 668 0 l 569 0 l 569 122 l 442 0 l 197 0 l 83 114 m 421 89 l 567 229 l 567 314 l 242 314 l 186 260 l 186 143 l 242 89 l 421 89 m 178 829 l 178 890 l 215 928 l 278 928 l 314 890 l 314 829 l 278 792 l 215 792 l 178 829 m 453 829 l 453 890 l 489 928 l 551 928 l 589 890 l 589 829 l 551 792 l 489 792 l 453 829 z "},"ạ":{"ha":765,"x_min":83,"x_max":668,"o":"m 83 114 l 83 290 l 197 403 l 567 403 l 567 535 l 497 603 l 261 603 l 192 535 l 192 478 l 89 478 l 89 564 l 217 692 l 540 692 l 668 564 l 668 0 l 569 0 l 569 122 l 442 0 l 197 0 l 83 114 m 421 89 l 567 229 l 567 314 l 242 314 l 186 260 l 186 143 l 242 89 l 421 89 z "},"à":{"ha":765,"x_min":83,"x_max":668,"o":"m 83 114 l 83 290 l 197 403 l 567 403 l 567 535 l 497 603 l 261 603 l 192 535 l 192 478 l 89 478 l 89 564 l 217 692 l 540 692 l 668 564 l 668 0 l 569 0 l 569 122 l 442 0 l 197 0 l 83 114 m 421 89 l 567 229 l 567 314 l 242 314 l 186 260 l 186 143 l 242 89 l 421 89 m 222 996 l 340 996 l 444 778 l 347 778 l 222 996 z "},"ả":{"ha":765,"x_min":83,"x_max":668,"o":"m 83 114 l 83 290 l 197 403 l 567 403 l 567 535 l 497 603 l 261 603 l 192 535 l 192 478 l 89 478 l 89 564 l 217 692 l 540 692 l 668 564 l 668 0 l 569 0 l 569 122 l 442 0 l 197 0 l 83 114 m 421 89 l 567 229 l 567 314 l 242 314 l 186 260 l 186 143 l 242 89 l 421 89 m 339 831 l 442 932 l 442 971 l 419 993 l 343 993 l 318 968 l 318 933 l 239 933 l 239 994 l 310 1065 l 457 1065 l 528 994 l 528 917 l 429 818 l 429 778 l 339 778 l 339 831 z "},"ɑ":{"ha":826,"x_min":90,"x_max":799,"o":"m 90 128 l 90 564 l 218 692 l 494 692 l 601 600 l 601 692 l 701 692 l 701 86 l 799 86 l 799 0 l 661 0 l 601 68 l 601 126 l 475 0 l 218 0 l 90 128 m 453 92 l 599 238 l 599 492 l 472 600 l 263 600 l 193 532 l 193 160 l 263 92 l 453 92 z "},"ā":{"ha":765,"x_min":83,"x_max":668,"o":"m 83 114 l 83 290 l 197 403 l 567 403 l 567 535 l 497 603 l 261 603 l 192 535 l 192 478 l 89 478 l 89 564 l 217 692 l 540 692 l 668 564 l 668 0 l 569 0 l 569 122 l 442 0 l 197 0 l 83 114 m 421 89 l 567 229 l 567 314 l 242 314 l 186 260 l 186 143 l 242 89 l 421 89 m 189 889 l 578 889 l 578 806 l 189 806 l 189 889 z "},"ą":{"ha":765,"x_min":83,"x_max":719,"o":"m 83 114 l 83 290 l 197 403 l 567 403 l 567 535 l 497 603 l 261 603 l 192 535 l 192 478 l 89 478 l 89 564 l 217 692 l 540 692 l 668 564 l 668 0 l 569 0 l 569 122 l 442 0 l 197 0 l 83 114 m 421 89 l 567 229 l 567 314 l 242 314 l 186 260 l 186 143 l 242 89 l 421 89 m 497 -185 l 497 -90 l 576 0 l 668 0 l 586 -103 l 586 -157 l 622 -193 l 719 -193 l 719 -265 l 578 -265 l 497 -185 z "},"å":{"ha":765,"x_min":83,"x_max":668,"o":"m 83 114 l 83 290 l 197 403 l 567 403 l 567 535 l 497 603 l 261 603 l 192 535 l 192 478 l 89 478 l 89 564 l 217 692 l 540 692 l 668 564 l 668 0 l 569 0 l 569 122 l 442 0 l 197 0 l 83 114 m 421 89 l 567 229 l 567 314 l 242 314 l 186 260 l 186 143 l 242 89 l 421 89 m 243 843 l 243 960 l 322 1039 l 444 1039 l 524 960 l 524 843 l 444 764 l 322 764 l 243 843 m 415 833 l 451 869 l 451 933 l 415 969 l 351 969 l 315 933 l 315 869 l 351 833 l 415 833 z "},"ǻ":{"ha":765,"x_min":83,"x_max":668,"o":"m 83 114 l 83 290 l 197 403 l 567 403 l 567 535 l 497 603 l 261 603 l 192 535 l 192 478 l 89 478 l 89 564 l 217 692 l 540 692 l 668 564 l 668 0 l 569 0 l 569 122 l 442 0 l 197 0 l 83 114 m 421 89 l 567 229 l 567 314 l 242 314 l 186 260 l 186 143 l 242 89 l 421 89 m 243 843 l 243 960 l 322 1039 l 444 1039 l 524 960 l 524 843 l 444 764 l 322 764 l 243 843 m 415 833 l 451 869 l 451 933 l 415 969 l 351 969 l 315 933 l 315 869 l 351 833 l 415 833 m 443 1322 l 561 1322 l 436 1104 l 339 1104 l 443 1322 z "},"ã":{"ha":765,"x_min":83,"x_max":668,"o":"m 83 114 l 83 290 l 197 403 l 567 403 l 567 535 l 497 603 l 261 603 l 192 535 l 192 478 l 89 478 l 89 564 l 217 692 l 540 692 l 668 564 l 668 0 l 569 0 l 569 122 l 442 0 l 197 0 l 83 114 m 421 89 l 567 229 l 567 314 l 242 314 l 186 260 l 186 143 l 242 89 l 421 89 m 325 864 l 300 864 l 274 838 l 274 800 l 193 800 l 193 863 l 267 936 l 353 936 l 442 864 l 468 864 l 493 889 l 493 928 l 574 928 l 574 865 l 500 792 l 414 792 l 325 864 z "},"æ":{"ha":1231,"x_min":83,"x_max":1147,"o":"m 669 160 l 739 92 l 975 92 l 1044 160 l 1044 214 l 1147 214 l 1147 128 l 1019 0 l 694 0 l 582 113 l 469 0 l 197 0 l 83 114 l 83 290 l 197 403 l 567 403 l 567 535 l 497 603 l 261 603 l 192 535 l 192 478 l 89 478 l 89 564 l 217 692 l 542 692 l 618 615 l 694 692 l 1019 692 l 1147 564 l 1147 315 l 669 315 l 669 160 m 669 532 l 669 404 l 1044 404 l 1044 532 l 975 600 l 739 600 l 669 532 m 567 221 l 567 314 l 242 314 l 186 260 l 186 143 l 242 89 l 435 89 l 567 221 z "},"ǽ":{"ha":1231,"x_min":83,"x_max":1147,"o":"m 669 160 l 739 92 l 975 92 l 1044 160 l 1044 214 l 1147 214 l 1147 128 l 1019 0 l 694 0 l 582 113 l 469 0 l 197 0 l 83 114 l 83 290 l 197 403 l 567 403 l 567 535 l 497 603 l 261 603 l 192 535 l 192 478 l 89 478 l 89 564 l 217 692 l 542 692 l 618 615 l 694 692 l 1019 692 l 1147 564 l 1147 315 l 669 315 l 669 160 m 669 532 l 669 404 l 1044 404 l 1044 532 l 975 600 l 739 600 l 669 532 m 567 221 l 567 314 l 242 314 l 186 260 l 186 143 l 242 89 l 435 89 l 567 221 m 681 996 l 799 996 l 674 778 l 576 778 l 681 996 z "},"b":{"ha":803,"x_min":104,"x_max":713,"o":"m 104 128 l 104 992 l 207 992 l 207 557 l 342 692 l 585 692 l 713 564 l 713 128 l 585 0 l 232 0 l 104 128 m 540 92 l 610 160 l 610 532 l 540 600 l 371 600 l 207 436 l 207 160 l 276 92 l 540 92 z "},"c":{"ha":742,"x_min":90,"x_max":679,"o":"m 90 128 l 90 564 l 218 692 l 551 692 l 679 564 l 679 479 l 576 479 l 576 532 l 507 600 l 263 600 l 193 532 l 193 160 l 263 92 l 507 92 l 576 160 l 576 213 l 679 213 l 679 128 l 551 0 l 218 0 l 90 128 z "},"ć":{"ha":742,"x_min":90,"x_max":679,"o":"m 90 128 l 90 564 l 218 692 l 551 692 l 679 564 l 679 479 l 576 479 l 576 532 l 507 600 l 263 600 l 193 532 l 193 160 l 263 92 l 507 92 l 576 160 l 576 213 l 679 213 l 679 128 l 551 0 l 218 0 l 90 128 m 444 996 l 563 996 l 438 778 l 340 778 l 444 996 z "},"č":{"ha":742,"x_min":90,"x_max":679,"o":"m 90 128 l 90 564 l 218 692 l 551 692 l 679 564 l 679 479 l 576 479 l 576 532 l 507 600 l 263 600 l 193 532 l 193 160 l 263 92 l 507 92 l 576 160 l 576 213 l 679 213 l 679 128 l 551 0 l 218 0 l 90 128 m 190 972 l 290 972 l 381 847 l 389 847 l 479 972 l 579 972 l 436 778 l 333 778 l 190 972 z "},"ç":{"ha":742,"x_min":90,"x_max":679,"o":"m 576 479 l 576 532 l 507 600 l 263 600 l 193 532 l 193 160 l 263 92 l 507 92 l 576 160 l 576 213 l 679 213 l 679 128 l 551 0 l 431 0 l 401 -75 l 489 -75 l 558 -144 l 558 -249 l 486 -321 l 283 -321 l 283 -250 l 449 -250 l 476 -222 l 476 -174 l 449 -146 l 307 -146 l 307 -92 l 342 0 l 218 0 l 90 128 l 90 564 l 218 692 l 551 692 l 679 564 l 679 479 l 576 479 z "},"ĉ":{"ha":742,"x_min":90,"x_max":679,"o":"m 90 128 l 90 564 l 218 692 l 551 692 l 679 564 l 679 479 l 576 479 l 576 532 l 507 600 l 263 600 l 193 532 l 193 160 l 263 92 l 507 92 l 576 160 l 576 213 l 679 213 l 679 128 l 551 0 l 218 0 l 90 128 m 333 972 l 436 972 l 579 778 l 479 778 l 389 903 l 381 903 l 290 778 l 190 778 l 333 972 z "},"ċ":{"ha":742,"x_min":90,"x_max":679,"o":"m 90 128 l 90 564 l 218 692 l 551 692 l 679 564 l 679 479 l 576 479 l 576 532 l 507 600 l 263 600 l 193 532 l 193 160 l 263 92 l 507 92 l 576 160 l 576 213 l 679 213 l 679 128 l 551 0 l 218 0 l 90 128 m 317 829 l 317 890 l 354 928 l 415 928 l 453 890 l 453 829 l 415 792 l 354 792 l 317 829 z "},"d":{"ha":806,"x_min":90,"x_max":701,"o":"m 90 128 l 90 564 l 218 692 l 485 692 l 599 592 l 599 992 l 701 992 l 701 0 l 601 0 l 601 126 l 475 0 l 218 0 l 90 128 m 453 92 l 599 238 l 599 483 l 465 600 l 263 600 l 193 532 l 193 160 l 263 92 l 453 92 z "},"ð":{"ha":806,"x_min":90,"x_max":743,"o":"m 631 796 l 726 638 l 726 128 l 599 0 l 218 0 l 90 128 l 90 481 l 218 608 l 511 608 l 624 508 l 624 625 l 547 747 l 429 679 l 388 751 l 504 819 l 463 886 l 294 886 l 294 972 l 522 972 l 586 867 l 701 933 l 743 861 l 631 796 m 624 397 l 489 517 l 263 517 l 193 449 l 193 160 l 263 92 l 554 92 l 624 160 l 624 397 z "},"ď":{"ha":1017,"x_min":90,"x_max":967,"o":"m 90 128 l 90 564 l 218 692 l 485 692 l 599 592 l 599 992 l 701 992 l 701 0 l 601 0 l 601 126 l 475 0 l 218 0 l 90 128 m 453 92 l 599 238 l 599 483 l 465 600 l 263 600 l 193 532 l 193 160 l 263 92 l 453 92 z "},"đ":{"ha":826,"x_min":90,"x_max":813,"o":"m 813 794 l 701 794 l 701 0 l 601 0 l 601 126 l 475 0 l 218 0 l 90 128 l 90 564 l 218 692 l 485 692 l 599 592 l 599 794 l 410 794 l 410 878 l 599 878 l 599 992 l 701 992 l 701 878 l 813 878 l 813 794 m 599 483 l 465 600 l 263 600 l 193 532 l 193 160 l 263 92 l 453 92 l 599 238 l 599 483 z "},"ḍ":{"ha":806,"x_min":90,"x_max":701,"o":"m 90 128 l 90 564 l 218 692 l 485 692 l 599 592 l 599 992 l 701 992 l 701 0 l 601 0 l 601 126 l 475 0 l 218 0 l 90 128 m 453 92 l 599 238 l 599 483 l 465 600 l 263 600 l 193 532 l 193 160 l 263 92 l 453 92 z "},"ḏ":{"ha":806,"x_min":90,"x_max":701,"o":"m 90 128 l 90 564 l 218 692 l 485 692 l 599 592 l 599 992 l 701 992 l 701 0 l 601 0 l 601 126 l 475 0 l 218 0 l 90 128 m 453 92 l 599 238 l 599 483 l 465 600 l 263 600 l 193 532 l 193 160 l 263 92 l 453 92 z "},"e":{"ha":779,"x_min":90,"x_max":696,"o":"m 90 128 l 90 564 l 218 692 l 567 692 l 696 564 l 696 315 l 193 315 l 193 160 l 263 92 l 522 92 l 592 160 l 592 213 l 694 213 l 694 128 l 567 0 l 218 0 l 90 128 m 593 404 l 593 532 l 524 600 l 263 600 l 193 532 l 193 404 l 593 404 z "},"é":{"ha":779,"x_min":90,"x_max":696,"o":"m 90 128 l 90 564 l 218 692 l 567 692 l 696 564 l 696 315 l 193 315 l 193 160 l 263 92 l 522 92 l 592 160 l 592 213 l 694 213 l 694 128 l 567 0 l 218 0 l 90 128 m 593 404 l 593 532 l 524 600 l 263 600 l 193 532 l 193 404 l 593 404 m 453 996 l 571 996 l 446 778 l 349 778 l 453 996 z "},"ĕ":{"ha":779,"x_min":90,"x_max":696,"o":"m 90 128 l 90 564 l 218 692 l 567 692 l 696 564 l 696 315 l 193 315 l 193 160 l 263 92 l 522 92 l 592 160 l 592 213 l 694 213 l 694 128 l 567 0 l 218 0 l 90 128 m 593 404 l 593 532 l 524 600 l 263 600 l 193 532 l 193 404 l 593 404 m 201 878 l 201 961 l 288 961 l 288 904 l 338 853 l 449 853 l 499 904 l 499 961 l 585 961 l 585 878 l 485 778 l 301 778 l 201 878 z "},"ě":{"ha":779,"x_min":90,"x_max":696,"o":"m 90 128 l 90 564 l 218 692 l 567 692 l 696 564 l 696 315 l 193 315 l 193 160 l 263 92 l 522 92 l 592 160 l 592 213 l 694 213 l 694 128 l 567 0 l 218 0 l 90 128 m 593 404 l 593 532 l 524 600 l 263 600 l 193 532 l 193 404 l 593 404 m 199 972 l 299 972 l 389 847 l 397 847 l 488 972 l 588 972 l 444 778 l 342 778 l 199 972 z "},"ê":{"ha":779,"x_min":90,"x_max":696,"o":"m 90 128 l 90 564 l 218 692 l 567 692 l 696 564 l 696 315 l 193 315 l 193 160 l 263 92 l 522 92 l 592 160 l 592 213 l 694 213 l 694 128 l 567 0 l 218 0 l 90 128 m 593 404 l 593 532 l 524 600 l 263 600 l 193 532 l 193 404 l 593 404 m 342 972 l 444 972 l 588 778 l 488 778 l 397 903 l 389 903 l 299 778 l 199 778 l 342 972 z "},"ế":{"ha":779,"x_min":90,"x_max":726,"o":"m 90 128 l 90 564 l 218 692 l 567 692 l 696 564 l 696 315 l 193 315 l 193 160 l 263 92 l 522 92 l 592 160 l 592 213 l 694 213 l 694 128 l 567 0 l 218 0 l 90 128 m 593 404 l 593 532 l 524 600 l 263 600 l 193 532 l 193 404 l 593 404 m 619 1185 l 726 1185 l 611 986 l 525 986 l 619 1185 m 342 972 l 444 972 l 588 778 l 488 778 l 397 903 l 389 903 l 299 778 l 199 778 l 342 972 z "},"ệ":{"ha":779,"x_min":90,"x_max":696,"o":"m 90 128 l 90 564 l 218 692 l 567 692 l 696 564 l 696 315 l 193 315 l 193 160 l 263 92 l 522 92 l 592 160 l 592 213 l 694 213 l 694 128 l 567 0 l 218 0 l 90 128 m 593 404 l 593 532 l 524 600 l 263 600 l 193 532 l 193 404 l 593 404 m 342 972 l 444 972 l 588 778 l 488 778 l 397 903 l 389 903 l 299 778 l 199 778 l 342 972 z "},"ề":{"ha":779,"x_min":90,"x_max":696,"o":"m 90 128 l 90 564 l 218 692 l 567 692 l 696 564 l 696 315 l 193 315 l 193 160 l 263 92 l 522 92 l 592 160 l 592 213 l 694 213 l 694 128 l 567 0 l 218 0 l 90 128 m 593 404 l 593 532 l 524 600 l 263 600 l 193 532 l 193 404 l 593 404 m 447 1185 l 554 1185 l 649 986 l 563 986 l 447 1185 m 342 972 l 444 972 l 588 778 l 488 778 l 397 903 l 389 903 l 299 778 l 199 778 l 342 972 z "},"ể":{"ha":779,"x_min":90,"x_max":714,"o":"m 90 128 l 90 564 l 218 692 l 567 692 l 696 564 l 696 315 l 193 315 l 193 160 l 263 92 l 522 92 l 592 160 l 592 213 l 694 213 l 694 128 l 567 0 l 218 0 l 90 128 m 593 404 l 593 532 l 524 600 l 263 600 l 193 532 l 193 404 l 593 404 m 535 989 l 633 1078 l 633 1111 l 611 1132 l 542 1132 l 517 1108 l 517 1072 l 439 1072 l 439 1133 l 510 1204 l 643 1204 l 714 1133 l 714 1056 l 622 976 l 622 936 l 535 936 l 535 989 m 342 972 l 444 972 l 588 778 l 488 778 l 397 903 l 389 903 l 299 778 l 199 778 l 342 972 z "},"ễ":{"ha":779,"x_min":90,"x_max":696,"o":"m 90 128 l 90 564 l 218 692 l 567 692 l 696 564 l 696 315 l 193 315 l 193 160 l 263 92 l 522 92 l 592 160 l 592 213 l 694 213 l 694 128 l 567 0 l 218 0 l 90 128 m 593 404 l 593 532 l 524 600 l 263 600 l 193 532 l 193 404 l 593 404 m 339 1086 l 311 1086 l 285 1060 l 285 1025 l 207 1025 l 207 1082 l 281 1156 l 364 1156 l 447 1086 l 476 1086 l 501 1111 l 501 1147 l 579 1147 l 579 1090 l 506 1017 l 422 1017 l 339 1086 m 342 972 l 444 972 l 588 778 l 488 778 l 397 903 l 389 903 l 299 778 l 199 778 l 342 972 z "},"ë":{"ha":779,"x_min":90,"x_max":696,"o":"m 90 128 l 90 564 l 218 692 l 567 692 l 696 564 l 696 315 l 193 315 l 193 160 l 263 92 l 522 92 l 592 160 l 592 213 l 694 213 l 694 128 l 567 0 l 218 0 l 90 128 m 593 404 l 593 532 l 524 600 l 263 600 l 193 532 l 193 404 l 593 404 m 188 829 l 188 890 l 225 928 l 288 928 l 324 890 l 324 829 l 288 792 l 225 792 l 188 829 m 463 829 l 463 890 l 499 928 l 561 928 l 599 890 l 599 829 l 561 792 l 499 792 l 463 829 z "},"ė":{"ha":779,"x_min":90,"x_max":696,"o":"m 90 128 l 90 564 l 218 692 l 567 692 l 696 564 l 696 315 l 193 315 l 193 160 l 263 92 l 522 92 l 592 160 l 592 213 l 694 213 l 694 128 l 567 0 l 218 0 l 90 128 m 593 404 l 593 532 l 524 600 l 263 600 l 193 532 l 193 404 l 593 404 m 325 829 l 325 890 l 363 928 l 424 928 l 461 890 l 461 829 l 424 792 l 363 792 l 325 829 z "},"ẹ":{"ha":779,"x_min":90,"x_max":696,"o":"m 90 128 l 90 564 l 218 692 l 567 692 l 696 564 l 696 315 l 193 315 l 193 160 l 263 92 l 522 92 l 592 160 l 592 213 l 694 213 l 694 128 l 567 0 l 218 0 l 90 128 m 593 404 l 593 532 l 524 600 l 263 600 l 193 532 l 193 404 l 593 404 z "},"è":{"ha":779,"x_min":90,"x_max":696,"o":"m 90 128 l 90 564 l 218 692 l 567 692 l 696 564 l 696 315 l 193 315 l 193 160 l 263 92 l 522 92 l 592 160 l 592 213 l 694 213 l 694 128 l 567 0 l 218 0 l 90 128 m 593 404 l 593 532 l 524 600 l 263 600 l 193 532 l 193 404 l 593 404 m 211 996 l 329 996 l 433 778 l 336 778 l 211 996 z "},"ẻ":{"ha":779,"x_min":90,"x_max":696,"o":"m 90 128 l 90 564 l 218 692 l 567 692 l 696 564 l 696 315 l 193 315 l 193 160 l 263 92 l 522 92 l 592 160 l 592 213 l 694 213 l 694 128 l 567 0 l 218 0 l 90 128 m 593 404 l 593 532 l 524 600 l 263 600 l 193 532 l 193 404 l 593 404 m 349 831 l 451 932 l 451 971 l 429 993 l 353 993 l 328 968 l 328 933 l 249 933 l 249 994 l 319 1065 l 467 1065 l 538 994 l 538 917 l 439 818 l 439 778 l 349 778 l 349 831 z "},"ē":{"ha":779,"x_min":90,"x_max":696,"o":"m 90 128 l 90 564 l 218 692 l 567 692 l 696 564 l 696 315 l 193 315 l 193 160 l 263 92 l 522 92 l 592 160 l 592 213 l 694 213 l 694 128 l 567 0 l 218 0 l 90 128 m 593 404 l 593 532 l 524 600 l 263 600 l 193 532 l 193 404 l 593 404 m 199 889 l 588 889 l 588 806 l 199 806 l 199 889 z "},"ę":{"ha":779,"x_min":90,"x_max":696,"o":"m 90 128 l 90 564 l 218 692 l 567 692 l 696 564 l 696 315 l 193 315 l 193 160 l 263 92 l 522 92 l 592 160 l 592 213 l 694 213 l 694 128 l 567 0 l 218 0 l 90 128 m 593 404 l 593 532 l 524 600 l 263 600 l 193 532 l 193 404 l 593 404 m 396 -185 l 396 -90 l 475 0 l 567 0 l 485 -103 l 485 -157 l 521 -193 l 618 -193 l 618 -265 l 476 -265 l 396 -185 z "},"ẽ":{"ha":779,"x_min":90,"x_max":696,"o":"m 90 128 l 90 564 l 218 692 l 567 692 l 696 564 l 696 315 l 193 315 l 193 160 l 263 92 l 522 92 l 592 160 l 592 213 l 694 213 l 694 128 l 567 0 l 218 0 l 90 128 m 593 404 l 593 532 l 524 600 l 263 600 l 193 532 l 193 404 l 593 404 m 335 864 l 310 864 l 283 838 l 283 800 l 203 800 l 203 863 l 276 936 l 363 936 l 451 864 l 478 864 l 503 889 l 503 928 l 583 928 l 583 865 l 510 792 l 424 792 l 335 864 z "},"ə":{"ha":779,"x_min":83,"x_max":689,"o":"m 689 564 l 689 128 l 561 0 l 213 0 l 83 128 l 83 376 l 586 376 l 586 532 l 517 600 l 257 600 l 188 532 l 188 479 l 85 479 l 85 564 l 213 692 l 561 692 l 689 564 m 186 288 l 186 160 l 256 92 l 517 92 l 586 160 l 586 288 l 186 288 z "},"f":{"ha":522,"x_min":42,"x_max":488,"o":"m 167 601 l 42 601 l 42 692 l 167 692 l 167 846 l 288 967 l 488 967 l 488 878 l 332 878 l 269 817 l 269 692 l 488 692 l 488 601 l 269 601 l 269 0 l 167 0 l 167 601 z "},"g":{"ha":806,"x_min":90,"x_max":701,"o":"m 701 692 l 701 -176 l 575 -303 l 232 -303 l 125 -196 l 125 -111 l 228 -111 l 228 -162 l 276 -211 l 529 -211 l 599 -143 l 599 115 l 471 0 l 218 0 l 90 128 l 90 564 l 218 692 l 481 692 l 601 571 l 601 692 l 701 692 m 599 454 l 453 600 l 263 600 l 193 532 l 193 160 l 263 92 l 454 92 l 599 226 l 599 454 z "},"ğ":{"ha":806,"x_min":90,"x_max":701,"o":"m 701 692 l 701 -176 l 575 -303 l 232 -303 l 125 -196 l 125 -111 l 228 -111 l 228 -162 l 276 -211 l 529 -211 l 599 -143 l 599 115 l 471 0 l 218 0 l 90 128 l 90 564 l 218 692 l 481 692 l 601 571 l 601 692 l 701 692 m 599 454 l 453 600 l 263 600 l 193 532 l 193 160 l 263 92 l 454 92 l 599 226 l 599 454 m 208 878 l 208 961 l 294 961 l 294 904 l 344 853 l 456 853 l 506 904 l 506 961 l 592 961 l 592 878 l 492 778 l 308 778 l 208 878 z "},"ǧ":{"ha":806,"x_min":90,"x_max":701,"o":"m 701 692 l 701 -176 l 575 -303 l 232 -303 l 125 -196 l 125 -111 l 228 -111 l 228 -162 l 276 -211 l 529 -211 l 599 -143 l 599 115 l 471 0 l 218 0 l 90 128 l 90 564 l 218 692 l 481 692 l 601 571 l 601 692 l 701 692 m 599 454 l 453 600 l 263 600 l 193 532 l 193 160 l 263 92 l 454 92 l 599 226 l 599 454 m 206 972 l 306 972 l 396 847 l 404 847 l 494 972 l 594 972 l 451 778 l 349 778 l 206 972 z "},"ĝ":{"ha":806,"x_min":90,"x_max":701,"o":"m 701 692 l 701 -176 l 575 -303 l 232 -303 l 125 -196 l 125 -111 l 228 -111 l 228 -162 l 276 -211 l 529 -211 l 599 -143 l 599 115 l 471 0 l 218 0 l 90 128 l 90 564 l 218 692 l 481 692 l 601 571 l 601 692 l 701 692 m 599 454 l 453 600 l 263 600 l 193 532 l 193 160 l 263 92 l 454 92 l 599 226 l 599 454 m 349 972 l 451 972 l 594 778 l 494 778 l 404 903 l 396 903 l 306 778 l 206 778 l 349 972 z "},"ģ":{"ha":806,"x_min":90,"x_max":701,"o":"m 701 692 l 701 -176 l 575 -303 l 232 -303 l 125 -196 l 125 -111 l 228 -111 l 228 -162 l 276 -211 l 529 -211 l 599 -143 l 599 115 l 471 0 l 218 0 l 90 128 l 90 564 l 218 692 l 481 692 l 601 571 l 601 692 l 701 692 m 599 454 l 453 600 l 263 600 l 193 532 l 193 160 l 263 92 l 454 92 l 599 226 l 599 454 m 418 914 l 435 914 l 475 874 l 475 813 l 435 772 l 374 772 l 333 813 l 333 914 l 403 1086 l 460 1086 l 418 914 z "},"ġ":{"ha":806,"x_min":90,"x_max":701,"o":"m 701 692 l 701 -176 l 575 -303 l 232 -303 l 125 -196 l 125 -111 l 228 -111 l 228 -162 l 276 -211 l 529 -211 l 599 -143 l 599 115 l 471 0 l 218 0 l 90 128 l 90 564 l 218 692 l 481 692 l 601 571 l 601 692 l 701 692 m 599 454 l 453 600 l 263 600 l 193 532 l 193 160 l 263 92 l 454 92 l 599 226 l 599 454 m 332 829 l 332 890 l 369 928 l 431 928 l 468 890 l 468 829 l 431 792 l 369 792 l 332 829 z "},"ḡ":{"ha":806,"x_min":90,"x_max":701,"o":"m 701 692 l 701 -176 l 575 -303 l 232 -303 l 125 -196 l 125 -111 l 228 -111 l 228 -162 l 276 -211 l 529 -211 l 599 -143 l 599 115 l 471 0 l 218 0 l 90 128 l 90 564 l 218 692 l 481 692 l 601 571 l 601 692 l 701 692 m 599 454 l 453 600 l 263 600 l 193 532 l 193 160 l 263 92 l 454 92 l 599 226 l 599 454 m 206 889 l 594 889 l 594 806 l 206 806 l 206 889 z "},"h":{"ha":792,"x_min":104,"x_max":694,"o":"m 104 992 l 207 992 l 207 547 l 351 692 l 567 692 l 694 564 l 694 0 l 592 0 l 592 532 l 522 600 l 379 600 l 207 428 l 207 0 l 104 0 l 104 992 z "},"ħ":{"ha":826,"x_min":14,"x_max":729,"o":"m 729 564 l 729 0 l 626 0 l 626 532 l 557 600 l 414 600 l 242 428 l 242 0 l 139 0 l 139 794 l 14 794 l 14 878 l 139 878 l 139 992 l 242 992 l 242 878 l 436 878 l 436 794 l 242 794 l 242 547 l 386 692 l 601 692 l 729 564 z "},"ḫ":{"ha":792,"x_min":104,"x_max":694,"o":"m 104 992 l 207 992 l 207 547 l 351 692 l 567 692 l 694 564 l 694 0 l 592 0 l 592 532 l 522 600 l 379 600 l 207 428 l 207 0 l 104 0 l 104 992 z "},"ĥ":{"ha":792,"x_min":104,"x_max":694,"o":"m 104 992 l 207 992 l 207 547 l 351 692 l 567 692 l 694 564 l 694 0 l 592 0 l 592 532 l 522 600 l 379 600 l 207 428 l 207 0 l 104 0 l 104 992 m 350 1253 l 453 1253 l 596 1058 l 496 1058 l 406 1183 l 397 1183 l 307 1058 l 207 1058 l 350 1253 z "},"ḥ":{"ha":792,"x_min":104,"x_max":694,"o":"m 104 992 l 207 992 l 207 547 l 351 692 l 567 692 l 694 564 l 694 0 l 592 0 l 592 532 l 522 600 l 379 600 l 207 428 l 207 0 l 104 0 l 104 992 z "},"i":{"ha":339,"x_min":97,"x_max":242,"o":"m 97 850 l 97 911 l 139 953 l 200 953 l 242 911 l 242 850 l 200 808 l 139 808 l 97 850 m 118 692 l 221 692 l 221 0 l 118 0 l 118 692 z "},"ı":{"ha":339,"x_min":118,"x_max":221,"o":"m 118 692 l 221 692 l 221 0 l 118 0 l 118 692 z "},"í":{"ha":339,"x_min":118,"x_max":347,"o":"m 118 692 l 221 692 l 221 0 l 118 0 l 118 692 m 229 996 l 347 996 l 222 778 l 125 778 l 229 996 z "},"ĭ":{"ha":339,"x_min":-22,"x_max":361,"o":"m 118 692 l 221 692 l 221 0 l 118 0 l 118 692 m -22 878 l -22 961 l 64 961 l 64 904 l 114 853 l 225 853 l 275 904 l 275 961 l 361 961 l 361 878 l 261 778 l 78 778 l -22 878 z "},"ǐ":{"ha":339,"x_min":-25,"x_max":364,"o":"m 118 692 l 221 692 l 221 0 l 118 0 l 118 692 m -25 972 l 75 972 l 165 847 l 174 847 l 264 972 l 364 972 l 221 778 l 118 778 l -25 972 z "},"î":{"ha":339,"x_min":-25,"x_max":364,"o":"m 118 692 l 221 692 l 221 0 l 118 0 l 118 692 m 118 972 l 221 972 l 364 778 l 264 778 l 174 903 l 165 903 l 75 778 l -25 778 l 118 972 z "},"ï":{"ha":339,"x_min":-36,"x_max":375,"o":"m 118 692 l 221 692 l 221 0 l 118 0 l 118 692 m -36 829 l -36 890 l 1 928 l 64 928 l 100 890 l 100 829 l 64 792 l 1 792 l -36 829 m 239 829 l 239 890 l 275 928 l 338 928 l 375 890 l 375 829 l 338 792 l 275 792 l 239 829 z "},"ị":{"ha":339,"x_min":97,"x_max":242,"o":"m 97 850 l 97 911 l 139 953 l 200 953 l 242 911 l 242 850 l 200 808 l 139 808 l 97 850 m 118 692 l 221 692 l 221 0 l 118 0 l 118 692 z "},"ì":{"ha":339,"x_min":-12,"x_max":221,"o":"m 118 692 l 221 692 l 221 0 l 118 0 l 118 692 m -12 996 l 106 996 l 210 778 l 113 778 l -12 996 z "},"ỉ":{"ha":339,"x_min":25,"x_max":314,"o":"m 118 692 l 221 692 l 221 0 l 118 0 l 118 692 m 125 831 l 228 932 l 228 971 l 206 993 l 129 993 l 104 968 l 104 933 l 25 933 l 25 994 l 96 1065 l 243 1065 l 314 994 l 314 917 l 215 818 l 215 778 l 125 778 l 125 831 z "},"ĳ":{"ha":679,"x_min":97,"x_max":582,"o":"m 97 850 l 97 911 l 139 953 l 200 953 l 242 911 l 242 850 l 200 808 l 139 808 l 97 850 m 118 692 l 221 692 l 221 0 l 118 0 l 118 692 m 438 850 l 438 911 l 479 953 l 540 953 l 582 911 l 582 850 l 540 808 l 479 808 l 438 850 m 250 -211 l 389 -211 l 458 -143 l 458 692 l 561 692 l 561 -176 l 435 -303 l 250 -303 l 250 -211 z "},"ī":{"ha":339,"x_min":-25,"x_max":364,"o":"m 118 692 l 221 692 l 221 0 l 118 0 l 118 692 m -25 889 l 364 889 l 364 806 l -25 806 l -25 889 z "},"į":{"ha":339,"x_min":50,"x_max":272,"o":"m 97 850 l 97 911 l 139 953 l 200 953 l 242 911 l 242 850 l 200 808 l 139 808 l 97 850 m 118 692 l 221 692 l 221 0 l 118 0 l 118 692 m 50 -185 l 50 -90 l 129 0 l 221 0 l 139 -103 l 139 -157 l 175 -193 l 272 -193 l 272 -265 l 131 -265 l 50 -185 z "},"ĩ":{"ha":339,"x_min":-21,"x_max":360,"o":"m 118 692 l 221 692 l 221 0 l 118 0 l 118 692 m 111 864 l 86 864 l 60 838 l 60 800 l -21 800 l -21 863 l 53 936 l 139 936 l 228 864 l 254 864 l 279 889 l 279 928 l 360 928 l 360 865 l 286 792 l 200 792 l 111 864 z "},"j":{"ha":360,"x_min":-69,"x_max":263,"o":"m 118 850 l 118 911 l 160 953 l 221 953 l 263 911 l 263 850 l 221 808 l 160 808 l 118 850 m -69 -211 l 69 -211 l 139 -143 l 139 692 l 242 692 l 242 -176 l 115 -303 l -69 -303 l -69 -211 z "},"ȷ":{"ha":353,"x_min":-76,"x_max":235,"o":"m -76 -211 l 63 -211 l 132 -143 l 132 692 l 235 692 l 235 -176 l 108 -303 l -76 -303 l -76 -211 z "},"ĵ":{"ha":353,"x_min":-76,"x_max":378,"o":"m -76 -211 l 63 -211 l 132 -143 l 132 692 l 235 692 l 235 -176 l 108 -303 l -76 -303 l -76 -211 m 132 972 l 235 972 l 378 778 l 278 778 l 188 903 l 179 903 l 89 778 l -11 778 l 132 972 z "},"k":{"ha":728,"x_min":104,"x_max":700,"o":"m 104 992 l 207 992 l 207 406 l 369 406 l 572 692 l 686 692 l 453 358 l 700 0 l 586 0 l 369 314 l 207 314 l 207 0 l 104 0 l 104 992 z "},"ķ":{"ha":728,"x_min":104,"x_max":700,"o":"m 104 992 l 207 992 l 207 406 l 369 406 l 572 692 l 686 692 l 453 358 l 700 0 l 586 0 l 369 314 l 207 314 l 207 0 l 104 0 l 104 992 z "},"ĸ":{"ha":781,"x_min":104,"x_max":753,"o":"m 104 692 l 210 692 l 210 392 l 418 392 l 613 692 l 732 692 l 506 347 l 753 0 l 633 0 l 419 297 l 210 297 l 210 0 l 104 0 l 104 692 z "},"l":{"ha":325,"x_min":111,"x_max":214,"o":"m 111 992 l 214 992 l 214 0 l 111 0 l 111 992 z "},"ĺ":{"ha":325,"x_min":111,"x_max":340,"o":"m 111 992 l 214 992 l 214 0 l 111 0 l 111 992 m 222 1310 l 340 1310 l 215 1092 l 118 1092 l 222 1310 z "},"ľ":{"ha":531,"x_min":111,"x_max":481,"o":"m 111 992 l 214 992 l 214 0 l 111 0 l 111 992 z "},"ļ":{"ha":325,"x_min":89,"x_max":231,"o":"m 111 992 l 214 992 l 214 0 l 111 0 l 111 992 z "},"ŀ":{"ha":515,"x_min":111,"x_max":471,"o":"m 111 992 l 214 992 l 214 0 l 111 0 l 111 992 z "},"ḷ":{"ha":325,"x_min":94,"x_max":231,"o":"m 111 992 l 214 992 l 214 0 l 111 0 l 111 992 z "},"ḹ":{"ha":325,"x_min":-32,"x_max":357,"o":"m 111 992 l 214 992 l 214 0 l 111 0 l 111 992 m -32 1203 l 357 1203 l 357 1119 l -32 1119 l -32 1203 z "},"ḻ":{"ha":325,"x_min":-32,"x_max":357,"o":"m 111 992 l 214 992 l 214 0 l 111 0 l 111 992 z "},"ł":{"ha":422,"x_min":21,"x_max":401,"o":"m 401 581 l 263 479 l 263 0 l 160 0 l 160 404 l 21 303 l 21 400 l 160 501 l 160 992 l 263 992 l 263 576 l 401 678 l 401 581 z "},"m":{"ha":1163,"x_min":104,"x_max":1065,"o":"m 104 692 l 204 692 l 204 558 l 338 692 l 503 692 l 611 583 l 719 692 l 938 692 l 1065 564 l 1065 0 l 963 0 l 963 532 l 893 600 l 740 600 l 643 503 l 643 0 l 543 0 l 543 532 l 474 600 l 357 600 l 207 450 l 207 0 l 104 0 l 104 692 z "},"ṃ":{"ha":1163,"x_min":104,"x_max":1065,"o":"m 104 692 l 204 692 l 204 558 l 338 692 l 503 692 l 611 583 l 719 692 l 938 692 l 1065 564 l 1065 0 l 963 0 l 963 532 l 893 600 l 740 600 l 643 503 l 643 0 l 543 0 l 543 532 l 474 600 l 357 600 l 207 450 l 207 0 l 104 0 l 104 692 z "},"n":{"ha":789,"x_min":104,"x_max":692,"o":"m 104 692 l 204 692 l 204 544 l 351 692 l 564 692 l 692 564 l 692 0 l 589 0 l 589 532 l 519 600 l 379 600 l 207 428 l 207 0 l 104 0 l 104 692 z "},"ń":{"ha":789,"x_min":104,"x_max":692,"o":"m 104 692 l 204 692 l 204 544 l 351 692 l 564 692 l 692 564 l 692 0 l 589 0 l 589 532 l 519 600 l 379 600 l 207 428 l 207 0 l 104 0 l 104 692 m 461 996 l 579 996 l 454 778 l 357 778 l 461 996 z "},"ŉ":{"ha":969,"x_min":72,"x_max":872,"o":"m 285 692 l 385 692 l 385 544 l 532 692 l 744 692 l 872 564 l 872 0 l 769 0 l 769 532 l 700 600 l 560 600 l 388 428 l 388 0 l 285 0 l 285 692 z "},"ň":{"ha":789,"x_min":104,"x_max":692,"o":"m 104 692 l 204 692 l 204 544 l 351 692 l 564 692 l 692 564 l 692 0 l 589 0 l 589 532 l 519 600 l 379 600 l 207 428 l 207 0 l 104 0 l 104 692 m 207 972 l 307 972 l 397 847 l 406 847 l 496 972 l 596 972 l 453 778 l 350 778 l 207 972 z "},"ņ":{"ha":789,"x_min":104,"x_max":692,"o":"m 104 692 l 204 692 l 204 544 l 351 692 l 564 692 l 692 564 l 692 0 l 589 0 l 589 532 l 519 600 l 379 600 l 207 428 l 207 0 l 104 0 l 104 692 z "},"ṅ":{"ha":789,"x_min":104,"x_max":692,"o":"m 104 692 l 204 692 l 204 544 l 351 692 l 564 692 l 692 564 l 692 0 l 589 0 l 589 532 l 519 600 l 379 600 l 207 428 l 207 0 l 104 0 l 104 692 m 333 829 l 333 890 l 371 928 l 432 928 l 469 890 l 469 829 l 432 792 l 371 792 l 333 829 z "},"ṇ":{"ha":789,"x_min":104,"x_max":692,"o":"m 104 692 l 204 692 l 204 544 l 351 692 l 564 692 l 692 564 l 692 0 l 589 0 l 589 532 l 519 600 l 379 600 l 207 428 l 207 0 l 104 0 l 104 692 z "},"ŋ":{"ha":788,"x_min":104,"x_max":690,"o":"m 690 564 l 690 -176 l 564 -303 l 379 -303 l 379 -211 l 518 -211 l 588 -143 l 588 532 l 518 600 l 379 600 l 207 428 l 207 0 l 104 0 l 104 692 l 204 692 l 204 544 l 351 692 l 563 692 l 690 564 z "},"ṉ":{"ha":789,"x_min":104,"x_max":692,"o":"m 104 692 l 204 692 l 204 544 l 351 692 l 564 692 l 692 564 l 692 0 l 589 0 l 589 532 l 519 600 l 379 600 l 207 428 l 207 0 l 104 0 l 104 692 z "},"ñ":{"ha":789,"x_min":104,"x_max":692,"o":"m 104 692 l 204 692 l 204 544 l 351 692 l 564 692 l 692 564 l 692 0 l 589 0 l 589 532 l 519 600 l 379 600 l 207 428 l 207 0 l 104 0 l 104 692 m 343 864 l 318 864 l 292 838 l 292 800 l 211 800 l 211 863 l 285 936 l 371 936 l 460 864 l 486 864 l 511 889 l 511 928 l 592 928 l 592 865 l 518 792 l 432 792 l 343 864 z "},"o":{"ha":792,"x_min":90,"x_max":701,"o":"m 90 128 l 90 564 l 218 692 l 574 692 l 701 564 l 701 128 l 574 0 l 218 0 l 90 128 m 529 92 l 599 160 l 599 532 l 529 600 l 263 600 l 193 532 l 193 160 l 263 92 l 529 92 z "},"ó":{"ha":792,"x_min":90,"x_max":701,"o":"m 90 128 l 90 564 l 218 692 l 574 692 l 701 564 l 701 128 l 574 0 l 218 0 l 90 128 m 529 92 l 599 160 l 599 532 l 529 600 l 263 600 l 193 532 l 193 160 l 263 92 l 529 92 m 456 996 l 574 996 l 449 778 l 351 778 l 456 996 z "},"ŏ":{"ha":792,"x_min":90,"x_max":701,"o":"m 90 128 l 90 564 l 218 692 l 574 692 l 701 564 l 701 128 l 574 0 l 218 0 l 90 128 m 529 92 l 599 160 l 599 532 l 529 600 l 263 600 l 193 532 l 193 160 l 263 92 l 529 92 m 204 878 l 204 961 l 290 961 l 290 904 l 340 853 l 451 853 l 501 904 l 501 961 l 588 961 l 588 878 l 488 778 l 304 778 l 204 878 z "},"ǒ":{"ha":792,"x_min":90,"x_max":701,"o":"m 90 128 l 90 564 l 218 692 l 574 692 l 701 564 l 701 128 l 574 0 l 218 0 l 90 128 m 529 92 l 599 160 l 599 532 l 529 600 l 263 600 l 193 532 l 193 160 l 263 92 l 529 92 m 201 972 l 301 972 l 392 847 l 400 847 l 490 972 l 590 972 l 447 778 l 344 778 l 201 972 z "},"ô":{"ha":792,"x_min":90,"x_max":701,"o":"m 90 128 l 90 564 l 218 692 l 574 692 l 701 564 l 701 128 l 574 0 l 218 0 l 90 128 m 529 92 l 599 160 l 599 532 l 529 600 l 263 600 l 193 532 l 193 160 l 263 92 l 529 92 m 344 972 l 447 972 l 590 778 l 490 778 l 400 903 l 392 903 l 301 778 l 201 778 l 344 972 z "},"ố":{"ha":792,"x_min":90,"x_max":729,"o":"m 90 128 l 90 564 l 218 692 l 574 692 l 701 564 l 701 128 l 574 0 l 218 0 l 90 128 m 529 92 l 599 160 l 599 532 l 529 600 l 263 600 l 193 532 l 193 160 l 263 92 l 529 92 m 622 1185 l 729 1185 l 614 986 l 528 986 l 622 1185 m 344 972 l 447 972 l 590 778 l 490 778 l 400 903 l 392 903 l 301 778 l 201 778 l 344 972 z "},"ộ":{"ha":792,"x_min":90,"x_max":701,"o":"m 90 128 l 90 564 l 218 692 l 574 692 l 701 564 l 701 128 l 574 0 l 218 0 l 90 128 m 529 92 l 599 160 l 599 532 l 529 600 l 263 600 l 193 532 l 193 160 l 263 92 l 529 92 m 344 972 l 447 972 l 590 778 l 490 778 l 400 903 l 392 903 l 301 778 l 201 778 l 344 972 z "},"ồ":{"ha":792,"x_min":90,"x_max":701,"o":"m 90 128 l 90 564 l 218 692 l 574 692 l 701 564 l 701 128 l 574 0 l 218 0 l 90 128 m 529 92 l 599 160 l 599 532 l 529 600 l 263 600 l 193 532 l 193 160 l 263 92 l 529 92 m 450 1185 l 557 1185 l 651 986 l 565 986 l 450 1185 m 344 972 l 447 972 l 590 778 l 490 778 l 400 903 l 392 903 l 301 778 l 201 778 l 344 972 z "},"ổ":{"ha":792,"x_min":90,"x_max":717,"o":"m 90 128 l 90 564 l 218 692 l 574 692 l 701 564 l 701 128 l 574 0 l 218 0 l 90 128 m 529 92 l 599 160 l 599 532 l 529 600 l 263 600 l 193 532 l 193 160 l 263 92 l 529 92 m 538 989 l 636 1078 l 636 1111 l 614 1132 l 544 1132 l 519 1108 l 519 1072 l 442 1072 l 442 1133 l 513 1204 l 646 1204 l 717 1133 l 717 1056 l 625 976 l 625 936 l 538 936 l 538 989 m 344 972 l 447 972 l 590 778 l 490 778 l 400 903 l 392 903 l 301 778 l 201 778 l 344 972 z "},"ỗ":{"ha":792,"x_min":90,"x_max":701,"o":"m 90 128 l 90 564 l 218 692 l 574 692 l 701 564 l 701 128 l 574 0 l 218 0 l 90 128 m 529 92 l 599 160 l 599 532 l 529 600 l 263 600 l 193 532 l 193 160 l 263 92 l 529 92 m 342 1086 l 314 1086 l 288 1060 l 288 1025 l 210 1025 l 210 1082 l 283 1156 l 367 1156 l 450 1086 l 479 1086 l 504 1111 l 504 1147 l 582 1147 l 582 1090 l 508 1017 l 425 1017 l 342 1086 m 344 972 l 447 972 l 590 778 l 490 778 l 400 903 l 392 903 l 301 778 l 201 778 l 344 972 z "},"ö":{"ha":792,"x_min":90,"x_max":701,"o":"m 90 128 l 90 564 l 218 692 l 574 692 l 701 564 l 701 128 l 574 0 l 218 0 l 90 128 m 529 92 l 599 160 l 599 532 l 529 600 l 263 600 l 193 532 l 193 160 l 263 92 l 529 92 m 190 829 l 190 890 l 228 928 l 290 928 l 326 890 l 326 829 l 290 792 l 228 792 l 190 829 m 465 829 l 465 890 l 501 928 l 564 928 l 601 890 l 601 829 l 564 792 l 501 792 l 465 829 z "},"ọ":{"ha":792,"x_min":90,"x_max":701,"o":"m 90 128 l 90 564 l 218 692 l 574 692 l 701 564 l 701 128 l 574 0 l 218 0 l 90 128 m 529 92 l 599 160 l 599 532 l 529 600 l 263 600 l 193 532 l 193 160 l 263 92 l 529 92 z "},"ò":{"ha":792,"x_min":90,"x_max":701,"o":"m 90 128 l 90 564 l 218 692 l 574 692 l 701 564 l 701 128 l 574 0 l 218 0 l 90 128 m 529 92 l 599 160 l 599 532 l 529 600 l 263 600 l 193 532 l 193 160 l 263 92 l 529 92 m 214 996 l 332 996 l 436 778 l 339 778 l 214 996 z "},"ỏ":{"ha":792,"x_min":90,"x_max":701,"o":"m 90 128 l 90 564 l 218 692 l 574 692 l 701 564 l 701 128 l 574 0 l 218 0 l 90 128 m 529 92 l 599 160 l 599 532 l 529 600 l 263 600 l 193 532 l 193 160 l 263 92 l 529 92 m 351 831 l 454 932 l 454 971 l 432 993 l 356 993 l 331 968 l 331 933 l 251 933 l 251 994 l 322 1065 l 469 1065 l 540 994 l 540 917 l 442 818 l 442 778 l 351 778 l 351 831 z "},"ơ":{"ha":883,"x_min":90,"x_max":907,"o":"m 907 706 l 907 563 l 793 449 l 701 449 l 701 128 l 574 0 l 218 0 l 90 128 l 90 564 l 218 692 l 574 692 l 701 564 l 701 535 l 746 535 l 810 597 l 810 706 l 907 706 m 599 532 l 529 600 l 263 600 l 193 532 l 193 160 l 263 92 l 529 92 l 599 160 l 599 532 z "},"ớ":{"ha":883,"x_min":90,"x_max":907,"o":"m 907 706 l 907 563 l 793 449 l 701 449 l 701 128 l 574 0 l 218 0 l 90 128 l 90 564 l 218 692 l 574 692 l 701 564 l 701 535 l 746 535 l 810 597 l 810 706 l 907 706 m 599 532 l 529 600 l 263 600 l 193 532 l 193 160 l 263 92 l 529 92 l 599 160 l 599 532 m 456 996 l 574 996 l 449 778 l 351 778 l 456 996 z "},"ợ":{"ha":883,"x_min":90,"x_max":907,"o":"m 907 706 l 907 563 l 793 449 l 701 449 l 701 128 l 574 0 l 218 0 l 90 128 l 90 564 l 218 692 l 574 692 l 701 564 l 701 535 l 746 535 l 810 597 l 810 706 l 907 706 m 599 532 l 529 600 l 263 600 l 193 532 l 193 160 l 263 92 l 529 92 l 599 160 l 599 532 z "},"ờ":{"ha":883,"x_min":90,"x_max":907,"o":"m 907 706 l 907 563 l 793 449 l 701 449 l 701 128 l 574 0 l 218 0 l 90 128 l 90 564 l 218 692 l 574 692 l 701 564 l 701 535 l 746 535 l 810 597 l 810 706 l 907 706 m 599 532 l 529 600 l 263 600 l 193 532 l 193 160 l 263 92 l 529 92 l 599 160 l 599 532 m 214 996 l 332 996 l 436 778 l 339 778 l 214 996 z "},"ở":{"ha":883,"x_min":90,"x_max":907,"o":"m 907 706 l 907 563 l 793 449 l 701 449 l 701 128 l 574 0 l 218 0 l 90 128 l 90 564 l 218 692 l 574 692 l 701 564 l 701 535 l 746 535 l 810 597 l 810 706 l 907 706 m 599 532 l 529 600 l 263 600 l 193 532 l 193 160 l 263 92 l 529 92 l 599 160 l 599 532 m 351 831 l 454 932 l 454 971 l 432 993 l 356 993 l 331 968 l 331 933 l 251 933 l 251 994 l 322 1065 l 469 1065 l 540 994 l 540 917 l 442 818 l 442 778 l 351 778 l 351 831 z "},"ỡ":{"ha":883,"x_min":90,"x_max":907,"o":"m 907 706 l 907 563 l 793 449 l 701 449 l 701 128 l 574 0 l 218 0 l 90 128 l 90 564 l 218 692 l 574 692 l 701 564 l 701 535 l 746 535 l 810 597 l 810 706 l 907 706 m 599 532 l 529 600 l 263 600 l 193 532 l 193 160 l 263 92 l 529 92 l 599 160 l 599 532 m 338 864 l 313 864 l 286 838 l 286 800 l 206 800 l 206 863 l 279 936 l 365 936 l 454 864 l 481 864 l 506 889 l 506 928 l 586 928 l 586 865 l 513 792 l 426 792 l 338 864 z "},"ő":{"ha":792,"x_min":90,"x_max":701,"o":"m 90 128 l 90 564 l 218 692 l 574 692 l 701 564 l 701 128 l 574 0 l 218 0 l 90 128 m 529 92 l 599 160 l 599 532 l 529 600 l 263 600 l 193 532 l 193 160 l 263 92 l 529 92 m 346 996 l 461 996 l 336 778 l 242 778 l 346 996 m 556 996 l 669 996 l 546 778 l 450 778 l 556 996 z "},"ō":{"ha":792,"x_min":90,"x_max":701,"o":"m 90 128 l 90 564 l 218 692 l 574 692 l 701 564 l 701 128 l 574 0 l 218 0 l 90 128 m 529 92 l 599 160 l 599 532 l 529 600 l 263 600 l 193 532 l 193 160 l 263 92 l 529 92 m 201 889 l 590 889 l 590 806 l 201 806 l 201 889 z "},"ø":{"ha":792,"x_min":21,"x_max":761,"o":"m 654 611 l 701 564 l 701 128 l 574 0 l 218 0 l 193 25 l 129 -56 l 21 -56 l 132 86 l 90 128 l 90 564 l 218 692 l 574 692 l 593 672 l 653 747 l 761 747 l 654 611 m 193 164 l 533 596 l 529 600 l 263 600 l 193 532 l 193 164 m 594 536 l 253 101 l 263 92 l 529 92 l 599 160 l 599 532 l 594 536 z "},"ǿ":{"ha":792,"x_min":21,"x_max":761,"o":"m 654 611 l 701 564 l 701 128 l 574 0 l 218 0 l 193 25 l 129 -56 l 21 -56 l 132 86 l 90 128 l 90 564 l 218 692 l 574 692 l 593 672 l 653 747 l 761 747 l 654 611 m 193 164 l 533 596 l 529 600 l 263 600 l 193 532 l 193 164 m 594 536 l 253 101 l 263 92 l 529 92 l 599 160 l 599 532 l 594 536 m 456 996 l 574 996 l 449 778 l 351 778 l 456 996 z "},"õ":{"ha":792,"x_min":90,"x_max":701,"o":"m 90 128 l 90 564 l 218 692 l 574 692 l 701 564 l 701 128 l 574 0 l 218 0 l 90 128 m 529 92 l 599 160 l 599 532 l 529 600 l 263 600 l 193 532 l 193 160 l 263 92 l 529 92 m 338 864 l 313 864 l 286 838 l 286 800 l 206 800 l 206 863 l 279 936 l 365 936 l 454 864 l 481 864 l 506 889 l 506 928 l 586 928 l 586 865 l 513 792 l 426 792 l 338 864 z "},"œ":{"ha":1272,"x_min":90,"x_max":1189,"o":"m 701 315 l 701 160 l 771 92 l 1017 92 l 1086 160 l 1086 214 l 1189 214 l 1189 128 l 1061 0 l 726 0 l 650 76 l 574 0 l 218 0 l 90 128 l 90 564 l 218 692 l 574 692 l 650 615 l 726 692 l 1061 692 l 1189 564 l 1189 315 l 701 315 m 599 160 l 599 532 l 529 600 l 263 600 l 193 532 l 193 160 l 263 92 l 529 92 l 599 160 m 701 532 l 701 404 l 1086 404 l 1086 532 l 1017 600 l 771 600 l 701 532 z "},"p":{"ha":806,"x_min":104,"x_max":715,"o":"m 104 692 l 204 692 l 204 568 l 328 692 l 588 692 l 715 564 l 715 128 l 588 0 l 321 0 l 207 100 l 207 -294 l 104 -294 l 104 692 m 543 92 l 613 160 l 613 532 l 543 600 l 356 600 l 207 451 l 207 213 l 340 92 l 543 92 z "},"þ":{"ha":806,"x_min":104,"x_max":715,"o":"m 104 986 l 204 986 l 204 568 l 328 692 l 588 692 l 715 564 l 715 128 l 588 0 l 321 0 l 207 100 l 207 -294 l 104 -294 l 104 986 m 543 92 l 613 160 l 613 532 l 543 600 l 356 600 l 207 451 l 207 213 l 340 92 l 543 92 z "},"q":{"ha":796,"x_min":90,"x_max":699,"o":"m 596 135 l 461 0 l 218 0 l 90 128 l 90 564 l 218 692 l 571 692 l 699 564 l 699 -294 l 596 -294 l 596 135 m 436 92 l 596 256 l 596 532 l 526 600 l 263 600 l 193 532 l 193 160 l 263 92 l 436 92 z "},"r":{"ha":535,"x_min":104,"x_max":507,"o":"m 104 692 l 204 692 l 204 568 l 328 692 l 507 692 l 507 600 l 354 600 l 207 453 l 207 0 l 104 0 l 104 692 z "},"ŕ":{"ha":535,"x_min":104,"x_max":507,"o":"m 104 692 l 204 692 l 204 568 l 328 692 l 507 692 l 507 600 l 354 600 l 207 453 l 207 0 l 104 0 l 104 692 m 361 996 l 479 996 l 354 778 l 257 778 l 361 996 z "},"ř":{"ha":535,"x_min":104,"x_max":507,"o":"m 104 692 l 204 692 l 204 568 l 328 692 l 507 692 l 507 600 l 354 600 l 207 453 l 207 0 l 104 0 l 104 692 m 107 972 l 207 972 l 297 847 l 306 847 l 396 972 l 496 972 l 353 778 l 250 778 l 107 972 z "},"ŗ":{"ha":535,"x_min":88,"x_max":507,"o":"m 104 692 l 204 692 l 204 568 l 328 692 l 507 692 l 507 600 l 354 600 l 207 453 l 207 0 l 104 0 l 104 692 z "},"ṛ":{"ha":535,"x_min":88,"x_max":507,"o":"m 104 692 l 204 692 l 204 568 l 328 692 l 507 692 l 507 600 l 354 600 l 207 453 l 207 0 l 104 0 l 104 692 z "},"ṝ":{"ha":535,"x_min":88,"x_max":507,"o":"m 104 692 l 204 692 l 204 568 l 328 692 l 507 692 l 507 600 l 354 600 l 207 453 l 207 0 l 104 0 l 104 692 m 107 889 l 496 889 l 496 806 l 107 806 l 107 889 z "},"ṟ":{"ha":535,"x_min":-39,"x_max":507,"o":"m 104 692 l 204 692 l 204 568 l 328 692 l 507 692 l 507 600 l 354 600 l 207 453 l 207 0 l 104 0 l 104 692 z "},"s":{"ha":711,"x_min":69,"x_max":642,"o":"m 69 114 l 69 200 l 172 200 l 172 143 l 228 89 l 483 89 l 539 143 l 539 250 l 483 306 l 185 306 l 75 415 l 75 578 l 189 692 l 514 692 l 628 578 l 628 492 l 525 492 l 525 549 l 469 603 l 233 603 l 178 549 l 178 447 l 233 392 l 528 392 l 642 278 l 642 114 l 528 0 l 183 0 l 69 114 z "},"ś":{"ha":711,"x_min":69,"x_max":642,"o":"m 69 114 l 69 200 l 172 200 l 172 143 l 228 89 l 483 89 l 539 143 l 539 250 l 483 306 l 185 306 l 75 415 l 75 578 l 189 692 l 514 692 l 628 578 l 628 492 l 525 492 l 525 549 l 469 603 l 233 603 l 178 549 l 178 447 l 233 392 l 528 392 l 642 278 l 642 114 l 528 0 l 183 0 l 69 114 m 408 996 l 526 996 l 401 778 l 304 778 l 408 996 z "},"š":{"ha":711,"x_min":69,"x_max":642,"o":"m 69 114 l 69 200 l 172 200 l 172 143 l 228 89 l 483 89 l 539 143 l 539 250 l 483 306 l 185 306 l 75 415 l 75 578 l 189 692 l 514 692 l 628 578 l 628 492 l 525 492 l 525 549 l 469 603 l 233 603 l 178 549 l 178 447 l 233 392 l 528 392 l 642 278 l 642 114 l 528 0 l 183 0 l 69 114 m 154 972 l 254 972 l 344 847 l 353 847 l 443 972 l 543 972 l 400 778 l 297 778 l 154 972 z "},"ş":{"ha":711,"x_min":69,"x_max":642,"o":"m 404 0 l 375 -75 l 463 -75 l 532 -144 l 532 -249 l 460 -321 l 257 -321 l 257 -250 l 422 -250 l 450 -222 l 450 -174 l 422 -146 l 281 -146 l 281 -92 l 315 0 l 183 0 l 69 114 l 69 200 l 172 200 l 172 143 l 228 89 l 483 89 l 539 143 l 539 250 l 483 306 l 185 306 l 75 415 l 75 578 l 189 692 l 514 692 l 628 578 l 628 492 l 525 492 l 525 549 l 469 603 l 233 603 l 178 549 l 178 447 l 233 392 l 528 392 l 642 278 l 642 114 l 528 0 l 404 0 z "},"ŝ":{"ha":711,"x_min":69,"x_max":642,"o":"m 69 114 l 69 200 l 172 200 l 172 143 l 228 89 l 483 89 l 539 143 l 539 250 l 483 306 l 185 306 l 75 415 l 75 578 l 189 692 l 514 692 l 628 578 l 628 492 l 525 492 l 525 549 l 469 603 l 233 603 l 178 549 l 178 447 l 233 392 l 528 392 l 642 278 l 642 114 l 528 0 l 183 0 l 69 114 m 297 972 l 400 972 l 543 778 l 443 778 l 353 903 l 344 903 l 254 778 l 154 778 l 297 972 z "},"ș":{"ha":711,"x_min":69,"x_max":642,"o":"m 69 114 l 69 200 l 172 200 l 172 143 l 228 89 l 483 89 l 539 143 l 539 250 l 483 306 l 185 306 l 75 415 l 75 578 l 189 692 l 514 692 l 628 578 l 628 492 l 525 492 l 525 549 l 469 603 l 233 603 l 178 549 l 178 447 l 233 392 l 528 392 l 642 278 l 642 114 l 528 0 l 183 0 l 69 114 z "},"ṡ":{"ha":711,"x_min":69,"x_max":642,"o":"m 69 114 l 69 200 l 172 200 l 172 143 l 228 89 l 483 89 l 539 143 l 539 250 l 483 306 l 185 306 l 75 415 l 75 578 l 189 692 l 514 692 l 628 578 l 628 492 l 525 492 l 525 549 l 469 603 l 233 603 l 178 549 l 178 447 l 233 392 l 528 392 l 642 278 l 642 114 l 528 0 l 183 0 l 69 114 m 281 829 l 281 890 l 318 928 l 379 928 l 417 890 l 417 829 l 379 792 l 318 792 l 281 829 z "},"ṣ":{"ha":711,"x_min":69,"x_max":642,"o":"m 69 114 l 69 200 l 172 200 l 172 143 l 228 89 l 483 89 l 539 143 l 539 250 l 483 306 l 185 306 l 75 415 l 75 578 l 189 692 l 514 692 l 628 578 l 628 492 l 525 492 l 525 549 l 469 603 l 233 603 l 178 549 l 178 447 l 233 392 l 528 392 l 642 278 l 642 114 l 528 0 l 183 0 l 69 114 z "},"ß":{"ha":868,"x_min":111,"x_max":819,"o":"m 111 846 l 232 967 l 567 967 l 688 846 l 688 694 l 575 542 l 575 493 l 603 465 l 706 465 l 819 351 l 819 114 l 706 0 l 481 0 l 367 114 l 367 200 l 469 200 l 469 143 l 525 89 l 661 89 l 717 143 l 717 324 l 661 379 l 554 379 l 472 461 l 472 556 l 585 708 l 585 817 l 522 878 l 276 878 l 214 817 l 214 0 l 111 0 l 111 846 z "},"t":{"ha":542,"x_min":42,"x_max":486,"o":"m 167 128 l 167 601 l 42 601 l 42 692 l 169 692 l 169 917 l 269 917 l 269 692 l 486 692 l 486 601 l 269 601 l 269 160 l 339 90 l 486 90 l 486 0 l 294 0 l 167 128 z "},"ŧ":{"ha":542,"x_min":42,"x_max":486,"o":"m 269 601 l 269 378 l 486 378 l 486 294 l 269 294 l 269 160 l 339 90 l 486 90 l 486 0 l 294 0 l 167 128 l 167 294 l 42 294 l 42 378 l 167 378 l 167 601 l 42 601 l 42 692 l 169 692 l 169 917 l 269 917 l 269 692 l 486 692 l 486 601 l 269 601 z "},"ť":{"ha":742,"x_min":42,"x_max":718,"o":"m 167 128 l 167 601 l 42 601 l 42 692 l 169 692 l 169 917 l 269 917 l 269 692 l 486 692 l 486 601 l 269 601 l 269 160 l 339 90 l 486 90 l 486 0 l 294 0 l 167 128 z "},"ţ":{"ha":542,"x_min":42,"x_max":486,"o":"m 269 601 l 269 160 l 339 90 l 486 90 l 486 0 l 347 0 l 318 -75 l 406 -75 l 475 -144 l 475 -249 l 403 -321 l 200 -321 l 200 -250 l 365 -250 l 393 -222 l 393 -174 l 365 -146 l 224 -146 l 224 -92 l 269 25 l 167 128 l 167 601 l 42 601 l 42 692 l 169 692 l 169 917 l 269 917 l 269 692 l 486 692 l 486 601 l 269 601 z "},"ț":{"ha":542,"x_min":42,"x_max":486,"o":"m 167 128 l 167 601 l 42 601 l 42 692 l 169 692 l 169 917 l 269 917 l 269 692 l 486 692 l 486 601 l 269 601 l 269 160 l 339 90 l 486 90 l 486 0 l 294 0 l 167 128 z "},"ẗ":{"ha":542,"x_min":18,"x_max":486,"o":"m 167 128 l 167 601 l 42 601 l 42 692 l 169 692 l 169 917 l 269 917 l 269 692 l 486 692 l 486 601 l 269 601 l 269 160 l 339 90 l 486 90 l 486 0 l 294 0 l 167 128 m 18 1054 l 18 1115 l 56 1153 l 118 1153 l 154 1115 l 154 1054 l 118 1017 l 56 1017 l 18 1054 m 293 1054 l 293 1115 l 329 1153 l 392 1153 l 429 1115 l 429 1054 l 392 1017 l 329 1017 l 293 1054 z "},"ṭ":{"ha":542,"x_min":42,"x_max":486,"o":"m 167 128 l 167 601 l 42 601 l 42 692 l 169 692 l 169 917 l 269 917 l 269 692 l 486 692 l 486 601 l 269 601 l 269 160 l 339 90 l 486 90 l 486 0 l 294 0 l 167 128 z "},"ṯ":{"ha":542,"x_min":42,"x_max":503,"o":"m 167 128 l 167 601 l 42 601 l 42 692 l 169 692 l 169 917 l 269 917 l 269 692 l 486 692 l 486 601 l 269 601 l 269 160 l 339 90 l 486 90 l 486 0 l 294 0 l 167 128 z "},"u":{"ha":788,"x_min":97,"x_max":683,"o":"m 97 128 l 97 692 l 200 692 l 200 160 l 269 92 l 408 92 l 581 264 l 581 692 l 683 692 l 683 0 l 583 0 l 583 147 l 436 0 l 225 0 l 97 128 z "},"ú":{"ha":788,"x_min":97,"x_max":683,"o":"m 97 128 l 97 692 l 200 692 l 200 160 l 269 92 l 408 92 l 581 264 l 581 692 l 683 692 l 683 0 l 583 0 l 583 147 l 436 0 l 225 0 l 97 128 m 453 996 l 571 996 l 446 778 l 349 778 l 453 996 z "},"ŭ":{"ha":788,"x_min":97,"x_max":683,"o":"m 97 128 l 97 692 l 200 692 l 200 160 l 269 92 l 408 92 l 581 264 l 581 692 l 683 692 l 683 0 l 583 0 l 583 147 l 436 0 l 225 0 l 97 128 m 201 878 l 201 961 l 288 961 l 288 904 l 338 853 l 449 853 l 499 904 l 499 961 l 585 961 l 585 878 l 485 778 l 301 778 l 201 878 z "},"ǔ":{"ha":788,"x_min":97,"x_max":683,"o":"m 97 128 l 97 692 l 200 692 l 200 160 l 269 92 l 408 92 l 581 264 l 581 692 l 683 692 l 683 0 l 583 0 l 583 147 l 436 0 l 225 0 l 97 128 m 199 972 l 299 972 l 389 847 l 397 847 l 488 972 l 588 972 l 444 778 l 342 778 l 199 972 z "},"û":{"ha":788,"x_min":97,"x_max":683,"o":"m 97 128 l 97 692 l 200 692 l 200 160 l 269 92 l 408 92 l 581 264 l 581 692 l 683 692 l 683 0 l 583 0 l 583 147 l 436 0 l 225 0 l 97 128 m 342 972 l 444 972 l 588 778 l 488 778 l 397 903 l 389 903 l 299 778 l 199 778 l 342 972 z "},"ü":{"ha":788,"x_min":97,"x_max":683,"o":"m 97 128 l 97 692 l 200 692 l 200 160 l 269 92 l 408 92 l 581 264 l 581 692 l 683 692 l 683 0 l 583 0 l 583 147 l 436 0 l 225 0 l 97 128 m 188 829 l 188 890 l 225 928 l 288 928 l 324 890 l 324 829 l 288 792 l 225 792 l 188 829 m 463 829 l 463 890 l 499 928 l 561 928 l 599 890 l 599 829 l 561 792 l 499 792 l 463 829 z "},"ǘ":{"ha":788,"x_min":97,"x_max":683,"o":"m 97 128 l 97 692 l 200 692 l 200 160 l 269 92 l 408 92 l 581 264 l 581 692 l 683 692 l 683 0 l 583 0 l 583 147 l 436 0 l 225 0 l 97 128 m 440 1185 l 547 1185 l 432 986 l 346 986 l 440 1185 m 188 829 l 188 890 l 225 928 l 288 928 l 324 890 l 324 829 l 288 792 l 225 792 l 188 829 m 463 829 l 463 890 l 499 928 l 561 928 l 599 890 l 599 829 l 561 792 l 499 792 l 463 829 z "},"ǚ":{"ha":788,"x_min":97,"x_max":683,"o":"m 97 128 l 97 692 l 200 692 l 200 160 l 269 92 l 408 92 l 581 264 l 581 692 l 683 692 l 683 0 l 583 0 l 583 147 l 436 0 l 225 0 l 97 128 m 204 1167 l 301 1167 l 389 1050 l 397 1050 l 485 1167 l 582 1167 l 442 986 l 344 986 l 204 1167 m 188 829 l 188 890 l 225 928 l 288 928 l 324 890 l 324 829 l 288 792 l 225 792 l 188 829 m 463 829 l 463 890 l 499 928 l 561 928 l 599 890 l 599 829 l 561 792 l 499 792 l 463 829 z "},"ǜ":{"ha":788,"x_min":97,"x_max":683,"o":"m 97 128 l 97 692 l 200 692 l 200 160 l 269 92 l 408 92 l 581 264 l 581 692 l 683 692 l 683 0 l 583 0 l 583 147 l 436 0 l 225 0 l 97 128 m 239 1185 l 346 1185 l 440 986 l 354 986 l 239 1185 m 188 829 l 188 890 l 225 928 l 288 928 l 324 890 l 324 829 l 288 792 l 225 792 l 188 829 m 463 829 l 463 890 l 499 928 l 561 928 l 599 890 l 599 829 l 561 792 l 499 792 l 463 829 z "},"ǖ":{"ha":788,"x_min":97,"x_max":683,"o":"m 97 128 l 97 692 l 200 692 l 200 160 l 269 92 l 408 92 l 581 264 l 581 692 l 683 692 l 683 0 l 583 0 l 583 147 l 436 0 l 225 0 l 97 128 m 199 1106 l 588 1106 l 588 1025 l 199 1025 l 199 1106 m 188 829 l 188 890 l 225 928 l 288 928 l 324 890 l 324 829 l 288 792 l 225 792 l 188 829 m 463 829 l 463 890 l 499 928 l 561 928 l 599 890 l 599 829 l 561 792 l 499 792 l 463 829 z "},"ụ":{"ha":788,"x_min":97,"x_max":683,"o":"m 97 128 l 97 692 l 200 692 l 200 160 l 269 92 l 408 92 l 581 264 l 581 692 l 683 692 l 683 0 l 583 0 l 583 147 l 436 0 l 225 0 l 97 128 z "},"ù":{"ha":788,"x_min":97,"x_max":683,"o":"m 97 128 l 97 692 l 200 692 l 200 160 l 269 92 l 408 92 l 581 264 l 581 692 l 683 692 l 683 0 l 583 0 l 583 147 l 436 0 l 225 0 l 97 128 m 222 996 l 340 996 l 444 778 l 347 778 l 222 996 z "},"ủ":{"ha":788,"x_min":97,"x_max":683,"o":"m 97 128 l 97 692 l 200 692 l 200 160 l 269 92 l 408 92 l 581 264 l 581 692 l 683 692 l 683 0 l 583 0 l 583 147 l 436 0 l 225 0 l 97 128 m 349 831 l 451 932 l 451 971 l 429 993 l 353 993 l 328 968 l 328 933 l 249 933 l 249 994 l 319 1065 l 467 1065 l 538 994 l 538 917 l 439 818 l 439 778 l 349 778 l 349 831 z "},"ư":{"ha":883,"x_min":97,"x_max":889,"o":"m 889 706 l 889 563 l 775 449 l 683 449 l 683 0 l 583 0 l 583 147 l 436 0 l 225 0 l 97 128 l 97 692 l 200 692 l 200 160 l 269 92 l 408 92 l 581 264 l 581 692 l 683 692 l 683 535 l 728 535 l 792 597 l 792 706 l 889 706 z "},"ứ":{"ha":883,"x_min":97,"x_max":889,"o":"m 889 706 l 889 563 l 775 449 l 683 449 l 683 0 l 583 0 l 583 147 l 436 0 l 225 0 l 97 128 l 97 692 l 200 692 l 200 160 l 269 92 l 408 92 l 581 264 l 581 692 l 683 692 l 683 535 l 728 535 l 792 597 l 792 706 l 889 706 m 453 996 l 571 996 l 446 778 l 349 778 l 453 996 z "},"ự":{"ha":883,"x_min":97,"x_max":889,"o":"m 889 706 l 889 563 l 775 449 l 683 449 l 683 0 l 583 0 l 583 147 l 436 0 l 225 0 l 97 128 l 97 692 l 200 692 l 200 160 l 269 92 l 408 92 l 581 264 l 581 692 l 683 692 l 683 535 l 728 535 l 792 597 l 792 706 l 889 706 z "},"ừ":{"ha":883,"x_min":97,"x_max":889,"o":"m 889 706 l 889 563 l 775 449 l 683 449 l 683 0 l 583 0 l 583 147 l 436 0 l 225 0 l 97 128 l 97 692 l 200 692 l 200 160 l 269 92 l 408 92 l 581 264 l 581 692 l 683 692 l 683 535 l 728 535 l 792 597 l 792 706 l 889 706 m 222 996 l 340 996 l 444 778 l 347 778 l 222 996 z "},"ử":{"ha":883,"x_min":97,"x_max":889,"o":"m 889 706 l 889 563 l 775 449 l 683 449 l 683 0 l 583 0 l 583 147 l 436 0 l 225 0 l 97 128 l 97 692 l 200 692 l 200 160 l 269 92 l 408 92 l 581 264 l 581 692 l 683 692 l 683 535 l 728 535 l 792 597 l 792 706 l 889 706 m 349 831 l 451 932 l 451 971 l 429 993 l 353 993 l 328 968 l 328 933 l 249 933 l 249 994 l 319 1065 l 467 1065 l 538 994 l 538 917 l 439 818 l 439 778 l 349 778 l 349 831 z "},"ữ":{"ha":883,"x_min":97,"x_max":889,"o":"m 889 706 l 889 563 l 775 449 l 683 449 l 683 0 l 583 0 l 583 147 l 436 0 l 225 0 l 97 128 l 97 692 l 200 692 l 200 160 l 269 92 l 408 92 l 581 264 l 581 692 l 683 692 l 683 535 l 728 535 l 792 597 l 792 706 l 889 706 m 335 864 l 310 864 l 283 838 l 283 800 l 203 800 l 203 863 l 276 936 l 363 936 l 451 864 l 478 864 l 503 889 l 503 928 l 583 928 l 583 865 l 510 792 l 424 792 l 335 864 z "},"ű":{"ha":788,"x_min":97,"x_max":683,"o":"m 97 128 l 97 692 l 200 692 l 200 160 l 269 92 l 408 92 l 581 264 l 581 692 l 683 692 l 683 0 l 583 0 l 583 147 l 436 0 l 225 0 l 97 128 m 343 996 l 458 996 l 333 778 l 239 778 l 343 996 m 553 996 l 667 996 l 543 778 l 447 778 l 553 996 z "},"ū":{"ha":788,"x_min":97,"x_max":683,"o":"m 97 128 l 97 692 l 200 692 l 200 160 l 269 92 l 408 92 l 581 264 l 581 692 l 683 692 l 683 0 l 583 0 l 583 147 l 436 0 l 225 0 l 97 128 m 199 889 l 588 889 l 588 806 l 199 806 l 199 889 z "},"ų":{"ha":788,"x_min":97,"x_max":735,"o":"m 97 128 l 97 692 l 200 692 l 200 160 l 269 92 l 408 92 l 581 264 l 581 692 l 683 692 l 683 0 l 583 0 l 583 147 l 436 0 l 225 0 l 97 128 m 513 -185 l 513 -90 l 592 0 l 683 0 l 601 -103 l 601 -157 l 638 -193 l 735 -193 l 735 -265 l 593 -265 l 513 -185 z "},"ů":{"ha":788,"x_min":97,"x_max":683,"o":"m 97 128 l 97 692 l 200 692 l 200 160 l 269 92 l 408 92 l 581 264 l 581 692 l 683 692 l 683 0 l 583 0 l 583 147 l 436 0 l 225 0 l 97 128 m 253 843 l 253 960 l 332 1039 l 454 1039 l 533 960 l 533 843 l 454 764 l 332 764 l 253 843 m 425 833 l 461 869 l 461 933 l 425 969 l 361 969 l 325 933 l 325 869 l 361 833 l 425 833 z "},"ũ":{"ha":788,"x_min":97,"x_max":683,"o":"m 97 128 l 97 692 l 200 692 l 200 160 l 269 92 l 408 92 l 581 264 l 581 692 l 683 692 l 683 0 l 583 0 l 583 147 l 436 0 l 225 0 l 97 128 m 335 864 l 310 864 l 283 838 l 283 800 l 203 800 l 203 863 l 276 936 l 363 936 l 451 864 l 478 864 l 503 889 l 503 928 l 583 928 l 583 865 l 510 792 l 424 792 l 335 864 z "},"v":{"ha":669,"x_min":21,"x_max":649,"o":"m 21 692 l 126 692 l 332 103 l 338 103 l 543 692 l 649 692 l 394 0 l 275 0 l 21 692 z "},"w":{"ha":982,"x_min":49,"x_max":933,"o":"m 49 692 l 154 692 l 272 117 l 276 117 l 443 692 l 543 692 l 694 117 l 699 117 l 828 692 l 933 692 l 758 0 l 647 0 l 494 571 l 490 571 l 324 0 l 211 0 l 49 692 z "},"ẃ":{"ha":982,"x_min":49,"x_max":933,"o":"m 49 692 l 154 692 l 272 117 l 276 117 l 443 692 l 543 692 l 694 117 l 699 117 l 828 692 l 933 692 l 758 0 l 647 0 l 494 571 l 490 571 l 324 0 l 211 0 l 49 692 m 551 996 l 669 996 l 544 778 l 447 778 l 551 996 z "},"ŵ":{"ha":982,"x_min":49,"x_max":933,"o":"m 49 692 l 154 692 l 272 117 l 276 117 l 443 692 l 543 692 l 694 117 l 699 117 l 828 692 l 933 692 l 758 0 l 647 0 l 494 571 l 490 571 l 324 0 l 211 0 l 49 692 m 440 972 l 543 972 l 686 778 l 586 778 l 496 903 l 488 903 l 397 778 l 297 778 l 440 972 z "},"ẅ":{"ha":982,"x_min":49,"x_max":933,"o":"m 49 692 l 154 692 l 272 117 l 276 117 l 443 692 l 543 692 l 694 117 l 699 117 l 828 692 l 933 692 l 758 0 l 647 0 l 494 571 l 490 571 l 324 0 l 211 0 l 49 692 m 286 829 l 286 890 l 324 928 l 386 928 l 422 890 l 422 829 l 386 792 l 324 792 l 286 829 m 561 829 l 561 890 l 597 928 l 660 928 l 697 890 l 697 829 l 660 792 l 597 792 l 561 829 z "},"ẁ":{"ha":982,"x_min":49,"x_max":933,"o":"m 49 692 l 154 692 l 272 117 l 276 117 l 443 692 l 543 692 l 694 117 l 699 117 l 828 692 l 933 692 l 758 0 l 647 0 l 494 571 l 490 571 l 324 0 l 211 0 l 49 692 m 310 996 l 428 996 l 532 778 l 435 778 l 310 996 z "},"x":{"ha":678,"x_min":28,"x_max":650,"o":"m 535 0 l 339 272 l 143 0 l 28 0 l 282 351 l 35 692 l 150 692 l 339 429 l 528 692 l 643 692 l 397 349 l 650 0 l 535 0 z "},"y":{"ha":790,"x_min":97,"x_max":686,"o":"m 686 692 l 686 -176 l 558 -303 l 225 -303 l 118 -196 l 118 -111 l 221 -111 l 221 -164 l 269 -211 l 514 -211 l 583 -143 l 583 147 l 436 0 l 225 0 l 97 128 l 97 692 l 200 692 l 200 160 l 269 92 l 408 92 l 583 267 l 583 692 l 686 692 z "},"ý":{"ha":790,"x_min":97,"x_max":686,"o":"m 686 692 l 686 -176 l 558 -303 l 225 -303 l 118 -196 l 118 -111 l 221 -111 l 221 -164 l 269 -211 l 514 -211 l 583 -143 l 583 147 l 436 0 l 225 0 l 97 128 l 97 692 l 200 692 l 200 160 l 269 92 l 408 92 l 583 267 l 583 692 l 686 692 m 454 996 l 572 996 l 447 778 l 350 778 l 454 996 z "},"ŷ":{"ha":790,"x_min":97,"x_max":686,"o":"m 686 692 l 686 -176 l 558 -303 l 225 -303 l 118 -196 l 118 -111 l 221 -111 l 221 -164 l 269 -211 l 514 -211 l 583 -143 l 583 147 l 436 0 l 225 0 l 97 128 l 97 692 l 200 692 l 200 160 l 269 92 l 408 92 l 583 267 l 583 692 l 686 692 m 343 972 l 446 972 l 589 778 l 489 778 l 399 903 l 390 903 l 300 778 l 200 778 l 343 972 z "},"ÿ":{"ha":790,"x_min":97,"x_max":686,"o":"m 686 692 l 686 -176 l 558 -303 l 225 -303 l 118 -196 l 118 -111 l 221 -111 l 221 -164 l 269 -211 l 514 -211 l 583 -143 l 583 147 l 436 0 l 225 0 l 97 128 l 97 692 l 200 692 l 200 160 l 269 92 l 408 92 l 583 267 l 583 692 l 686 692 m 189 829 l 189 890 l 226 928 l 289 928 l 325 890 l 325 829 l 289 792 l 226 792 l 189 829 m 464 829 l 464 890 l 500 928 l 563 928 l 600 890 l 600 829 l 563 792 l 500 792 l 464 829 z "},"ẏ":{"ha":790,"x_min":97,"x_max":686,"o":"m 686 692 l 686 -176 l 558 -303 l 225 -303 l 118 -196 l 118 -111 l 221 -111 l 221 -164 l 269 -211 l 514 -211 l 583 -143 l 583 147 l 436 0 l 225 0 l 97 128 l 97 692 l 200 692 l 200 160 l 269 92 l 408 92 l 583 267 l 583 692 l 686 692 m 326 829 l 326 890 l 364 928 l 425 928 l 463 890 l 463 829 l 425 792 l 364 792 l 326 829 z "},"ỵ":{"ha":790,"x_min":97,"x_max":686,"o":"m 686 692 l 686 -176 l 558 -303 l 225 -303 l 118 -196 l 118 -111 l 221 -111 l 221 -164 l 269 -211 l 514 -211 l 583 -143 l 583 147 l 436 0 l 225 0 l 97 128 l 97 692 l 200 692 l 200 160 l 269 92 l 408 92 l 583 267 l 583 692 l 686 692 z "},"ỳ":{"ha":790,"x_min":97,"x_max":686,"o":"m 686 692 l 686 -176 l 558 -303 l 225 -303 l 118 -196 l 118 -111 l 221 -111 l 221 -164 l 269 -211 l 514 -211 l 583 -143 l 583 147 l 436 0 l 225 0 l 97 128 l 97 692 l 200 692 l 200 160 l 269 92 l 408 92 l 583 267 l 583 692 l 686 692 m 222 996 l 340 996 l 444 778 l 347 778 l 222 996 z "},"ỷ":{"ha":790,"x_min":97,"x_max":686,"o":"m 686 692 l 686 -176 l 558 -303 l 225 -303 l 118 -196 l 118 -111 l 221 -111 l 221 -164 l 269 -211 l 514 -211 l 583 -143 l 583 147 l 436 0 l 225 0 l 97 128 l 97 692 l 200 692 l 200 160 l 269 92 l 408 92 l 583 267 l 583 692 l 686 692 m 350 831 l 453 932 l 453 971 l 431 993 l 354 993 l 329 968 l 329 933 l 250 933 l 250 994 l 321 1065 l 468 1065 l 539 994 l 539 917 l 440 818 l 440 778 l 350 778 l 350 831 z "},"ỹ":{"ha":790,"x_min":97,"x_max":686,"o":"m 686 692 l 686 -176 l 558 -303 l 225 -303 l 118 -196 l 118 -111 l 221 -111 l 221 -164 l 269 -211 l 514 -211 l 583 -143 l 583 147 l 436 0 l 225 0 l 97 128 l 97 692 l 200 692 l 200 160 l 269 92 l 408 92 l 583 267 l 583 692 l 686 692 m 336 864 l 311 864 l 285 838 l 285 800 l 204 800 l 204 863 l 278 936 l 364 936 l 453 864 l 479 864 l 504 889 l 504 928 l 585 928 l 585 865 l 511 792 l 425 792 l 336 864 z "},"z":{"ha":658,"x_min":56,"x_max":603,"o":"m 56 96 l 485 603 l 485 606 l 69 606 l 69 692 l 603 692 l 603 596 l 174 89 l 174 86 l 603 86 l 603 0 l 56 0 l 56 96 z "},"ź":{"ha":658,"x_min":56,"x_max":603,"o":"m 56 96 l 485 603 l 485 606 l 69 606 l 69 692 l 603 692 l 603 596 l 174 89 l 174 86 l 603 86 l 603 0 l 56 0 l 56 96 m 394 996 l 513 996 l 388 778 l 290 778 l 394 996 z "},"ž":{"ha":658,"x_min":56,"x_max":603,"o":"m 56 96 l 485 603 l 485 606 l 69 606 l 69 692 l 603 692 l 603 596 l 174 89 l 174 86 l 603 86 l 603 0 l 56 0 l 56 96 m 140 972 l 240 972 l 331 847 l 339 847 l 429 972 l 529 972 l 386 778 l 283 778 l 140 972 z "},"ż":{"ha":658,"x_min":56,"x_max":603,"o":"m 56 96 l 485 603 l 485 606 l 69 606 l 69 692 l 603 692 l 603 596 l 174 89 l 174 86 l 603 86 l 603 0 l 56 0 l 56 96 m 267 829 l 267 890 l 304 928 l 365 928 l 403 890 l 403 829 l 365 792 l 304 792 l 267 829 z "},"ẓ":{"ha":658,"x_min":56,"x_max":603,"o":"m 56 96 l 485 603 l 485 606 l 69 606 l 69 692 l 603 692 l 603 596 l 174 89 l 174 86 l 603 86 l 603 0 l 56 0 l 56 96 z "},"ﬁ":{"ha":806,"x_min":42,"x_max":701,"o":"m 701 0 l 599 0 l 599 600 l 269 600 l 269 0 l 167 0 l 167 600 l 42 600 l 42 692 l 167 692 l 167 865 l 288 986 l 488 986 l 488 897 l 332 897 l 269 835 l 269 692 l 701 692 l 701 0 z "},"ﬂ":{"ha":833,"x_min":42,"x_max":722,"o":"m 722 0 l 619 0 l 619 900 l 332 900 l 269 838 l 269 692 l 488 692 l 488 600 l 269 600 l 269 0 l 167 0 l 167 600 l 42 600 l 42 692 l 167 692 l 167 865 l 288 986 l 722 986 l 722 0 z "},"ª":{"ha":578,"x_min":69,"x_max":501,"o":"m 69 572 l 69 689 l 154 774 l 406 774 l 406 849 l 368 886 l 207 886 l 169 849 l 169 815 l 74 815 l 74 874 l 171 972 l 404 972 l 501 874 l 501 488 l 411 488 l 411 564 l 332 488 l 154 488 l 69 572 m 321 571 l 406 653 l 406 694 l 199 694 l 167 664 l 167 601 l 197 571 l 321 571 z "},"º":{"ha":589,"x_min":69,"x_max":519,"o":"m 69 583 l 69 876 l 165 972 l 424 972 l 519 876 l 519 583 l 424 488 l 165 488 l 69 583 m 381 575 l 421 615 l 421 844 l 381 885 l 208 885 l 168 844 l 168 615 l 208 575 l 381 575 z "},"ⁿ":{"ha":589,"x_min":76,"x_max":513,"o":"m 76 972 l 168 972 l 168 882 l 258 972 l 413 972 l 513 872 l 513 488 l 414 488 l 414 843 l 374 883 l 279 883 l 175 778 l 175 488 l 76 488 l 76 972 z "},"Δ":{"ha":892,"x_min":49,"x_max":843,"o":"m 49 81 l 375 972 l 517 972 l 843 81 l 843 0 l 49 0 l 49 81 m 732 89 l 450 886 l 442 886 l 157 89 l 732 89 z "},"Ω":{"ha":960,"x_min":83,"x_max":876,"o":"m 83 89 l 264 89 l 264 225 l 108 381 l 108 840 l 240 972 l 719 972 l 851 840 l 851 381 l 696 225 l 696 89 l 876 89 l 876 0 l 599 0 l 599 261 l 749 411 l 749 803 l 671 881 l 289 881 l 211 803 l 211 411 l 361 261 l 361 0 l 83 0 l 83 89 z "},"μ":{"ha":794,"x_min":104,"x_max":690,"o":"m 690 692 l 690 0 l 590 0 l 590 133 l 457 0 l 274 0 l 207 67 l 207 -278 l 104 -278 l 104 692 l 207 692 l 207 188 l 304 92 l 429 92 l 588 250 l 588 692 l 690 692 z "},"π":{"ha":986,"x_min":76,"x_max":910,"o":"m 749 599 l 749 146 l 804 90 l 910 90 l 910 0 l 760 0 l 646 114 l 646 600 l 325 600 l 325 0 l 222 0 l 222 600 l 76 600 l 76 692 l 910 692 l 910 599 l 749 599 z "},"ก":{"ha":818,"x_min":69,"x_max":707,"o":"m 118 422 l 190 515 l 69 635 l 210 775 l 594 775 l 707 663 l 707 0 l 604 0 l 604 621 l 544 681 l 242 681 l 192 633 l 307 517 l 221 397 l 221 0 l 118 0 l 118 422 z "},"ข":{"ha":797,"x_min":49,"x_max":686,"o":"m 324 108 l 324 389 l 397 564 l 397 649 l 338 708 l 206 708 l 161 669 l 238 669 l 321 586 l 321 492 l 238 408 l 132 408 l 49 492 l 49 654 l 183 789 l 383 789 l 492 681 l 492 553 l 426 389 l 426 142 l 476 92 l 533 92 l 583 142 l 583 775 l 686 775 l 686 108 l 578 0 l 432 0 l 324 108 m 210 478 l 246 514 l 246 567 l 210 603 l 160 603 l 124 569 l 124 514 l 160 478 l 210 478 z "},"ฃ":{"ha":818,"x_min":42,"x_max":707,"o":"m 344 108 l 344 399 l 444 568 l 444 676 l 415 708 l 396 708 l 324 629 l 247 708 l 186 708 l 132 654 l 224 654 l 303 575 l 303 483 l 224 404 l 121 404 l 42 483 l 42 656 l 164 789 l 264 789 l 324 721 l 379 789 l 457 789 l 536 701 l 536 557 l 447 401 l 447 142 l 497 92 l 554 92 l 604 142 l 604 775 l 707 775 l 707 108 l 599 0 l 453 0 l 344 108 m 196 471 l 231 506 l 231 556 l 196 590 l 149 590 l 114 558 l 114 506 l 149 471 l 196 471 z "},"ค":{"ha":858,"x_min":111,"x_max":747,"o":"m 747 647 l 747 0 l 644 0 l 644 621 l 585 681 l 274 681 l 214 621 l 214 326 l 382 488 l 485 488 l 567 406 l 567 308 l 485 226 l 382 226 l 304 304 l 263 263 l 214 217 l 214 0 l 111 0 l 111 647 l 239 775 l 619 775 l 747 647 m 371 328 l 404 294 l 460 294 l 493 328 l 493 386 l 460 419 l 404 419 l 371 386 l 371 328 z "},"ฅ":{"ha":861,"x_min":111,"x_max":750,"o":"m 750 663 l 750 0 l 647 0 l 647 632 l 606 681 l 546 681 l 431 594 l 315 681 l 256 681 l 214 632 l 214 317 l 381 476 l 483 476 l 565 394 l 565 297 l 483 215 l 381 215 l 303 293 l 261 251 l 214 207 l 214 0 l 111 0 l 111 663 l 208 775 l 336 775 l 431 699 l 525 775 l 650 775 l 750 663 m 369 317 l 403 283 l 458 283 l 492 317 l 492 375 l 458 408 l 403 408 l 369 375 l 369 317 z "},"ฆ":{"ha":911,"x_min":56,"x_max":800,"o":"m 800 775 l 800 0 l 708 0 l 439 142 l 439 82 l 357 0 l 249 0 l 167 82 l 167 182 l 249 264 l 317 264 l 317 374 l 472 593 l 472 676 l 443 708 l 410 708 l 338 629 l 261 708 l 200 708 l 146 654 l 238 654 l 317 575 l 317 483 l 238 404 l 135 404 l 56 483 l 56 656 l 178 789 l 278 789 l 338 721 l 393 789 l 485 789 l 564 701 l 564 581 l 419 368 l 419 251 l 697 106 l 697 775 l 800 775 m 128 558 l 128 506 l 163 471 l 210 471 l 244 506 l 244 556 l 210 590 l 163 590 l 128 558 m 364 160 l 329 194 l 276 194 l 242 160 l 242 104 l 276 69 l 329 69 l 364 104 l 364 160 z "},"ง":{"ha":669,"x_min":35,"x_max":558,"o":"m 35 458 l 117 514 l 410 94 l 456 94 l 456 444 l 463 511 l 368 511 l 286 593 l 286 693 l 368 775 l 476 775 l 558 693 l 558 58 l 503 0 l 360 0 l 35 458 m 450 581 l 483 614 l 483 672 l 450 706 l 394 706 l 361 672 l 361 614 l 394 581 l 450 581 z "},"จ":{"ha":783,"x_min":42,"x_max":672,"o":"m 672 661 l 672 0 l 569 0 l 569 225 l 497 286 l 481 307 l 406 232 l 297 232 l 215 314 l 215 414 l 297 496 l 406 496 l 569 347 l 569 621 l 510 681 l 197 681 l 144 628 l 144 542 l 42 542 l 42 661 l 156 775 l 558 775 l 672 661 m 413 393 l 379 426 l 324 426 l 290 393 l 290 335 l 324 301 l 379 301 l 413 335 l 413 393 z "},"ฉ":{"ha":839,"x_min":63,"x_max":776,"o":"m 776 178 l 776 71 l 701 0 l 588 0 l 513 71 l 513 125 l 321 0 l 232 0 l 232 167 l 239 233 l 144 233 l 63 315 l 63 415 l 144 497 l 253 497 l 332 418 l 332 106 l 614 281 l 614 621 l 554 681 l 232 681 l 179 628 l 179 571 l 76 571 l 76 661 l 190 775 l 604 775 l 717 661 l 717 236 l 776 178 m 260 394 l 226 428 l 171 428 l 138 394 l 138 336 l 171 303 l 226 303 l 260 336 l 260 394 m 704 154 l 669 189 l 619 189 l 585 154 l 585 101 l 619 67 l 669 67 l 704 101 l 704 154 z "},"ช":{"ha":824,"x_min":49,"x_max":824,"o":"m 324 108 l 324 389 l 397 564 l 397 649 l 338 708 l 206 708 l 161 669 l 238 669 l 321 586 l 321 492 l 238 408 l 132 408 l 49 492 l 49 654 l 183 789 l 383 789 l 492 681 l 492 553 l 426 389 l 426 142 l 476 92 l 549 92 l 599 142 l 599 565 l 556 624 l 556 671 l 758 874 l 824 804 l 656 640 l 700 583 l 700 108 l 592 0 l 432 0 l 324 108 m 210 478 l 246 514 l 246 567 l 210 603 l 160 603 l 124 569 l 124 514 l 160 478 l 210 478 z "},"ซ":{"ha":844,"x_min":42,"x_max":844,"o":"m 344 108 l 344 399 l 444 568 l 444 676 l 415 708 l 396 708 l 324 629 l 247 708 l 186 708 l 132 654 l 224 654 l 303 575 l 303 483 l 224 404 l 121 404 l 42 483 l 42 656 l 164 789 l 264 789 l 324 721 l 379 789 l 457 789 l 536 701 l 536 557 l 447 401 l 447 142 l 497 92 l 569 92 l 619 142 l 619 565 l 582 624 l 582 671 l 779 874 l 844 804 l 681 640 l 721 583 l 721 108 l 613 0 l 453 0 l 344 108 m 196 471 l 231 506 l 231 556 l 196 590 l 149 590 l 114 558 l 114 506 l 149 471 l 196 471 z "},"ฌ":{"ha":1185,"x_min":69,"x_max":1074,"o":"m 1074 775 l 1074 0 l 982 0 l 729 138 l 729 82 l 647 0 l 539 0 l 457 82 l 457 182 l 539 264 l 601 264 l 601 621 l 542 681 l 242 681 l 192 633 l 307 517 l 215 397 l 215 331 l 208 264 l 301 264 l 385 185 l 385 82 l 301 0 l 196 0 l 113 82 l 113 422 l 190 515 l 69 635 l 210 775 l 592 775 l 704 663 l 704 251 l 971 106 l 971 775 l 1074 775 m 188 161 l 188 103 l 224 69 l 274 69 l 310 103 l 310 161 l 274 194 l 224 194 l 188 161 m 654 160 l 619 194 l 567 194 l 532 160 l 532 104 l 567 69 l 619 69 l 654 104 l 654 160 z "},"ญ":{"ha":1201,"x_min":69,"x_max":1110,"o":"m 113 82 l 113 422 l 190 515 l 69 635 l 210 775 l 574 775 l 686 663 l 686 153 l 744 94 l 929 94 l 988 153 l 988 775 l 1090 775 l 1090 114 l 976 0 l 697 0 l 583 114 l 583 621 l 524 681 l 242 681 l 192 633 l 307 517 l 215 397 l 215 331 l 208 264 l 301 264 l 385 185 l 385 82 l 301 0 l 196 0 l 113 82 m 274 69 l 310 103 l 310 161 l 274 194 l 224 194 l 188 161 l 188 103 l 224 69 l 274 69 m 581 -236 l 581 -139 l 651 -68 l 753 -68 l 824 -139 l 824 -215 l 925 -215 l 1042 -99 l 1110 -167 l 969 -307 l 651 -307 l 581 -236 m 722 -243 l 754 -212 l 754 -162 l 722 -132 l 682 -132 l 650 -162 l 650 -212 l 682 -243 l 722 -243 z "},"ฎ":{"ha":868,"x_min":42,"x_max":757,"o":"m 147 -300 l 147 -186 l 226 -107 l 515 -107 l 654 -253 l 654 621 l 594 681 l 289 681 l 239 633 l 372 517 l 306 397 l 306 82 l 222 0 l 125 0 l 42 82 l 42 182 l 125 261 l 210 261 l 203 314 l 203 422 l 258 514 l 117 635 l 257 775 l 644 775 l 757 663 l 757 -381 l 674 -381 l 593 -303 l 525 -381 l 228 -381 l 147 -300 m 199 68 l 233 101 l 233 160 l 199 193 l 149 193 l 114 160 l 114 101 l 149 68 l 199 68 m 489 -301 l 538 -246 l 481 -186 l 271 -186 l 235 -222 l 235 -265 l 271 -301 l 489 -301 z "},"ฏ":{"ha":868,"x_min":42,"x_max":757,"o":"m 119 -301 l 119 -187 l 199 -108 l 342 -108 l 497 -269 l 563 -183 l 654 -269 l 654 621 l 594 681 l 289 681 l 239 633 l 372 517 l 306 397 l 306 82 l 222 0 l 125 0 l 42 82 l 42 182 l 125 261 l 210 261 l 203 314 l 203 422 l 258 514 l 117 635 l 257 775 l 644 775 l 757 663 l 757 -381 l 663 -381 l 569 -292 l 499 -381 l 417 -299 l 331 -381 l 199 -381 l 119 -301 m 199 68 l 233 101 l 233 160 l 199 193 l 149 193 l 114 160 l 114 101 l 149 68 l 199 68 m 304 -306 l 367 -244 l 307 -183 l 236 -183 l 203 -217 l 203 -272 l 236 -306 l 304 -306 z "},"ฐ":{"ha":728,"x_min":24,"x_max":660,"o":"m 514 442 l 49 547 l 49 661 l 163 775 l 631 775 l 631 683 l 204 683 l 151 632 l 151 607 l 617 504 l 617 0 l 514 0 l 514 142 l 439 206 l 422 226 l 347 151 l 242 151 l 160 233 l 160 331 l 242 413 l 347 413 l 514 263 l 514 442 m 354 310 l 321 343 l 268 343 l 235 310 l 235 254 l 268 221 l 321 221 l 354 254 l 354 310 m 660 -103 l 660 -381 l 493 -381 l 424 -314 l 360 -381 l 286 -299 l 214 -381 l 103 -381 l 24 -301 l 24 -187 l 103 -108 l 219 -108 l 365 -283 l 424 -221 l 517 -308 l 574 -308 l 574 -265 l 579 -237 l 513 -237 l 451 -178 l 451 -103 l 515 -40 l 597 -40 l 660 -103 m 575 -185 l 599 -161 l 599 -119 l 575 -96 l 536 -96 l 513 -119 l 513 -161 l 536 -185 l 575 -185 m 244 -247 l 189 -181 l 135 -181 l 101 -214 l 101 -275 l 135 -308 l 192 -308 l 244 -247 z "},"ฑ":{"ha":988,"x_min":35,"x_max":876,"o":"m 351 485 l 438 649 l 438 676 l 408 708 l 389 708 l 317 629 l 240 708 l 179 708 l 125 654 l 217 654 l 296 575 l 296 483 l 217 404 l 114 404 l 35 483 l 35 656 l 157 789 l 257 789 l 317 721 l 372 789 l 450 789 l 529 701 l 529 640 l 450 479 l 450 163 l 451 163 l 642 775 l 776 775 l 876 661 l 876 0 l 774 0 l 774 624 l 731 681 l 697 681 l 481 0 l 351 0 l 351 485 m 189 471 l 224 506 l 224 556 l 189 590 l 142 590 l 107 558 l 107 506 l 142 471 l 189 471 z "},"ฒ":{"ha":1225,"x_min":111,"x_max":1114,"o":"m 1114 775 l 1114 0 l 1022 0 l 781 132 l 781 82 l 699 0 l 590 0 l 508 82 l 508 182 l 590 264 l 644 264 l 644 632 l 603 681 l 544 681 l 429 594 l 314 681 l 256 681 l 214 632 l 214 114 l 326 222 l 357 250 l 283 325 l 283 425 l 365 507 l 468 507 l 550 425 l 550 321 l 214 0 l 111 0 l 111 663 l 208 775 l 335 775 l 429 699 l 524 775 l 647 775 l 747 663 l 747 251 l 1011 106 l 1011 775 l 1114 775 m 356 347 l 389 314 l 444 314 l 478 347 l 478 406 l 444 439 l 389 439 l 356 406 l 356 347 m 706 160 l 671 194 l 618 194 l 583 160 l 583 104 l 618 69 l 671 69 l 706 104 l 706 160 z "},"ณ":{"ha":1208,"x_min":69,"x_max":1153,"o":"m 1153 178 l 1153 71 l 1078 0 l 964 0 l 889 71 l 889 131 l 679 0 l 588 0 l 588 621 l 528 681 l 242 681 l 192 633 l 307 517 l 215 397 l 215 331 l 208 264 l 301 264 l 385 185 l 385 82 l 301 0 l 196 0 l 113 82 l 113 422 l 190 515 l 69 635 l 210 775 l 578 775 l 690 663 l 690 106 l 986 282 l 986 775 l 1089 775 l 1089 240 l 1153 178 m 188 161 l 188 103 l 224 69 l 274 69 l 310 103 l 310 161 l 274 194 l 224 194 l 188 161 m 1081 154 l 1046 189 l 996 189 l 961 154 l 961 101 l 996 67 l 1046 67 l 1081 101 l 1081 154 z "},"ด":{"ha":858,"x_min":111,"x_max":747,"o":"m 747 661 l 747 0 l 644 0 l 644 621 l 585 681 l 274 681 l 214 621 l 214 113 l 325 214 l 367 250 l 297 319 l 297 419 l 379 501 l 482 501 l 564 419 l 564 315 l 214 0 l 111 0 l 111 661 l 225 775 l 633 775 l 747 661 m 369 342 l 403 308 l 458 308 l 492 342 l 492 400 l 458 433 l 403 433 l 369 400 l 369 342 z "},"ต":{"ha":861,"x_min":111,"x_max":750,"o":"m 750 663 l 750 0 l 647 0 l 647 632 l 606 681 l 546 681 l 431 594 l 315 681 l 256 681 l 214 632 l 214 113 l 324 208 l 365 242 l 297 311 l 297 411 l 379 493 l 482 493 l 564 411 l 564 307 l 214 0 l 111 0 l 111 663 l 208 775 l 336 775 l 431 699 l 525 775 l 650 775 l 750 663 m 369 333 l 403 300 l 458 300 l 492 333 l 492 392 l 458 425 l 403 425 l 369 392 l 369 333 z "},"ถ":{"ha":818,"x_min":69,"x_max":707,"o":"m 113 82 l 113 422 l 190 515 l 69 635 l 210 775 l 594 775 l 707 663 l 707 0 l 604 0 l 604 621 l 544 681 l 242 681 l 192 633 l 307 517 l 215 397 l 215 331 l 208 264 l 301 264 l 385 185 l 385 82 l 301 0 l 196 0 l 113 82 m 274 69 l 310 103 l 310 161 l 274 194 l 224 194 l 188 161 l 188 103 l 224 69 l 274 69 z "},"ท":{"ha":890,"x_min":42,"x_max":779,"o":"m 211 444 l 218 511 l 124 511 l 42 593 l 42 693 l 124 775 l 232 775 l 314 693 l 314 172 l 315 172 l 531 775 l 665 775 l 779 661 l 779 0 l 676 0 l 676 624 l 619 681 l 586 681 l 333 0 l 211 0 l 211 444 m 206 581 l 239 614 l 239 672 l 206 706 l 150 706 l 117 672 l 117 614 l 150 581 l 206 581 z "},"ธ":{"ha":771,"x_min":83,"x_max":674,"o":"m 119 114 l 119 396 l 222 396 l 222 150 l 278 94 l 508 94 l 564 150 l 564 424 l 83 535 l 83 661 l 197 775 l 674 775 l 674 683 l 243 683 l 186 626 l 186 594 l 667 483 l 667 114 l 553 0 l 233 0 l 119 114 z "},"น":{"ha":857,"x_min":42,"x_max":801,"o":"m 801 178 l 801 71 l 726 0 l 613 0 l 538 71 l 538 135 l 303 0 l 211 0 l 211 444 l 218 511 l 124 511 l 42 593 l 42 693 l 124 775 l 232 775 l 314 693 l 314 106 l 635 282 l 635 775 l 738 775 l 738 240 l 801 178 m 239 672 l 206 706 l 150 706 l 117 672 l 117 614 l 150 581 l 206 581 l 239 614 l 239 672 m 729 154 l 694 189 l 644 189 l 610 154 l 610 101 l 644 67 l 694 67 l 729 101 l 729 154 z "},"บ":{"ha":885,"x_min":42,"x_max":774,"o":"m 211 114 l 211 444 l 218 511 l 124 511 l 42 593 l 42 693 l 124 775 l 232 775 l 314 693 l 314 150 l 369 94 l 615 94 l 671 150 l 671 775 l 774 775 l 774 114 l 660 0 l 325 0 l 211 114 m 206 581 l 239 614 l 239 672 l 206 706 l 150 706 l 117 672 l 117 614 l 150 581 l 206 581 z "},"ป":{"ha":888,"x_min":42,"x_max":776,"o":"m 211 114 l 211 444 l 218 511 l 124 511 l 42 593 l 42 693 l 124 775 l 232 775 l 314 693 l 314 150 l 369 94 l 618 94 l 674 150 l 674 1067 l 776 1067 l 776 114 l 663 0 l 325 0 l 211 114 m 206 581 l 239 614 l 239 672 l 206 706 l 150 706 l 117 672 l 117 614 l 150 581 l 206 581 z "},"ผ":{"ha":846,"x_min":111,"x_max":735,"o":"m 111 693 l 193 775 l 301 775 l 383 693 l 383 593 l 304 511 l 207 511 l 213 442 l 213 139 l 214 139 l 393 375 l 451 375 l 632 139 l 633 139 l 633 775 l 735 775 l 735 0 l 638 0 l 422 281 l 208 0 l 111 0 l 111 693 m 275 581 l 308 614 l 308 672 l 275 706 l 219 706 l 186 672 l 186 614 l 219 581 l 275 581 z "},"ฝ":{"ha":849,"x_min":111,"x_max":738,"o":"m 111 693 l 193 775 l 301 775 l 383 693 l 383 593 l 304 511 l 207 511 l 213 442 l 213 139 l 214 139 l 394 375 l 453 375 l 635 139 l 636 139 l 636 1067 l 738 1067 l 738 0 l 640 0 l 424 281 l 208 0 l 111 0 l 111 693 m 275 581 l 308 614 l 308 672 l 275 706 l 219 706 l 186 672 l 186 614 l 219 581 l 275 581 z "},"พ":{"ha":944,"x_min":42,"x_max":833,"o":"m 211 444 l 218 511 l 124 511 l 42 593 l 42 693 l 124 775 l 232 775 l 313 694 l 313 204 l 315 204 l 492 642 l 553 642 l 729 204 l 732 204 l 732 775 l 833 775 l 833 0 l 731 0 l 522 515 l 314 0 l 213 0 l 211 444 m 206 581 l 239 614 l 239 672 l 206 706 l 150 706 l 117 672 l 117 614 l 150 581 l 206 581 z "},"ฟ":{"ha":947,"x_min":42,"x_max":836,"o":"m 211 444 l 218 511 l 124 511 l 42 593 l 42 693 l 124 775 l 232 775 l 313 694 l 313 204 l 315 204 l 493 642 l 554 642 l 732 204 l 735 204 l 735 1067 l 836 1067 l 836 0 l 733 0 l 524 515 l 314 0 l 213 0 l 211 444 m 206 581 l 239 614 l 239 672 l 206 706 l 150 706 l 117 672 l 117 614 l 150 581 l 206 581 z "},"ภ":{"ha":865,"x_min":42,"x_max":754,"o":"m 42 82 l 42 182 l 125 261 l 210 261 l 203 314 l 203 422 l 258 514 l 117 635 l 257 775 l 642 775 l 754 663 l 754 0 l 651 0 l 651 621 l 592 681 l 289 681 l 239 633 l 372 517 l 306 397 l 306 82 l 222 0 l 125 0 l 42 82 m 199 68 l 233 101 l 233 160 l 199 193 l 149 193 l 114 160 l 114 101 l 149 68 l 199 68 z "},"ม":{"ha":854,"x_min":63,"x_max":743,"o":"m 743 775 l 743 0 l 651 0 l 354 143 l 354 82 l 272 0 l 164 0 l 82 82 l 82 182 l 164 264 l 232 264 l 232 444 l 239 511 l 144 511 l 63 593 l 63 693 l 144 775 l 253 775 l 335 693 l 335 251 l 640 106 l 640 775 l 743 775 m 260 614 l 260 672 l 226 706 l 171 706 l 138 672 l 138 614 l 171 581 l 226 581 l 260 614 m 279 160 l 244 194 l 192 194 l 157 160 l 157 104 l 192 69 l 244 69 l 279 104 l 279 160 z "},"ย":{"ha":815,"x_min":97,"x_max":704,"o":"m 704 775 l 704 114 l 590 0 l 211 0 l 97 114 l 97 253 l 204 351 l 97 438 l 97 665 l 207 775 l 322 775 l 404 693 l 404 593 l 322 511 l 232 511 l 189 550 l 189 468 l 279 396 l 443 396 l 443 307 l 283 307 l 200 229 l 200 150 l 256 94 l 546 94 l 601 150 l 601 775 l 704 775 m 207 614 l 240 581 l 296 581 l 329 614 l 329 672 l 296 706 l 240 706 l 207 672 l 207 614 z "},"ร":{"ha":672,"x_min":63,"x_max":596,"o":"m 261 82 l 261 185 l 344 264 l 438 264 l 431 331 l 431 443 l 63 528 l 63 661 l 176 775 l 596 775 l 596 682 l 218 682 l 165 629 l 165 590 l 533 510 l 533 82 l 450 0 l 344 0 l 261 82 m 422 69 l 458 103 l 458 161 l 422 194 l 372 194 l 336 161 l 336 103 l 372 69 l 422 69 z "},"ฤ":{"ha":821,"x_min":69,"x_max":710,"o":"m 607 621 l 547 681 l 242 681 l 192 633 l 307 517 l 215 397 l 215 331 l 208 264 l 301 264 l 385 185 l 385 82 l 301 0 l 196 0 l 113 82 l 113 422 l 190 515 l 69 635 l 210 775 l 597 775 l 710 663 l 710 -292 l 607 -292 l 607 621 m 274 69 l 310 103 l 310 161 l 274 194 l 224 194 l 188 161 l 188 103 l 224 69 l 274 69 z "},"ล":{"ha":822,"x_min":83,"x_max":711,"o":"m 118 82 l 118 388 l 233 497 l 492 497 l 608 385 l 608 621 l 549 681 l 239 681 l 186 628 l 186 571 l 83 571 l 83 661 l 197 775 l 599 775 l 711 661 l 711 0 l 608 0 l 608 260 l 461 403 l 275 403 l 221 353 l 221 315 l 213 264 l 308 264 l 390 182 l 390 82 l 308 0 l 200 0 l 118 82 m 282 69 l 315 103 l 315 161 l 282 194 l 226 194 l 193 161 l 193 103 l 226 69 l 282 69 z "},"ฦ":{"ha":868,"x_min":42,"x_max":757,"o":"m 654 621 l 594 681 l 289 681 l 239 633 l 372 517 l 306 397 l 306 82 l 222 0 l 125 0 l 42 82 l 42 182 l 125 261 l 210 261 l 203 314 l 203 422 l 258 514 l 117 635 l 257 775 l 644 775 l 757 663 l 757 -292 l 654 -292 l 654 621 m 199 68 l 233 101 l 233 160 l 199 193 l 149 193 l 114 160 l 114 101 l 149 68 l 199 68 z "},"ว":{"ha":721,"x_min":49,"x_max":610,"o":"m 338 82 l 338 185 l 421 264 l 514 264 l 507 331 l 507 621 l 447 681 l 211 681 l 151 621 l 151 543 l 49 543 l 49 661 l 163 775 l 497 775 l 610 661 l 610 82 l 526 0 l 421 0 l 338 82 m 499 69 l 535 103 l 535 161 l 499 194 l 449 194 l 413 161 l 413 103 l 449 69 l 499 69 z "},"ศ":{"ha":858,"x_min":111,"x_max":783,"o":"m 678 717 l 747 647 l 747 0 l 644 0 l 644 621 l 585 681 l 274 681 l 214 621 l 214 326 l 382 488 l 485 488 l 567 406 l 567 308 l 485 226 l 382 226 l 304 304 l 263 263 l 214 217 l 214 0 l 111 0 l 111 647 l 239 775 l 600 775 l 715 890 l 783 822 l 678 717 m 371 328 l 404 294 l 460 294 l 493 328 l 493 386 l 460 419 l 404 419 l 371 386 l 371 328 z "},"ษ":{"ha":915,"x_min":42,"x_max":804,"o":"m 804 775 l 804 114 l 690 0 l 325 0 l 211 114 l 211 444 l 218 511 l 124 511 l 42 593 l 42 693 l 124 775 l 232 775 l 314 693 l 314 150 l 369 94 l 646 94 l 701 150 l 701 283 l 471 283 l 397 357 l 397 451 l 471 525 l 568 525 l 642 451 l 642 386 l 625 368 l 683 372 l 701 372 l 701 775 l 804 775 m 239 672 l 206 706 l 150 706 l 117 672 l 117 614 l 150 581 l 206 581 l 239 614 l 239 672 m 572 431 l 544 458 l 497 458 l 467 431 l 467 378 l 494 350 l 542 350 l 572 378 l 572 431 z "},"ส":{"ha":822,"x_min":83,"x_max":754,"o":"m 653 721 l 713 661 l 713 0 l 610 0 l 610 260 l 463 403 l 275 403 l 221 353 l 221 315 l 213 264 l 308 264 l 390 182 l 390 82 l 308 0 l 200 0 l 118 82 l 118 388 l 233 497 l 493 497 l 610 385 l 610 621 l 550 681 l 239 681 l 186 628 l 186 571 l 83 571 l 83 661 l 197 775 l 571 775 l 686 890 l 754 822 l 653 721 m 193 161 l 193 103 l 226 69 l 282 69 l 315 103 l 315 161 l 282 194 l 226 194 l 193 161 z "},"ห":{"ha":890,"x_min":42,"x_max":779,"o":"m 779 592 l 710 524 l 779 461 l 779 0 l 676 0 l 676 433 l 632 471 l 308 0 l 211 0 l 211 444 l 218 511 l 124 511 l 42 593 l 42 693 l 124 775 l 232 775 l 314 693 l 314 143 l 572 528 l 507 592 l 507 693 l 589 775 l 697 775 l 779 693 l 779 592 m 239 672 l 206 706 l 150 706 l 117 672 l 117 614 l 150 581 l 206 581 l 239 614 l 239 672 m 582 614 l 615 581 l 671 581 l 704 614 l 704 672 l 671 706 l 615 706 l 582 672 l 582 614 z "},"ฬ":{"ha":960,"x_min":42,"x_max":946,"o":"m 211 444 l 218 511 l 124 511 l 42 593 l 42 693 l 124 775 l 232 775 l 313 694 l 313 174 l 315 174 l 494 536 l 550 536 l 729 174 l 732 174 l 732 578 l 739 647 l 642 647 l 564 725 l 564 825 l 642 903 l 750 903 l 828 825 l 828 797 l 899 868 l 946 814 l 833 701 l 833 0 l 731 0 l 522 418 l 315 0 l 211 0 l 211 444 m 721 714 l 756 749 l 756 801 l 721 836 l 671 836 l 636 801 l 636 749 l 671 714 l 721 714 m 206 581 l 239 614 l 239 672 l 206 706 l 150 706 l 117 672 l 117 614 l 150 581 l 206 581 z "},"อ":{"ha":801,"x_min":76,"x_max":697,"o":"m 111 114 l 111 419 l 193 501 l 301 501 l 383 419 l 383 319 l 304 238 l 207 238 l 214 188 l 214 150 l 269 94 l 539 94 l 594 150 l 594 621 l 535 681 l 239 681 l 179 621 l 179 571 l 76 571 l 76 661 l 190 775 l 583 775 l 697 661 l 697 114 l 583 0 l 225 0 l 111 114 m 275 307 l 308 340 l 308 399 l 275 432 l 219 432 l 186 399 l 186 340 l 219 307 l 275 307 z "},"ฮ":{"ha":801,"x_min":76,"x_max":717,"o":"m 111 114 l 111 378 l 193 460 l 301 460 l 383 378 l 383 278 l 304 199 l 210 199 l 214 174 l 214 150 l 269 94 l 539 94 l 594 150 l 594 625 l 568 653 l 424 508 l 156 508 l 76 588 l 76 693 l 158 775 l 567 775 l 653 860 l 717 799 l 639 721 l 697 661 l 697 114 l 583 0 l 225 0 l 111 114 m 390 592 l 490 692 l 204 692 l 171 661 l 171 622 l 201 592 l 390 592 m 275 265 l 308 299 l 308 357 l 275 390 l 219 390 l 186 357 l 186 299 l 219 265 l 275 265 z "},"ะ":{"ha":674,"x_min":69,"x_max":625,"o":"m 69 531 l 69 636 l 151 719 l 254 719 l 333 636 l 333 547 l 331 535 l 375 542 l 418 542 l 557 681 l 625 606 l 469 450 l 151 450 l 69 531 m 229 522 l 261 554 l 261 613 l 229 644 l 174 644 l 142 613 l 142 554 l 174 522 l 229 522 m 69 114 l 69 219 l 151 303 l 254 303 l 333 219 l 333 132 l 331 118 l 375 125 l 418 125 l 557 264 l 625 189 l 469 33 l 151 33 l 69 114 m 229 106 l 261 138 l 261 196 l 229 228 l 174 228 l 142 196 l 142 138 l 174 106 l 229 106 z "},"า":{"ha":721,"x_min":49,"x_max":610,"o":"m 507 621 l 447 681 l 211 681 l 151 621 l 151 543 l 49 543 l 49 661 l 163 775 l 499 775 l 610 661 l 610 0 l 507 0 l 507 621 z "},"ำ":{"ha":721,"x_min":-326,"x_max":610,"o":"m -326 983 l -326 1097 l -240 1183 l -118 1183 l -32 1097 l -32 983 l -118 897 l -240 897 l -326 983 m -151 975 l -112 1014 l -112 1067 l -151 1106 l -207 1106 l -246 1067 l -246 1014 l -207 975 l -151 975 m 507 621 l 447 681 l 211 681 l 151 621 l 151 543 l 49 543 l 49 661 l 163 775 l 499 775 l 610 661 l 610 0 l 507 0 l 507 621 z "},"เ":{"ha":426,"x_min":111,"x_max":385,"o":"m 111 82 l 111 775 l 214 775 l 214 331 l 207 264 l 303 264 l 385 182 l 385 82 l 303 0 l 194 0 l 111 82 m 276 69 l 310 103 l 310 161 l 276 194 l 221 194 l 188 161 l 188 103 l 221 69 l 276 69 z "},"แ":{"ha":804,"x_min":111,"x_max":763,"o":"m 111 82 l 111 775 l 214 775 l 214 331 l 207 264 l 303 264 l 385 182 l 385 82 l 303 0 l 194 0 l 111 82 m 489 82 l 489 775 l 592 775 l 592 331 l 585 264 l 681 264 l 763 182 l 763 82 l 681 0 l 572 0 l 489 82 m 276 69 l 310 103 l 310 161 l 276 194 l 221 194 l 188 161 l 188 103 l 221 69 l 276 69 m 654 69 l 688 103 l 688 161 l 654 194 l 599 194 l 565 161 l 565 103 l 599 69 l 654 69 z "},"โ":{"ha":501,"x_min":-49,"x_max":476,"o":"m 185 82 l 185 947 l -49 1065 l -49 1181 l 65 1294 l 476 1294 l 476 1206 l 107 1206 l 53 1153 l 53 1111 l 288 993 l 288 331 l 281 264 l 376 264 l 458 182 l 458 82 l 376 0 l 268 0 l 185 82 m 350 69 l 383 103 l 383 161 l 350 194 l 294 194 l 261 161 l 261 103 l 294 69 l 350 69 z "},"ใ":{"ha":496,"x_min":-49,"x_max":454,"o":"m 181 82 l 181 838 l 328 1029 l 328 1182 l 268 1242 l 117 1242 l 64 1192 l 147 1192 l 222 1117 l 222 1015 l 142 935 l 32 935 l -49 1015 l -49 1175 l 89 1322 l 315 1322 l 424 1211 l 424 1013 l 283 829 l 283 331 l 276 264 l 372 264 l 454 182 l 454 82 l 372 0 l 264 0 l 181 82 m 114 1004 l 147 1038 l 147 1094 l 114 1128 l 60 1128 l 26 1094 l 26 1038 l 60 1004 l 114 1004 m 346 69 l 379 103 l 379 161 l 346 194 l 290 194 l 257 161 l 257 103 l 290 69 l 346 69 z "},"ไ":{"ha":472,"x_min":-62,"x_max":431,"o":"m 157 82 l 157 929 l 326 1125 l 326 1200 l 307 1219 l 256 1219 l 132 1100 l 6 1219 l -62 1219 l -62 1308 l 32 1308 l 132 1210 l 228 1308 l 364 1308 l 426 1246 l 426 1107 l 260 911 l 260 331 l 253 264 l 349 264 l 431 182 l 431 82 l 349 0 l 240 0 l 157 82 m 322 69 l 356 103 l 356 161 l 322 194 l 267 194 l 233 161 l 233 103 l 267 69 l 322 69 z "},"ๅ":{"ha":721,"x_min":49,"x_max":610,"o":"m 507 621 l 447 681 l 211 681 l 151 621 l 151 543 l 49 543 l 49 661 l 163 775 l 499 775 l 610 661 l 610 -292 l 507 -292 l 507 621 z "},"ℊ":{"ha":806,"x_min":90,"x_max":817,"o":"m 138 -297 l 138 -169 l 250 -57 l 599 -57 l 599 129 l 471 14 l 218 14 l 90 142 l 90 564 l 218 692 l 481 692 l 601 571 l 601 692 l 701 692 l 701 -57 l 817 -57 l 817 -146 l 701 -146 l 701 -296 l 575 -422 l 263 -422 l 138 -297 m 454 106 l 599 240 l 599 454 l 453 600 l 263 600 l 193 532 l 193 174 l 263 106 l 454 106 m 529 -333 l 599 -265 l 599 -146 l 286 -146 l 238 -194 l 238 -272 l 299 -333 l 529 -333 z "},"₀":{"ha":600,"x_min":76,"x_max":524,"o":"m 76 -114 l 76 281 l 171 375 l 429 375 l 524 281 l 524 -114 l 429 -208 l 171 -208 l 76 -114 m 386 -119 l 424 -82 l 424 249 l 386 286 l 214 286 l 176 249 l 176 -82 l 214 -119 l 386 -119 z "},"₁":{"ha":365,"x_min":49,"x_max":275,"o":"m 175 264 l 49 197 l 49 294 l 196 375 l 275 375 l 275 -208 l 175 -208 l 175 264 z "},"₂":{"ha":519,"x_min":56,"x_max":471,"o":"m 58 -87 l 367 194 l 367 257 l 338 286 l 185 286 l 156 257 l 156 196 l 56 196 l 56 286 l 144 375 l 379 375 l 467 286 l 467 161 l 163 -111 l 163 -122 l 471 -122 l 471 -208 l 58 -208 l 58 -87 z "},"₃":{"ha":565,"x_min":63,"x_max":489,"o":"m 63 -119 l 63 -33 l 164 -33 l 164 -90 l 193 -119 l 360 -119 l 389 -90 l 389 13 l 360 40 l 186 40 l 186 129 l 360 129 l 389 158 l 389 257 l 360 286 l 197 286 l 168 257 l 168 200 l 68 200 l 68 286 l 156 375 l 400 375 l 489 286 l 489 128 l 446 85 l 489 42 l 489 -119 l 400 -208 l 151 -208 l 63 -119 z "},"₄":{"ha":544,"x_min":42,"x_max":503,"o":"m 332 -99 l 42 -99 l 42 14 l 307 375 l 432 375 l 432 -10 l 503 -10 l 503 -99 l 432 -99 l 432 -208 l 332 -208 l 332 -99 m 338 -12 l 338 261 l 335 261 l 144 4 l 144 -12 l 338 -12 z "},"₅":{"ha":550,"x_min":69,"x_max":494,"o":"m 69 -119 l 69 -28 l 169 -28 l 169 -90 l 199 -119 l 365 -119 l 394 -90 l 394 49 l 365 78 l 78 78 l 78 375 l 483 375 l 483 286 l 178 286 l 178 167 l 406 167 l 494 78 l 494 -119 l 406 -208 l 158 -208 l 69 -119 z "},"₆":{"ha":569,"x_min":76,"x_max":507,"o":"m 76 -119 l 76 286 l 165 375 l 414 375 l 503 286 l 503 206 l 404 206 l 404 256 l 374 286 l 207 286 l 176 256 l 176 104 l 226 154 l 418 154 l 507 65 l 507 -119 l 418 -208 l 165 -208 l 76 -119 m 376 -119 l 407 -89 l 407 35 l 376 65 l 242 65 l 176 0 l 176 -89 l 207 -119 l 376 -119 z "},"₇":{"ha":496,"x_min":42,"x_max":447,"o":"m 342 274 l 342 286 l 42 286 l 42 375 l 447 375 l 447 269 l 213 -208 l 107 -208 l 342 274 z "},"₈":{"ha":582,"x_min":69,"x_max":513,"o":"m 69 -119 l 69 40 l 122 93 l 78 136 l 78 286 l 167 375 l 415 375 l 504 286 l 504 136 l 460 93 l 513 40 l 513 -119 l 424 -208 l 158 -208 l 69 -119 m 374 131 l 404 161 l 404 256 l 374 286 l 210 286 l 179 256 l 179 161 l 210 131 l 374 131 m 382 -119 l 413 -89 l 413 15 l 382 44 l 201 44 l 171 15 l 171 -89 l 201 -119 l 382 -119 z "},"₉":{"ha":569,"x_min":63,"x_max":493,"o":"m 71 -119 l 71 -47 l 169 -47 l 169 -89 l 200 -119 l 363 -119 l 393 -89 l 393 57 l 344 8 l 151 8 l 63 97 l 63 286 l 151 375 l 404 375 l 493 286 l 493 -119 l 404 -208 l 160 -208 l 71 -119 m 336 97 l 393 154 l 393 256 l 363 286 l 193 286 l 163 256 l 163 128 l 193 97 l 336 97 z "},"⁰":{"ha":600,"x_min":76,"x_max":524,"o":"m 76 483 l 76 878 l 171 972 l 429 972 l 524 878 l 524 483 l 429 389 l 171 389 l 76 483 m 386 478 l 424 515 l 424 846 l 386 883 l 214 883 l 176 846 l 176 515 l 214 478 l 386 478 z "},"¹":{"ha":365,"x_min":49,"x_max":275,"o":"m 175 861 l 49 794 l 49 892 l 196 972 l 275 972 l 275 389 l 175 389 l 175 861 z "},"²":{"ha":519,"x_min":56,"x_max":471,"o":"m 58 510 l 367 792 l 367 854 l 338 883 l 185 883 l 156 854 l 156 793 l 56 793 l 56 883 l 144 972 l 379 972 l 467 883 l 467 758 l 163 486 l 163 475 l 471 475 l 471 389 l 58 389 l 58 510 z "},"³":{"ha":565,"x_min":63,"x_max":489,"o":"m 63 478 l 63 564 l 164 564 l 164 507 l 193 478 l 360 478 l 389 507 l 389 610 l 360 638 l 186 638 l 186 726 l 360 726 l 389 756 l 389 854 l 360 883 l 197 883 l 168 854 l 168 797 l 68 797 l 68 883 l 156 972 l 400 972 l 489 883 l 489 725 l 446 682 l 489 639 l 489 478 l 400 389 l 151 389 l 63 478 z "},"⁴":{"ha":544,"x_min":42,"x_max":503,"o":"m 332 499 l 42 499 l 42 611 l 307 972 l 432 972 l 432 588 l 503 588 l 503 499 l 432 499 l 432 389 l 332 389 l 332 499 m 338 585 l 338 858 l 335 858 l 144 601 l 144 585 l 338 585 z "},"⁵":{"ha":550,"x_min":69,"x_max":494,"o":"m 69 478 l 69 569 l 169 569 l 169 507 l 199 478 l 365 478 l 394 507 l 394 646 l 365 675 l 78 675 l 78 972 l 483 972 l 483 883 l 178 883 l 178 764 l 406 764 l 494 675 l 494 478 l 406 389 l 158 389 l 69 478 z "},"⁶":{"ha":569,"x_min":76,"x_max":507,"o":"m 76 478 l 76 883 l 165 972 l 414 972 l 503 883 l 503 803 l 404 803 l 404 853 l 374 883 l 207 883 l 176 853 l 176 701 l 226 751 l 418 751 l 507 663 l 507 478 l 418 389 l 165 389 l 76 478 m 376 478 l 407 508 l 407 632 l 376 663 l 242 663 l 176 597 l 176 508 l 207 478 l 376 478 z "},"⁷":{"ha":496,"x_min":42,"x_max":447,"o":"m 342 871 l 342 883 l 42 883 l 42 972 l 447 972 l 447 867 l 213 389 l 107 389 l 342 871 z "},"⁸":{"ha":582,"x_min":69,"x_max":513,"o":"m 69 478 l 69 638 l 122 690 l 78 733 l 78 883 l 167 972 l 415 972 l 504 883 l 504 733 l 460 690 l 513 638 l 513 478 l 424 389 l 158 389 l 69 478 m 374 728 l 404 758 l 404 853 l 374 883 l 210 883 l 179 853 l 179 758 l 210 728 l 374 728 m 382 478 l 413 508 l 413 613 l 382 642 l 201 642 l 171 613 l 171 508 l 201 478 l 382 478 z "},"⁹":{"ha":569,"x_min":63,"x_max":493,"o":"m 71 478 l 71 550 l 169 550 l 169 508 l 200 478 l 363 478 l 393 508 l 393 654 l 344 606 l 151 606 l 63 694 l 63 883 l 151 972 l 404 972 l 493 883 l 493 478 l 404 389 l 160 389 l 71 478 m 336 694 l 393 751 l 393 853 l 363 883 l 193 883 l 163 853 l 163 725 l 193 694 l 336 694 z "},"⁄":{"ha":776,"x_min":56,"x_max":721,"o":"m 721 972 l 164 0 l 56 0 l 613 972 l 721 972 z "},"½":{"ha":1178,"x_min":76,"x_max":1101,"o":"m 857 972 l 300 0 l 192 0 l 749 972 l 857 972 m 203 861 l 76 794 l 76 892 l 224 972 l 303 972 l 303 389 l 203 389 l 203 861 m 689 121 l 997 403 l 997 465 l 968 494 l 815 494 l 786 465 l 786 404 l 686 404 l 686 494 l 775 583 l 1010 583 l 1097 494 l 1097 369 l 793 97 l 793 86 l 1101 86 l 1101 0 l 689 0 l 689 121 z "},"⅓":{"ha":1185,"x_min":76,"x_max":1108,"o":"m 682 89 l 682 175 l 783 175 l 783 118 l 813 89 l 979 89 l 1008 118 l 1008 221 l 979 249 l 806 249 l 806 338 l 979 338 l 1008 367 l 1008 465 l 979 494 l 817 494 l 788 465 l 788 408 l 688 408 l 688 494 l 775 583 l 1019 583 l 1108 494 l 1108 336 l 1065 293 l 1108 250 l 1108 89 l 1019 0 l 771 0 l 682 89 m 857 972 l 300 0 l 192 0 l 749 972 l 857 972 m 203 861 l 76 794 l 76 892 l 224 972 l 303 972 l 303 389 l 203 389 l 203 861 z "},"⅔":{"ha":1344,"x_min":76,"x_max":1268,"o":"m 79 510 l 388 792 l 388 854 l 358 883 l 206 883 l 176 854 l 176 793 l 76 793 l 76 883 l 165 972 l 400 972 l 488 883 l 488 758 l 183 486 l 183 475 l 492 475 l 492 389 l 79 389 l 79 510 m 842 89 l 842 175 l 943 175 l 943 118 l 972 89 l 1139 89 l 1168 118 l 1168 221 l 1139 249 l 965 249 l 965 338 l 1139 338 l 1168 367 l 1168 465 l 1139 494 l 976 494 l 947 465 l 947 408 l 847 408 l 847 494 l 935 583 l 1179 583 l 1268 494 l 1268 336 l 1225 293 l 1268 250 l 1268 89 l 1179 0 l 931 0 l 842 89 m 1017 972 l 460 0 l 351 0 l 908 972 l 1017 972 z "},"¼":{"ha":1125,"x_min":76,"x_max":1049,"o":"m 878 110 l 588 110 l 588 222 l 853 583 l 978 583 l 978 199 l 1049 199 l 1049 110 l 978 110 l 978 0 l 878 0 l 878 110 m 883 196 l 883 469 l 881 469 l 690 213 l 690 196 l 883 196 m 874 972 l 317 0 l 208 0 l 765 972 l 874 972 m 203 861 l 76 794 l 76 892 l 224 972 l 303 972 l 303 389 l 203 389 l 203 861 z "},"¾":{"ha":1268,"x_min":76,"x_max":1192,"o":"m 76 478 l 76 564 l 178 564 l 178 507 l 207 478 l 374 478 l 403 507 l 403 610 l 374 638 l 200 638 l 200 726 l 374 726 l 403 756 l 403 854 l 374 883 l 211 883 l 182 854 l 182 797 l 82 797 l 82 883 l 169 972 l 414 972 l 503 883 l 503 725 l 460 682 l 503 639 l 503 478 l 414 389 l 165 389 l 76 478 m 1021 110 l 731 110 l 731 222 l 996 583 l 1121 583 l 1121 199 l 1192 199 l 1192 110 l 1121 110 l 1121 0 l 1021 0 l 1021 110 m 1026 196 l 1026 469 l 1024 469 l 833 213 l 833 196 l 1026 196 m 1021 972 l 464 0 l 356 0 l 913 972 l 1021 972 z "},"⅛":{"ha":1204,"x_min":76,"x_max":1128,"o":"m 685 90 l 685 250 l 738 303 l 693 346 l 693 496 l 782 585 l 1031 585 l 1119 496 l 1119 346 l 1075 303 l 1128 250 l 1128 90 l 1039 1 l 774 1 l 685 90 m 989 340 l 1019 371 l 1019 465 l 989 496 l 825 496 l 794 465 l 794 371 l 825 340 l 989 340 m 997 90 l 1028 121 l 1028 225 l 997 254 l 817 254 l 786 225 l 786 121 l 817 90 l 997 90 m 857 972 l 300 0 l 192 0 l 749 972 l 857 972 m 203 861 l 76 794 l 76 892 l 224 972 l 303 972 l 303 389 l 203 389 l 203 861 z "},"⅜":{"ha":1356,"x_min":76,"x_max":1279,"o":"m 76 478 l 76 564 l 178 564 l 178 507 l 207 478 l 374 478 l 403 507 l 403 610 l 374 638 l 200 638 l 200 726 l 374 726 l 403 756 l 403 854 l 374 883 l 211 883 l 182 854 l 182 797 l 82 797 l 82 883 l 169 972 l 414 972 l 503 883 l 503 725 l 460 682 l 503 639 l 503 478 l 414 389 l 165 389 l 76 478 m 836 90 l 836 250 l 889 303 l 844 346 l 844 496 l 933 585 l 1182 585 l 1271 496 l 1271 346 l 1226 303 l 1279 250 l 1279 90 l 1190 1 l 925 1 l 836 90 m 1140 340 l 1171 371 l 1171 465 l 1140 496 l 976 496 l 946 465 l 946 371 l 976 340 l 1140 340 m 1149 90 l 1179 121 l 1179 225 l 1149 254 l 968 254 l 938 225 l 938 121 l 968 90 l 1149 90 m 1021 972 l 464 0 l 356 0 l 913 972 l 1021 972 z "},"⅝":{"ha":1344,"x_min":76,"x_max":1268,"o":"m 76 478 l 76 569 l 176 569 l 176 507 l 206 478 l 372 478 l 401 507 l 401 646 l 372 675 l 85 675 l 85 972 l 490 972 l 490 883 l 185 883 l 185 764 l 413 764 l 501 675 l 501 478 l 413 389 l 165 389 l 76 478 m 825 90 l 825 250 l 878 303 l 833 346 l 833 496 l 922 585 l 1171 585 l 1260 496 l 1260 346 l 1215 303 l 1268 250 l 1268 90 l 1179 1 l 914 1 l 825 90 m 1129 340 l 1160 371 l 1160 465 l 1129 496 l 965 496 l 935 465 l 935 371 l 965 340 l 1129 340 m 1138 90 l 1168 121 l 1168 225 l 1138 254 l 957 254 l 926 225 l 926 121 l 957 90 l 1138 90 m 1010 972 l 453 0 l 344 0 l 901 972 l 1010 972 z "},"⅞":{"ha":1233,"x_min":76,"x_max":1157,"o":"m 376 871 l 376 883 l 76 883 l 76 972 l 482 972 l 482 867 l 247 389 l 142 389 l 376 871 m 714 90 l 714 250 l 767 303 l 722 346 l 722 496 l 811 585 l 1060 585 l 1149 496 l 1149 346 l 1104 303 l 1157 250 l 1157 90 l 1068 1 l 803 1 l 714 90 m 1018 340 l 1049 371 l 1049 465 l 1018 496 l 854 496 l 824 465 l 824 371 l 854 340 l 1018 340 m 1026 90 l 1057 121 l 1057 225 l 1026 254 l 846 254 l 815 225 l 815 121 l 846 90 l 1026 90 m 875 972 l 318 0 l 210 0 l 767 972 l 875 972 z "},"๐":{"ha":881,"x_min":90,"x_max":790,"o":"m 90 128 l 90 532 l 218 660 l 663 660 l 790 532 l 790 128 l 663 0 l 218 0 l 90 128 m 618 92 l 688 161 l 688 496 l 615 568 l 265 568 l 193 496 l 193 161 l 263 92 l 618 92 z "},"๑":{"ha":878,"x_min":90,"x_max":788,"o":"m 586 -19 l 685 79 l 685 494 l 611 568 l 267 568 l 193 494 l 193 153 l 260 86 l 318 86 l 283 126 l 283 203 l 369 289 l 469 289 l 558 200 l 558 101 l 456 0 l 201 0 l 90 114 l 90 531 l 218 660 l 660 660 l 788 531 l 788 47 l 654 -86 l 586 -19 m 447 86 l 483 124 l 483 181 l 447 217 l 396 217 l 358 181 l 358 132 l 401 86 l 447 86 z "},"๒":{"ha":1021,"x_min":97,"x_max":931,"o":"m 97 125 l 97 931 l 200 931 l 200 161 l 269 92 l 758 92 l 828 161 l 828 511 l 772 567 l 740 567 l 639 454 l 524 568 l 460 568 l 399 507 l 399 464 l 492 464 l 574 382 l 574 282 l 492 200 l 383 200 l 301 282 l 301 533 l 422 660 l 550 660 l 639 567 l 719 660 l 819 660 l 931 546 l 931 125 l 806 0 l 222 0 l 97 125 m 465 269 l 499 303 l 499 361 l 465 394 l 410 394 l 376 361 l 376 303 l 410 269 l 465 269 z "},"๓":{"ha":1017,"x_min":97,"x_max":919,"o":"m 97 82 l 97 532 l 225 660 l 446 660 l 524 581 l 603 660 l 794 660 l 919 535 l 919 0 l 817 0 l 817 501 l 750 568 l 639 568 l 574 504 l 574 0 l 474 0 l 474 504 l 408 568 l 269 568 l 200 499 l 200 264 l 288 264 l 369 182 l 369 82 l 288 0 l 179 0 l 97 82 m 261 69 l 294 103 l 294 161 l 261 194 l 206 194 l 172 161 l 172 103 l 206 69 l 261 69 z "},"๔":{"ha":908,"x_min":90,"x_max":901,"o":"m 90 128 l 90 532 l 218 660 l 707 660 l 835 786 l 901 719 l 753 568 l 265 568 l 193 496 l 193 161 l 263 92 l 490 92 l 386 243 l 386 367 l 468 449 l 576 449 l 658 367 l 658 267 l 576 185 l 529 185 l 593 92 l 835 92 l 835 0 l 218 0 l 90 128 m 550 254 l 583 288 l 583 346 l 550 379 l 494 379 l 461 346 l 461 288 l 494 254 l 550 254 z "},"๕":{"ha":908,"x_min":90,"x_max":901,"o":"m 593 92 l 835 92 l 835 0 l 218 0 l 90 128 l 90 532 l 218 660 l 363 660 l 342 681 l 342 761 l 424 843 l 518 843 l 600 761 l 600 681 l 579 660 l 707 660 l 835 786 l 901 719 l 753 568 l 265 568 l 193 496 l 193 161 l 263 92 l 490 92 l 386 243 l 386 367 l 468 449 l 576 449 l 658 367 l 658 267 l 576 185 l 529 185 l 593 92 m 414 693 l 447 660 l 494 660 l 528 693 l 528 743 l 494 776 l 447 776 l 414 743 l 414 693 m 494 254 l 550 254 l 583 288 l 583 346 l 550 379 l 494 379 l 461 346 l 461 288 l 494 254 z "},"๖":{"ha":860,"x_min":7,"x_max":769,"o":"m 108 101 l 108 197 l 197 286 l 297 286 l 383 200 l 383 126 l 347 86 l 593 86 l 667 160 l 667 500 l 599 568 l 156 568 l 7 719 l 74 786 l 201 660 l 646 660 l 769 536 l 769 126 l 643 0 l 211 0 l 108 101 m 265 86 l 308 132 l 308 178 l 271 214 l 219 214 l 183 178 l 183 124 l 219 86 l 265 86 z "},"๗":{"ha":1196,"x_min":97,"x_max":1099,"o":"m 97 82 l 97 532 l 225 660 l 426 660 l 504 581 l 583 660 l 756 660 l 881 535 l 881 89 l 951 89 l 996 133 l 996 931 l 1099 931 l 1099 100 l 999 0 l 778 0 l 778 501 l 711 568 l 619 568 l 554 504 l 554 0 l 454 0 l 454 504 l 389 568 l 269 568 l 200 499 l 200 264 l 288 264 l 369 182 l 369 82 l 288 0 l 179 0 l 97 82 m 261 69 l 294 103 l 294 161 l 261 194 l 206 194 l 172 161 l 172 103 l 206 69 l 261 69 z "},"๘":{"ha":931,"x_min":90,"x_max":868,"o":"m 90 114 l 90 532 l 218 660 l 674 660 l 801 786 l 868 719 l 719 568 l 265 568 l 193 496 l 193 147 l 249 92 l 300 92 l 431 246 l 575 92 l 699 92 l 754 147 l 754 174 l 658 174 l 579 253 l 579 353 l 661 435 l 769 435 l 851 353 l 851 128 l 724 0 l 542 0 l 431 121 l 328 0 l 204 0 l 90 114 m 743 240 l 776 274 l 776 332 l 743 365 l 688 365 l 654 332 l 654 274 l 688 240 l 743 240 z "},"๙":{"ha":896,"x_min":90,"x_max":896,"o":"m 563 496 l 850 50 l 776 -6 l 406 568 l 263 568 l 193 500 l 193 153 l 260 86 l 319 86 l 283 126 l 283 203 l 369 289 l 469 289 l 558 200 l 558 101 l 456 0 l 201 0 l 90 114 l 90 532 l 218 660 l 457 660 l 513 572 l 601 660 l 708 660 l 833 785 l 896 721 l 749 574 l 640 574 l 563 496 m 358 132 l 401 86 l 447 86 l 483 124 l 483 181 l 447 217 l 396 217 l 358 181 l 358 132 z "},".":{"ha":286,"x_min":72,"x_max":214,"o":"m 72 40 l 72 101 l 113 142 l 174 142 l 214 101 l 214 40 l 174 0 l 113 0 l 72 40 z "},",":{"ha":286,"x_min":72,"x_max":214,"o":"m 129 0 l 113 0 l 72 40 l 72 101 l 113 142 l 174 142 l 214 101 l 214 0 l 144 -172 l 88 -172 l 129 0 z "},":":{"ha":286,"x_min":72,"x_max":214,"o":"m 72 535 l 72 596 l 113 636 l 174 636 l 214 596 l 214 535 l 174 494 l 113 494 l 72 535 m 72 40 l 72 101 l 113 142 l 174 142 l 214 101 l 214 40 l 174 0 l 113 0 l 72 40 z "},";":{"ha":286,"x_min":72,"x_max":214,"o":"m 72 535 l 72 596 l 113 636 l 174 636 l 214 596 l 214 535 l 174 494 l 113 494 l 72 535 m 129 0 l 113 0 l 72 40 l 72 101 l 113 142 l 174 142 l 214 101 l 214 0 l 144 -172 l 88 -172 l 129 0 z "},"…":{"ha":858,"x_min":72,"x_max":786,"o":"m 72 40 l 72 101 l 113 142 l 174 142 l 214 101 l 214 40 l 174 0 l 113 0 l 72 40 m 358 40 l 358 101 l 399 142 l 460 142 l 500 101 l 500 40 l 460 0 l 399 0 l 358 40 m 644 40 l 644 101 l 685 142 l 746 142 l 786 101 l 786 40 l 746 0 l 685 0 l 644 40 z "},"!":{"ha":339,"x_min":104,"x_max":235,"o":"m 117 786 l 117 972 l 222 972 l 222 786 l 201 225 l 138 225 l 117 786 m 104 38 l 104 93 l 142 131 l 197 131 l 235 93 l 235 38 l 197 0 l 142 0 l 104 38 z "},"¡":{"ha":339,"x_min":104,"x_max":235,"o":"m 197 692 l 235 654 l 235 599 l 197 561 l 142 561 l 104 599 l 104 654 l 142 692 l 197 692 m 201 467 l 222 -94 l 222 -281 l 117 -281 l 117 -94 l 138 467 l 201 467 z "},"?":{"ha":739,"x_min":56,"x_max":663,"o":"m 310 436 l 560 678 l 560 788 l 465 881 l 247 881 l 158 793 l 158 736 l 56 736 l 56 825 l 203 972 l 510 972 l 663 819 l 663 650 l 410 406 l 410 224 l 310 224 l 310 436 m 294 38 l 294 93 l 332 131 l 388 131 l 425 93 l 425 38 l 388 0 l 332 0 l 294 38 z "},"¿":{"ha":739,"x_min":76,"x_max":683,"o":"m 444 654 l 444 599 l 407 561 l 351 561 l 314 599 l 314 654 l 351 692 l 407 692 l 444 654 m 429 256 l 179 14 l 179 -96 l 274 -189 l 492 -189 l 581 -101 l 581 -44 l 683 -44 l 683 -133 l 536 -281 l 229 -281 l 76 -128 l 76 42 l 329 286 l 329 468 l 429 468 l 429 256 z "},"·":{"ha":286,"x_min":72,"x_max":214,"o":"m 72 324 l 72 385 l 113 425 l 174 425 l 214 385 l 214 324 l 174 283 l 113 283 l 72 324 z "},"•":{"ha":464,"x_min":76,"x_max":388,"o":"m 76 336 l 76 471 l 161 558 l 303 558 l 388 471 l 388 336 l 303 249 l 161 249 l 76 336 z "},"*":{"ha":472,"x_min":76,"x_max":396,"o":"m 208 767 l 117 694 l 76 764 l 183 811 l 76 857 l 117 926 l 208 854 l 196 974 l 276 974 l 261 854 l 356 926 l 396 857 l 288 811 l 396 764 l 356 694 l 261 767 l 276 649 l 196 649 l 208 767 z "},"#":{"ha":954,"x_min":76,"x_max":878,"o":"m 710 613 l 667 365 l 850 365 l 850 278 l 651 278 l 604 0 l 506 0 l 553 278 l 322 278 l 275 0 l 176 0 l 224 278 l 76 278 l 76 365 l 239 365 l 282 613 l 104 613 l 104 700 l 296 700 l 343 972 l 442 972 l 394 700 l 625 700 l 672 972 l 771 972 l 724 700 l 878 700 l 878 613 l 710 613 m 611 613 l 381 613 l 338 365 l 568 365 l 611 613 z "},"/":{"ha":646,"x_min":0,"x_max":646,"o":"m 538 974 l 646 974 l 108 0 l 0 0 l 538 974 z "},"\\":{"ha":667,"x_min":0,"x_max":667,"o":"m 0 972 l 108 972 l 667 0 l 558 0 l 0 972 z "},"₍":{"ha":310,"x_min":76,"x_max":282,"o":"m 76 -204 l 76 392 l 163 478 l 282 478 l 282 392 l 207 392 l 174 358 l 174 -171 l 207 -204 l 282 -204 l 282 -290 l 163 -290 l 76 -204 z "},"₎":{"ha":310,"x_min":28,"x_max":233,"o":"m 28 -290 l 28 -204 l 103 -204 l 136 -171 l 136 358 l 103 392 l 28 392 l 28 478 l 147 478 l 233 392 l 233 -204 l 147 -290 l 28 -290 z "},"(":{"ha":429,"x_min":111,"x_max":394,"o":"m 111 -35 l 111 1006 l 239 1133 l 394 1133 l 394 1042 l 283 1042 l 214 974 l 214 -3 l 283 -71 l 394 -71 l 394 -162 l 239 -162 l 111 -35 z "},")":{"ha":429,"x_min":35,"x_max":318,"o":"m 35 -162 l 35 -71 l 146 -71 l 215 -3 l 215 974 l 146 1042 l 35 1042 l 35 1133 l 190 1133 l 318 1006 l 318 -35 l 190 -162 l 35 -162 z "},"{":{"ha":478,"x_min":63,"x_max":443,"o":"m 171 -35 l 171 343 l 63 454 l 63 518 l 171 629 l 171 1006 l 299 1133 l 443 1133 l 443 1042 l 343 1042 l 274 974 l 274 596 l 172 492 l 172 481 l 274 376 l 274 -3 l 343 -71 l 443 -71 l 443 -162 l 299 -162 l 171 -35 z "},"}":{"ha":478,"x_min":35,"x_max":415,"o":"m 35 -162 l 35 -71 l 135 -71 l 204 -3 l 204 376 l 306 481 l 306 492 l 204 596 l 204 974 l 135 1042 l 35 1042 l 35 1133 l 179 1133 l 307 1006 l 307 629 l 415 518 l 415 454 l 307 343 l 307 -35 l 179 -162 l 35 -162 z "},"[":{"ha":429,"x_min":111,"x_max":394,"o":"m 111 1133 l 394 1133 l 394 1044 l 214 1044 l 214 -74 l 394 -74 l 394 -162 l 111 -162 l 111 1133 z "},"]":{"ha":429,"x_min":35,"x_max":318,"o":"m 35 -162 l 35 -74 l 215 -74 l 215 1044 l 35 1044 l 35 1133 l 318 1133 l 318 -162 l 35 -162 z "},"⁽":{"ha":310,"x_min":76,"x_max":282,"o":"m 76 375 l 76 971 l 163 1057 l 282 1057 l 282 971 l 207 971 l 174 938 l 174 408 l 207 375 l 282 375 l 282 289 l 163 289 l 76 375 z "},"⁾":{"ha":310,"x_min":28,"x_max":233,"o":"m 28 289 l 28 375 l 103 375 l 136 408 l 136 938 l 103 971 l 28 971 l 28 1057 l 147 1057 l 233 971 l 233 375 l 147 289 l 28 289 z "},"-":{"ha":558,"x_min":76,"x_max":482,"o":"m 76 399 l 482 399 l 482 307 l 76 307 l 76 399 z "},"­":{"ha":558,"x_min":76,"x_max":482,"o":"m 76 399 l 482 399 l 482 307 l 76 307 l 76 399 z "},"–":{"ha":865,"x_min":76,"x_max":789,"o":"m 76 399 l 789 399 l 789 307 l 76 307 l 76 399 z "},"—":{"ha":1010,"x_min":76,"x_max":933,"o":"m 76 399 l 933 399 l 933 307 l 76 307 l 76 399 z "},"‒":{"ha":831,"x_min":76,"x_max":754,"o":"m 76 399 l 754 399 l 754 307 l 76 307 l 76 399 z "},"―":{"ha":1314,"x_min":76,"x_max":1238,"o":"m 76 399 l 1238 399 l 1238 307 l 76 307 l 76 399 z "},"‐":{"ha":964,"x_min":76,"x_max":888,"o":"m 76 399 l 888 399 l 888 307 l 76 307 l 76 399 z "},"_":{"ha":586,"x_min":0,"x_max":586,"o":"m 0 -14 l 586 -14 l 586 -103 l 0 -103 l 0 -14 z "},"‚":{"ha":286,"x_min":72,"x_max":214,"o":"m 129 0 l 113 0 l 72 40 l 72 101 l 113 142 l 174 142 l 214 101 l 214 0 l 144 -172 l 88 -172 l 129 0 z "},"„":{"ha":493,"x_min":72,"x_max":421,"o":"m 129 0 l 113 0 l 72 40 l 72 101 l 113 142 l 174 142 l 214 101 l 214 0 l 144 -172 l 88 -172 l 129 0 m 336 0 l 319 0 l 279 40 l 279 101 l 319 142 l 381 142 l 421 101 l 421 0 l 351 -172 l 294 -172 l 336 0 z "},"“":{"ha":493,"x_min":72,"x_max":421,"o":"m 157 800 l 174 800 l 214 760 l 214 699 l 174 658 l 113 658 l 72 699 l 72 800 l 142 972 l 199 972 l 157 800 m 364 800 l 381 800 l 421 760 l 421 699 l 381 658 l 319 658 l 279 699 l 279 800 l 349 972 l 406 972 l 364 800 z "},"”":{"ha":493,"x_min":72,"x_max":421,"o":"m 129 831 l 113 831 l 72 871 l 72 932 l 113 972 l 174 972 l 214 932 l 214 831 l 144 658 l 88 658 l 129 831 m 336 831 l 319 831 l 279 871 l 279 932 l 319 972 l 381 972 l 421 932 l 421 831 l 351 658 l 294 658 l 336 831 z "},"‘":{"ha":286,"x_min":72,"x_max":214,"o":"m 157 800 l 174 800 l 214 760 l 214 699 l 174 658 l 113 658 l 72 699 l 72 800 l 142 972 l 199 972 l 157 800 z "},"’":{"ha":286,"x_min":72,"x_max":214,"o":"m 129 831 l 113 831 l 72 871 l 72 932 l 113 972 l 174 972 l 214 932 l 214 831 l 144 658 l 88 658 l 129 831 z "},"«":{"ha":717,"x_min":49,"x_max":640,"o":"m 49 328 l 49 419 l 344 672 l 344 550 l 143 378 l 143 369 l 344 197 l 344 75 l 49 328 m 344 328 l 344 419 l 640 672 l 640 550 l 439 378 l 439 369 l 640 197 l 640 75 l 344 328 z "},"»":{"ha":717,"x_min":76,"x_max":668,"o":"m 76 197 l 278 369 l 278 378 l 76 550 l 76 672 l 372 419 l 372 328 l 76 75 l 76 197 m 372 197 l 574 369 l 574 378 l 372 550 l 372 672 l 668 419 l 668 328 l 372 75 l 372 197 z "},"‹":{"ha":421,"x_min":49,"x_max":344,"o":"m 49 328 l 49 419 l 344 672 l 344 550 l 143 378 l 143 369 l 344 197 l 344 75 l 49 328 z "},"›":{"ha":421,"x_min":76,"x_max":372,"o":"m 76 197 l 278 369 l 278 378 l 76 550 l 76 672 l 372 419 l 372 328 l 76 75 l 76 197 z "},"\"":{"ha":472,"x_min":83,"x_max":389,"o":"m 83 814 l 83 972 l 189 972 l 189 814 l 167 639 l 106 639 l 83 814 m 283 814 l 283 972 l 389 972 l 389 814 l 367 639 l 306 639 l 283 814 z "},"'":{"ha":272,"x_min":83,"x_max":189,"o":"m 83 814 l 83 972 l 189 972 l 189 814 l 167 639 l 106 639 l 83 814 z "},"๚":{"ha":1010,"x_min":42,"x_max":906,"o":"m 506 590 l 413 492 l 143 492 l 42 593 l 42 693 l 124 775 l 232 775 l 311 696 l 311 601 l 281 568 l 336 572 l 381 572 l 508 706 l 508 775 l 608 775 l 608 558 l 672 558 l 806 692 l 806 775 l 906 775 l 906 0 l 803 0 l 803 576 l 704 478 l 608 478 l 608 0 l 506 0 l 506 590 m 206 581 l 239 614 l 239 672 l 206 706 l 150 706 l 117 672 l 117 614 l 150 581 l 206 581 z "},"๏":{"ha":863,"x_min":76,"x_max":786,"o":"m 76 244 l 76 531 l 288 742 l 575 742 l 786 531 l 786 244 l 575 35 l 288 35 l 76 244 m 533 126 l 692 283 l 692 492 l 533 650 l 329 650 l 171 492 l 171 283 l 329 126 l 533 126 m 261 317 l 261 458 l 361 558 l 501 558 l 601 458 l 601 317 l 503 218 l 360 218 l 261 317 m 467 304 l 515 351 l 515 424 l 465 472 l 397 472 l 347 424 l 347 351 l 396 304 l 467 304 z "},"๛":{"ha":1614,"x_min":76,"x_max":1565,"o":"m 76 200 l 76 569 l 201 694 l 465 694 l 565 594 l 565 329 l 475 247 l 367 247 l 285 329 l 285 429 l 367 511 l 443 511 l 476 479 l 479 479 l 476 521 l 476 549 l 419 603 l 246 603 l 176 533 l 176 236 l 246 167 l 575 167 l 642 233 l 754 593 l 847 593 l 960 300 l 1043 565 l 1124 565 l 1215 326 l 1293 538 l 1368 538 l 1425 419 l 1565 419 l 1565 342 l 1383 342 l 1336 444 l 1251 222 l 1174 222 l 1085 454 l 1003 194 l 915 194 l 807 474 l 726 190 l 611 75 l 201 75 l 76 200 m 449 317 l 482 350 l 482 408 l 449 442 l 393 442 l 360 408 l 360 350 l 393 317 l 449 317 z "},"ๆ":{"ha":693,"x_min":49,"x_max":582,"o":"m 479 668 l 450 700 l 431 700 l 344 621 l 254 700 l 193 700 l 139 646 l 231 646 l 310 567 l 310 475 l 231 396 l 128 396 l 49 475 l 49 656 l 171 789 l 271 789 l 344 721 l 414 789 l 503 789 l 582 701 l 582 -153 l 479 -153 l 479 668 m 203 463 l 238 497 l 238 547 l 203 582 l 156 582 l 121 550 l 121 497 l 156 463 l 203 463 z "},"ฯ":{"ha":713,"x_min":42,"x_max":608,"o":"m 506 590 l 413 492 l 143 492 l 42 593 l 42 693 l 124 775 l 232 775 l 311 696 l 311 601 l 281 568 l 336 572 l 381 572 l 508 706 l 508 775 l 608 775 l 608 0 l 506 0 l 506 590 m 206 581 l 239 614 l 239 672 l 206 706 l 150 706 l 117 672 l 117 614 l 150 581 l 206 581 z "}," ":{"ha":872,"x_min":0,"x_max":0,"o":""}," ":{"ha":339,"x_min":0,"x_max":0,"o":""},"฿":{"ha":897,"x_min":111,"x_max":828,"o":"m 828 399 l 828 136 l 692 0 l 493 0 l 493 -153 l 396 -153 l 396 0 l 111 0 l 111 972 l 396 972 l 396 1125 l 493 1125 l 493 972 l 657 972 l 785 844 l 785 575 l 718 508 l 828 399 m 214 533 l 396 533 l 396 881 l 214 881 l 214 533 m 493 881 l 493 533 l 613 533 l 682 603 l 682 813 l 613 881 l 493 881 m 396 92 l 396 444 l 214 444 l 214 92 l 396 92 m 725 365 l 644 444 l 493 444 l 493 92 l 644 92 l 725 171 l 725 365 z "},"₵":{"ha":876,"x_min":97,"x_max":814,"o":"m 708 736 l 708 790 l 619 878 l 521 878 l 521 94 l 619 94 l 708 182 l 708 236 l 814 236 l 814 147 l 667 0 l 521 0 l 521 -153 l 424 -153 l 424 0 l 250 0 l 97 153 l 97 819 l 250 972 l 424 972 l 424 1125 l 521 1125 l 521 972 l 667 972 l 814 825 l 814 736 l 708 736 m 424 878 l 297 878 l 203 785 l 203 188 l 297 94 l 424 94 l 424 878 z "},"¢":{"ha":742,"x_min":90,"x_max":679,"o":"m 576 479 l 576 532 l 507 600 l 263 600 l 193 532 l 193 160 l 263 92 l 507 92 l 576 160 l 576 213 l 679 213 l 679 128 l 551 0 l 436 0 l 436 -139 l 336 -139 l 336 0 l 218 0 l 90 128 l 90 564 l 218 692 l 336 692 l 336 831 l 436 831 l 436 692 l 551 692 l 679 564 l 679 479 l 576 479 z "},"₡":{"ha":876,"x_min":97,"x_max":814,"o":"m 708 736 l 708 790 l 692 807 l 538 94 l 619 94 l 708 182 l 708 236 l 814 236 l 814 147 l 667 0 l 517 0 l 483 -153 l 386 -153 l 419 0 l 296 0 l 263 -153 l 165 -153 l 208 42 l 97 153 l 97 819 l 250 972 l 410 972 l 443 1125 l 540 1125 l 507 972 l 631 972 l 664 1125 l 761 1125 l 717 922 l 814 825 l 814 736 l 708 736 m 233 158 l 389 878 l 297 878 l 203 785 l 203 188 l 233 158 m 440 94 l 610 878 l 486 878 l 317 94 l 440 94 z "},"¤":{"ha":882,"x_min":76,"x_max":806,"o":"m 703 265 l 806 161 l 742 97 l 640 201 l 604 164 l 279 164 l 242 201 l 140 97 l 76 161 l 179 265 l 143 303 l 143 633 l 179 669 l 76 774 l 140 838 l 243 733 l 279 769 l 604 769 l 640 733 l 742 838 l 806 774 l 703 671 l 740 633 l 740 303 l 703 265 m 643 324 l 643 610 l 571 681 l 313 681 l 240 610 l 240 324 l 313 253 l 571 253 l 643 324 z "},"$":{"ha":851,"x_min":90,"x_max":768,"o":"m 768 418 l 768 131 l 638 0 l 486 0 l 486 -153 l 389 -153 l 389 0 l 218 0 l 90 128 l 90 217 l 194 217 l 194 163 l 261 94 l 389 94 l 389 451 l 221 451 l 93 579 l 93 844 l 221 972 l 389 972 l 389 1125 l 486 1125 l 486 972 l 629 972 l 757 844 l 757 754 l 654 754 l 654 810 l 585 878 l 486 878 l 486 546 l 640 546 l 768 418 m 389 546 l 389 878 l 267 878 l 197 810 l 197 614 l 267 546 l 389 546 m 664 383 l 594 451 l 486 451 l 486 94 l 594 94 l 664 165 l 664 383 z "},"₫":{"ha":819,"x_min":90,"x_max":806,"o":"m 806 810 l 701 810 l 701 0 l 601 0 l 601 126 l 475 0 l 218 0 l 90 128 l 90 564 l 218 692 l 485 692 l 599 592 l 599 810 l 379 810 l 379 893 l 599 893 l 599 992 l 701 992 l 701 893 l 806 893 l 806 810 m 599 483 l 465 600 l 263 600 l 193 532 l 193 160 l 263 92 l 453 92 l 599 238 l 599 483 m 139 -97 l 667 -97 l 667 -183 l 139 -183 l 139 -97 z "},"€":{"ha":939,"x_min":42,"x_max":876,"o":"m 771 736 l 771 790 l 682 878 l 360 878 l 265 785 l 265 622 l 600 622 l 600 536 l 265 536 l 265 425 l 600 425 l 600 339 l 265 339 l 265 188 l 360 94 l 682 94 l 771 182 l 771 236 l 876 236 l 876 147 l 729 0 l 313 0 l 160 153 l 160 339 l 42 339 l 42 425 l 160 425 l 160 536 l 42 536 l 42 622 l 160 622 l 160 819 l 313 972 l 729 972 l 876 825 l 876 736 l 771 736 z "},"ƒ":{"ha":835,"x_min":49,"x_max":786,"o":"m 540 817 l 503 636 l 772 636 l 772 544 l 485 544 l 392 90 l 271 -31 l 49 -31 l 49 58 l 228 58 l 296 125 l 378 544 l 160 544 l 160 636 l 396 636 l 438 846 l 558 967 l 786 967 l 786 878 l 603 878 l 540 817 z "},"₲":{"ha":906,"x_min":97,"x_max":822,"o":"m 717 736 l 717 790 l 628 878 l 521 878 l 521 507 l 822 507 l 822 147 l 675 0 l 521 0 l 521 -153 l 424 -153 l 424 0 l 250 0 l 97 153 l 97 819 l 250 972 l 424 972 l 424 1125 l 521 1125 l 521 972 l 675 972 l 822 825 l 822 736 l 717 736 m 424 878 l 297 878 l 203 785 l 203 188 l 297 94 l 424 94 l 424 878 m 521 413 l 521 94 l 628 94 l 717 182 l 717 413 l 521 413 z "},"₤":{"ha":844,"x_min":76,"x_max":796,"o":"m 796 92 l 796 0 l 100 0 l 100 171 l 206 290 l 206 351 l 76 351 l 76 438 l 206 438 l 206 521 l 76 521 l 76 607 l 206 607 l 206 819 l 358 972 l 646 972 l 779 839 l 779 750 l 676 750 l 676 804 l 601 878 l 406 878 l 311 785 l 311 607 l 646 607 l 646 521 l 311 521 l 311 438 l 646 438 l 646 351 l 311 351 l 311 267 l 206 147 l 206 92 l 796 92 z "},"₺":{"ha":849,"x_min":76,"x_max":793,"o":"m 793 389 l 793 244 l 549 0 l 215 0 l 215 396 l 76 353 l 76 439 l 215 482 l 215 593 l 76 550 l 76 636 l 215 679 l 215 972 l 321 972 l 321 713 l 565 789 l 565 703 l 321 626 l 321 515 l 565 592 l 565 506 l 321 429 l 321 94 l 510 94 l 690 274 l 690 389 l 793 389 z "},"₦":{"ha":1056,"x_min":35,"x_max":1021,"o":"m 1021 449 l 886 449 l 886 0 l 783 0 l 499 449 l 274 449 l 274 0 l 174 0 l 174 449 l 35 449 l 35 535 l 174 535 l 174 972 l 276 972 l 554 535 l 786 535 l 786 972 l 886 972 l 886 535 l 1021 535 l 1021 449 m 444 535 l 276 800 l 274 800 l 274 535 l 444 535 m 786 449 l 608 449 l 783 172 l 786 172 l 786 449 z "},"₧":{"ha":1003,"x_min":35,"x_max":968,"o":"m 968 643 l 843 643 l 843 532 l 714 403 l 265 403 l 265 0 l 160 0 l 160 643 l 35 643 l 35 729 l 160 729 l 160 972 l 715 972 l 843 844 l 843 729 l 968 729 l 968 643 m 265 729 l 739 729 l 739 813 l 669 881 l 265 881 l 265 729 m 739 643 l 265 643 l 265 494 l 669 494 l 739 563 l 739 643 z "},"₱":{"ha":1003,"x_min":35,"x_max":968,"o":"m 843 729 l 843 643 l 968 643 l 968 560 l 843 560 l 843 532 l 714 403 l 265 403 l 265 0 l 160 0 l 160 560 l 35 560 l 35 643 l 160 643 l 160 729 l 35 729 l 35 813 l 160 813 l 160 972 l 715 972 l 843 844 l 843 813 l 968 813 l 968 729 l 843 729 m 265 813 l 739 813 l 669 881 l 265 881 l 265 813 m 739 729 l 265 729 l 265 643 l 739 643 l 739 729 m 736 560 l 265 560 l 265 494 l 669 494 l 736 560 z "},"₽":{"ha":926,"x_min":35,"x_max":857,"o":"m 857 844 l 857 532 l 728 403 l 279 403 l 279 260 l 551 260 l 551 174 l 279 174 l 279 0 l 174 0 l 174 174 l 35 174 l 35 260 l 174 260 l 174 403 l 35 403 l 35 489 l 174 489 l 174 972 l 729 972 l 857 844 m 753 813 l 683 881 l 279 881 l 279 494 l 683 494 l 753 563 l 753 813 z "},"₹":{"ha":897,"x_min":76,"x_max":821,"o":"m 821 889 l 596 889 l 649 836 l 649 729 l 821 729 l 821 643 l 649 643 l 649 538 l 536 425 l 654 297 l 654 0 l 549 0 l 549 264 l 415 408 l 76 408 l 76 500 l 476 500 l 546 568 l 546 643 l 76 643 l 76 729 l 546 729 l 546 813 l 476 881 l 76 881 l 76 972 l 821 972 l 821 889 z "},"£":{"ha":844,"x_min":76,"x_max":796,"o":"m 796 92 l 796 0 l 100 0 l 100 171 l 206 290 l 206 435 l 76 435 l 76 524 l 206 524 l 206 819 l 358 972 l 646 972 l 779 839 l 779 750 l 676 750 l 676 804 l 601 878 l 406 878 l 311 785 l 311 524 l 646 524 l 646 435 l 311 435 l 311 267 l 206 147 l 206 92 l 796 92 z "},"¥":{"ha":822,"x_min":21,"x_max":801,"o":"m 493 454 l 686 454 l 686 368 l 464 368 l 464 260 l 686 260 l 686 174 l 464 174 l 464 0 l 358 0 l 358 174 l 150 174 l 150 260 l 358 260 l 358 368 l 150 368 l 150 454 l 329 454 l 21 972 l 135 972 l 410 501 l 413 501 l 688 972 l 801 972 l 493 454 z "},"∙":{"ha":492,"x_min":64,"x_max":428,"o":"m 64 325 l 64 482 l 163 585 l 329 585 l 428 482 l 428 325 l 329 222 l 163 222 l 64 325 z "},"∕":{"ha":172,"x_min":-226,"x_max":419,"o":"m 311 974 l 419 974 l -118 0 l -226 0 l 311 974 z "},"+":{"ha":750,"x_min":76,"x_max":674,"o":"m 674 321 l 426 321 l 426 82 l 324 82 l 324 321 l 76 321 l 76 413 l 324 413 l 324 651 l 426 651 l 426 413 l 674 413 l 674 321 z "},"−":{"ha":750,"x_min":76,"x_max":674,"o":"m 76 413 l 674 413 l 674 321 l 76 321 l 76 413 z "},"×":{"ha":667,"x_min":76,"x_max":590,"o":"m 397 367 l 590 174 l 526 110 l 333 303 l 140 110 l 76 174 l 269 367 l 76 560 l 140 624 l 333 431 l 526 624 l 590 560 l 397 367 z "},"÷":{"ha":750,"x_min":76,"x_max":674,"o":"m 303 538 l 303 599 l 344 640 l 406 640 l 447 599 l 447 538 l 406 496 l 344 496 l 303 538 m 76 413 l 674 413 l 674 321 l 76 321 l 76 413 m 303 135 l 303 196 l 344 238 l 406 238 l 447 196 l 447 135 l 406 93 l 344 93 l 303 135 z "},"=":{"ha":750,"x_min":76,"x_max":674,"o":"m 76 531 l 674 531 l 674 439 l 76 439 l 76 531 m 76 294 l 674 294 l 674 203 l 76 203 l 76 294 z "},"≠":{"ha":750,"x_min":76,"x_max":674,"o":"m 458 439 l 393 294 l 674 294 l 674 203 l 353 203 l 268 14 l 165 14 l 250 203 l 76 203 l 76 294 l 290 294 l 356 439 l 76 439 l 76 531 l 396 531 l 481 719 l 583 719 l 499 531 l 674 531 l 674 439 l 458 439 z "},">":{"ha":819,"x_min":76,"x_max":757,"o":"m 76 104 l 657 399 l 657 407 l 76 690 l 76 794 l 757 461 l 757 344 l 76 0 l 76 104 z "},"<":{"ha":819,"x_min":63,"x_max":743,"o":"m 63 344 l 63 461 l 743 794 l 743 690 l 163 407 l 163 399 l 743 104 l 743 0 l 63 344 z "},"≥":{"ha":819,"x_min":76,"x_max":757,"o":"m 76 240 l 660 482 l 660 490 l 76 721 l 76 819 l 757 544 l 757 428 l 76 142 l 76 240 m 76 89 l 757 89 l 757 0 l 76 0 l 76 89 z "},"≤":{"ha":819,"x_min":63,"x_max":743,"o":"m 63 428 l 63 544 l 743 819 l 743 721 l 160 490 l 160 482 l 743 240 l 743 142 l 63 428 m 63 0 l 63 89 l 743 89 l 743 0 l 63 0 z "},"±":{"ha":750,"x_min":76,"x_max":674,"o":"m 674 522 l 674 431 l 426 431 l 426 192 l 324 192 l 324 431 l 76 431 l 76 522 l 324 522 l 324 761 l 426 761 l 426 522 l 674 522 m 76 92 l 674 92 l 674 0 l 76 0 l 76 92 z "},"≈":{"ha":769,"x_min":76,"x_max":693,"o":"m 283 519 l 239 519 l 178 458 l 178 399 l 76 399 l 76 483 l 203 608 l 306 608 l 486 475 l 525 475 l 592 542 l 592 596 l 693 596 l 693 511 l 567 386 l 464 386 l 283 519 m 283 228 l 239 228 l 178 167 l 178 107 l 76 107 l 76 192 l 203 317 l 306 317 l 486 183 l 525 183 l 592 250 l 592 304 l 693 304 l 693 219 l 567 94 l 464 94 l 283 228 z "},"~":{"ha":781,"x_min":76,"x_max":704,"o":"m 288 400 l 242 400 l 179 338 l 179 278 l 76 278 l 76 364 l 204 492 l 310 492 l 493 356 l 533 356 l 601 424 l 601 478 l 704 478 l 704 392 l 576 264 l 471 264 l 288 400 z "},"¬":{"ha":746,"x_min":76,"x_max":669,"o":"m 569 436 l 76 436 l 76 528 l 669 528 l 669 203 l 569 203 l 569 436 z "},"^":{"ha":883,"x_min":76,"x_max":807,"o":"m 382 972 l 499 972 l 807 350 l 703 350 l 444 872 l 436 872 l 181 350 l 76 350 l 382 972 z "},"∞":{"ha":1274,"x_min":76,"x_max":1197,"o":"m 76 321 l 76 510 l 251 685 l 446 685 l 631 500 l 814 685 l 1022 685 l 1197 510 l 1197 321 l 1022 146 l 856 146 l 658 343 l 460 146 l 251 146 l 76 321 m 422 238 l 593 408 l 408 593 l 296 593 l 179 476 l 179 354 l 296 238 l 422 238 m 978 238 l 1094 354 l 1094 476 l 978 593 l 851 593 l 694 436 l 893 238 l 978 238 z "},"∫":{"ha":656,"x_min":0,"x_max":656,"o":"m 0 -86 l 115 -86 l 193 -10 l 363 846 l 483 967 l 656 967 l 656 878 l 536 878 l 464 807 l 288 -54 l 167 -175 l 0 -175 l 0 -86 z "},"∏":{"ha":935,"x_min":111,"x_max":824,"o":"m 111 972 l 824 972 l 824 -153 l 721 -153 l 721 883 l 214 883 l 214 -153 l 111 -153 l 111 972 z "},"∑":{"ha":796,"x_min":76,"x_max":747,"o":"m 76 -10 l 379 403 l 76 807 l 76 972 l 747 972 l 747 881 l 179 881 l 179 838 l 483 431 l 483 375 l 179 -40 l 179 -83 l 747 -83 l 747 -175 l 76 -175 l 76 -10 z "},"√":{"ha":818,"x_min":63,"x_max":783,"o":"m 174 331 l 63 331 l 63 419 l 246 419 l 353 122 l 361 122 l 678 972 l 783 972 l 413 0 l 300 0 l 174 331 z "},"∂":{"ha":789,"x_min":76,"x_max":713,"o":"m 76 128 l 76 481 l 204 608 l 497 608 l 610 508 l 610 625 l 449 886 l 281 886 l 281 972 l 508 972 l 713 638 l 713 128 l 585 0 l 204 0 l 76 128 m 540 92 l 610 160 l 610 397 l 475 517 l 249 517 l 179 449 l 179 160 l 249 92 l 540 92 z "},"%":{"ha":1147,"x_min":76,"x_max":1071,"o":"m 76 551 l 76 882 l 167 972 l 378 972 l 468 882 l 468 551 l 378 461 l 167 461 l 76 551 m 790 972 l 899 972 l 363 0 l 254 0 l 790 972 m 335 542 l 376 582 l 376 851 l 335 892 l 210 892 l 168 851 l 168 582 l 210 542 l 335 542 m 679 90 l 679 421 l 769 511 l 981 511 l 1071 421 l 1071 90 l 981 0 l 769 0 l 679 90 m 938 81 l 979 121 l 979 390 l 938 431 l 813 431 l 771 390 l 771 121 l 813 81 l 938 81 z "},"‰":{"ha":1635,"x_min":76,"x_max":1558,"o":"m 792 974 l 900 974 l 363 0 l 254 0 l 792 974 m 76 551 l 76 882 l 167 972 l 378 972 l 468 882 l 468 551 l 378 461 l 167 461 l 76 551 m 335 542 l 376 582 l 376 851 l 335 892 l 210 892 l 168 851 l 168 582 l 210 542 l 335 542 m 679 90 l 679 421 l 769 511 l 981 511 l 1071 421 l 1071 90 l 981 0 l 769 0 l 679 90 m 1167 90 l 1167 421 l 1257 511 l 1468 511 l 1558 421 l 1558 90 l 1468 0 l 1257 0 l 1167 90 m 938 81 l 979 121 l 979 390 l 938 431 l 813 431 l 771 390 l 771 121 l 813 81 l 938 81 m 1425 81 l 1467 121 l 1467 390 l 1425 431 l 1300 431 l 1258 390 l 1258 121 l 1300 81 l 1425 81 z "},"↑":{"ha":567,"x_min":76,"x_max":490,"o":"m 238 678 l 76 547 l 76 651 l 268 813 l 299 813 l 490 651 l 490 547 l 329 678 l 329 -47 l 238 -47 l 238 678 z "},"→":{"ha":1013,"x_min":76,"x_max":936,"o":"m 801 338 l 76 338 l 76 429 l 801 429 l 668 590 l 775 590 l 936 399 l 936 368 l 775 176 l 668 176 l 801 338 z "},"↓":{"ha":567,"x_min":76,"x_max":490,"o":"m 76 114 l 76 221 l 238 88 l 238 813 l 329 813 l 329 88 l 490 221 l 490 114 l 299 -47 l 268 -47 l 76 114 z "},"←":{"ha":1013,"x_min":76,"x_max":936,"o":"m 76 368 l 76 399 l 238 590 l 344 590 l 211 429 l 936 429 l 936 338 l 211 338 l 344 176 l 238 176 l 76 368 z "},"◆":{"ha":889,"x_min":76,"x_max":813,"o":"m 76 458 l 443 832 l 813 458 l 443 86 l 76 458 z "},"◊":{"ha":756,"x_min":76,"x_max":679,"o":"m 76 472 l 314 944 l 442 944 l 679 472 l 442 0 l 314 0 l 76 472 m 382 90 l 571 472 l 382 854 l 374 854 l 185 472 l 374 90 l 382 90 z "},"■":{"ha":819,"x_min":76,"x_max":743,"o":"m 76 838 l 743 838 l 743 165 l 76 165 l 76 838 z "},"▲":{"ha":958,"x_min":76,"x_max":882,"o":"m 479 817 l 882 0 l 76 0 l 479 817 z "},"▶":{"ha":960,"x_min":76,"x_max":883,"o":"m 76 814 l 883 406 l 76 -3 l 76 814 z "},"▼":{"ha":958,"x_min":76,"x_max":882,"o":"m 76 811 l 882 811 l 479 -7 l 76 811 z "},"◀":{"ha":960,"x_min":76,"x_max":883,"o":"m 76 406 l 883 814 l 883 -3 l 76 406 z "},"△":{"ha":958,"x_min":76,"x_max":882,"o":"m 479 817 l 882 0 l 76 0 l 479 817 m 747 79 l 479 651 l 208 79 l 747 79 z "},"▷":{"ha":960,"x_min":76,"x_max":883,"o":"m 76 814 l 883 406 l 76 -3 l 76 814 m 725 406 l 160 676 l 160 131 l 725 406 z "},"▽":{"ha":958,"x_min":76,"x_max":882,"o":"m 76 811 l 882 811 l 479 -7 l 76 811 m 747 732 l 208 732 l 479 158 l 747 732 z "},"◁":{"ha":960,"x_min":76,"x_max":883,"o":"m 76 406 l 883 814 l 883 -3 l 76 406 m 800 676 l 235 406 l 800 131 l 800 676 z "},"":{"ha":790,"x_min":111,"x_max":679,"o":"m 111 989 l 679 989 l 679 0 l 111 0 l 111 989 m 601 75 l 601 913 l 189 913 l 189 75 l 601 75 z "},"@":{"ha":1126,"x_min":76,"x_max":1050,"o":"m 694 200 l 694 240 l 606 151 l 438 151 l 314 275 l 314 528 l 439 653 l 636 653 l 697 592 l 697 650 l 786 650 l 786 240 l 871 240 l 950 319 l 950 581 l 732 799 l 394 799 l 176 581 l 176 235 l 392 19 l 949 19 l 949 -72 l 346 -72 l 76 197 l 76 618 l 349 890 l 778 890 l 1050 618 l 1050 289 l 913 151 l 743 151 l 694 200 m 689 488 l 613 564 l 476 564 l 414 501 l 414 304 l 478 240 l 586 240 l 689 343 l 689 488 z "},"&":{"ha":886,"x_min":90,"x_max":851,"o":"m 90 128 l 90 399 l 192 500 l 131 561 l 131 844 l 258 972 l 596 972 l 721 847 l 721 758 l 618 758 l 618 811 l 551 878 l 300 878 l 233 811 l 233 594 l 303 525 l 658 525 l 658 614 l 761 614 l 761 525 l 851 525 l 851 433 l 761 433 l 761 128 l 633 0 l 218 0 l 90 128 m 589 94 l 658 164 l 658 433 l 263 433 l 193 364 l 193 164 l 263 94 l 589 94 z "},"¶":{"ha":765,"x_min":76,"x_max":654,"o":"m 363 460 l 213 460 l 76 596 l 76 836 l 213 972 l 467 972 l 467 -282 l 363 -282 l 363 460 m 550 972 l 654 972 l 654 -282 l 550 -282 l 550 972 z "},"§":{"ha":725,"x_min":76,"x_max":649,"o":"m 649 358 l 568 278 l 628 217 l 628 47 l 514 -67 l 219 -67 l 106 47 l 106 133 l 208 133 l 208 76 l 264 22 l 469 22 l 525 76 l 525 189 l 469 244 l 186 244 l 76 354 l 76 547 l 156 626 l 97 685 l 97 858 l 211 972 l 507 972 l 621 858 l 621 772 l 518 772 l 518 829 l 463 883 l 256 883 l 200 829 l 200 717 l 256 661 l 535 661 l 649 547 l 649 358 m 490 331 l 546 385 l 546 519 l 490 575 l 235 575 l 179 521 l 179 386 l 235 331 l 490 331 z "},"©":{"ha":1136,"x_min":76,"x_max":1060,"o":"m 76 246 l 76 726 l 322 972 l 814 972 l 1060 726 l 1060 246 l 814 0 l 322 0 l 76 246 m 768 92 l 963 286 l 963 686 l 768 881 l 368 881 l 174 686 l 174 286 l 368 92 l 768 92 m 289 342 l 289 632 l 436 779 l 700 779 l 847 632 l 847 544 l 750 544 l 750 607 l 667 690 l 475 690 l 389 604 l 389 369 l 475 283 l 664 283 l 750 367 l 750 433 l 847 433 l 847 342 l 700 194 l 436 194 l 289 342 z "},"®":{"ha":732,"x_min":76,"x_max":656,"o":"m 76 554 l 76 814 l 235 972 l 497 972 l 656 814 l 656 554 l 497 396 l 235 396 l 76 554 m 463 465 l 581 582 l 581 786 l 463 903 l 269 903 l 151 786 l 151 582 l 269 465 l 463 465 m 250 833 l 438 833 l 496 775 l 496 706 l 451 661 l 497 610 l 497 540 l 431 540 l 431 593 l 394 635 l 317 635 l 317 540 l 250 540 l 250 833 m 407 693 l 429 715 l 429 753 l 407 775 l 317 775 l 317 693 l 407 693 z "},"℗":{"ha":1136,"x_min":76,"x_max":1060,"o":"m 76 246 l 76 726 l 322 972 l 814 972 l 1060 726 l 1060 246 l 814 0 l 322 0 l 76 246 m 768 92 l 963 286 l 963 686 l 768 881 l 368 881 l 174 686 l 174 286 l 368 92 l 768 92 m 343 775 l 740 775 l 851 664 l 851 475 l 740 364 l 443 364 l 443 196 l 343 196 l 343 775 m 704 450 l 754 500 l 754 639 l 704 689 l 440 689 l 440 450 l 704 450 z "},"™":{"ha":1081,"x_min":76,"x_max":1004,"o":"m 221 886 l 76 886 l 76 972 l 464 972 l 464 886 l 319 886 l 319 488 l 221 488 l 221 886 m 526 972 l 619 972 l 764 672 l 765 672 l 911 972 l 1004 972 l 1004 488 l 908 488 l 908 778 l 907 778 l 794 558 l 735 558 l 624 778 l 622 778 l 622 488 l 526 488 l 526 972 z "},"°":{"ha":461,"x_min":76,"x_max":385,"o":"m 76 757 l 76 885 l 164 972 l 297 972 l 385 885 l 385 757 l 297 669 l 164 669 l 76 757 m 265 744 l 307 786 l 307 856 l 265 897 l 196 897 l 154 856 l 154 786 l 196 744 l 265 744 z "},"′":{"ha":296,"x_min":76,"x_max":233,"o":"m 131 972 l 233 972 l 163 700 l 76 700 l 131 972 z "},"″":{"ha":476,"x_min":76,"x_max":414,"o":"m 131 972 l 233 972 l 163 700 l 76 700 l 131 972 m 311 972 l 414 972 l 343 700 l 257 700 l 311 972 z "},"|":{"ha":325,"x_min":111,"x_max":214,"o":"m 111 1175 l 214 1175 l 214 -283 l 111 -283 l 111 1175 z "},"¦":{"ha":325,"x_min":111,"x_max":214,"o":"m 111 1175 l 214 1175 l 214 585 l 111 585 l 111 1175 m 111 335 l 214 335 l 214 -283 l 111 -283 l 111 335 z "},"ℓ":{"ha":661,"x_min":14,"x_max":585,"o":"m 585 200 l 585 114 l 471 0 l 265 0 l 151 114 l 151 360 l 54 310 l 14 388 l 151 457 l 151 858 l 265 972 l 465 972 l 579 858 l 579 578 l 254 413 l 254 143 l 310 89 l 426 89 l 482 143 l 482 200 l 585 200 m 254 508 l 476 619 l 476 829 l 421 883 l 310 883 l 254 829 l 254 508 z "},"†":{"ha":703,"x_min":76,"x_max":626,"o":"m 300 600 l 76 600 l 76 692 l 300 692 l 301 935 l 404 935 l 403 692 l 626 692 l 626 600 l 403 600 l 403 -139 l 300 -139 l 300 600 z "},"‡":{"ha":703,"x_min":76,"x_max":626,"o":"m 403 600 l 403 196 l 626 196 l 626 104 l 403 104 l 403 -139 l 300 -139 l 300 104 l 76 104 l 76 196 l 300 196 l 300 600 l 76 600 l 76 692 l 300 692 l 300 935 l 403 935 l 403 692 l 626 692 l 626 600 l 403 600 z "},"℮":{"ha":1106,"x_min":76,"x_max":1029,"o":"m 569 -14 q 317 45 429 -14 q 140 210 204 104 q 76 454 76 317 q 140 698 76 592 q 313 863 203 804 q 560 922 422 922 q 800 867 693 922 q 968 710 907 811 q 1029 476 1029 608 l 1029 453 l 278 453 l 278 132 q 394 56 314 85 q 569 28 475 28 q 777 75 679 28 q 928 200 875 122 l 979 200 q 810 45 922 104 q 569 -14 697 -14 m 844 496 l 844 785 q 728 853 806 826 q 560 881 650 881 q 396 856 474 881 q 278 790 318 831 l 278 496 l 844 496 z "},"℠":{"ha":1096,"x_min":76,"x_max":1019,"o":"m 76 567 l 76 638 l 174 638 l 174 594 l 194 574 l 346 574 l 367 594 l 367 668 l 346 689 l 157 689 l 78 767 l 78 894 l 156 972 l 381 972 l 460 893 l 460 821 l 363 821 l 363 865 l 342 886 l 197 886 l 176 865 l 176 796 l 197 775 l 386 775 l 465 696 l 465 568 l 385 488 l 156 488 l 76 567 m 542 972 l 635 972 l 779 672 l 781 672 l 926 972 l 1019 972 l 1019 488 l 924 488 l 924 778 l 922 778 l 810 558 l 750 558 l 639 778 l 638 778 l 638 488 l 542 488 l 542 972 z "},"ʼ":{"ha":292,"x_min":72,"x_max":214,"o":"m 129 842 l 113 842 l 72 882 l 72 943 l 113 983 l 174 983 l 214 943 l 214 842 l 144 669 l 88 669 l 129 842 z "},"ʻ":{"ha":335,"x_min":113,"x_max":254,"o":"m 197 914 l 214 914 l 254 874 l 254 813 l 214 772 l 153 772 l 113 813 l 113 914 l 182 1086 l 239 1086 l 197 914 z "},"ˉ":{"ha":683,"x_min":119,"x_max":564,"o":"m 119 861 l 564 861 l 564 792 l 119 792 l 119 861 z "},"ˋ":{"ha":0,"x_min":-146,"x_max":146,"o":"m -146 993 l -29 993 l 146 775 l 49 775 l -146 993 z "},"ʿ":{"ha":0,"x_min":-71,"x_max":71,"o":"m -71 822 l -71 939 l 10 1018 l 71 1018 l 71 946 l 40 946 l 6 911 l 6 850 l 40 815 l 71 815 l 71 743 l 10 743 l -71 822 z "},"ʾ":{"ha":0,"x_min":-71,"x_max":71,"o":"m -71 815 l -40 815 l -6 850 l -6 911 l -40 946 l -71 946 l -71 1018 l -10 1018 l 71 939 l 71 822 l -10 743 l -71 743 l -71 815 z "},"ˊ":{"ha":0,"x_min":-146,"x_max":146,"o":"m 29 993 l 146 993 l -49 775 l -146 775 l 29 993 z "},"ˌ":{"ha":0,"x_min":-51,"x_max":51,"o":"m -51 -56 l 51 -56 l 51 -260 l -51 -260 l -51 -56 z "},"ˈ":{"ha":0,"x_min":-51,"x_max":51,"o":"m -51 1010 l 51 1010 l 51 806 l -51 806 l -51 1010 z "},"̈":{"ha":0,"x_min":-206,"x_max":206,"o":"m -206 829 l -206 890 l -168 928 l -106 928 l -69 890 l -69 829 l -106 792 l -168 792 l -206 829 m 69 829 l 69 890 l 106 928 l 168 928 l 206 890 l 206 829 l 168 792 l 106 792 l 69 829 z "},"̇":{"ha":0,"x_min":-68,"x_max":68,"o":"m -68 829 l -68 890 l -31 928 l 31 928 l 68 890 l 68 829 l 31 792 l -31 792 l -68 829 z "},"̀":{"ha":0,"x_min":-182,"x_max":40,"o":"m -182 996 l -64 996 l 40 778 l -57 778 l -182 996 z "},"́":{"ha":0,"x_min":-44,"x_max":178,"o":"m 60 996 l 178 996 l 53 778 l -44 778 l 60 996 z "},"̋":{"ha":0,"x_min":-154,"x_max":274,"o":"m -50 996 l 65 996 l -60 778 l -154 778 l -50 996 m 160 996 l 274 996 l 150 778 l 54 778 l 160 996 z "},"̂":{"ha":0,"x_min":-194,"x_max":194,"o":"m -51 972 l 51 972 l 194 778 l 94 778 l 4 903 l -4 903 l -94 778 l -194 778 l -51 972 z "},"̌":{"ha":0,"x_min":-194,"x_max":194,"o":"m -194 972 l -94 972 l -4 847 l 4 847 l 94 972 l 194 972 l 51 778 l -51 778 l -194 972 z "},"̆":{"ha":0,"x_min":-192,"x_max":192,"o":"m -192 878 l -192 961 l -106 961 l -106 904 l -56 853 l 56 853 l 106 904 l 106 961 l 192 961 l 192 878 l 92 778 l -92 778 l -192 878 z "},"̊":{"ha":0,"x_min":-140,"x_max":140,"o":"m -140 843 l -140 960 l -61 1039 l 61 1039 l 140 960 l 140 843 l 61 764 l -61 764 l -140 843 m 32 833 l 68 869 l 68 933 l 32 969 l -32 969 l -68 933 l -68 869 l -32 833 l 32 833 z "},"̃":{"ha":0,"x_min":-190,"x_max":190,"o":"m -58 864 l -83 864 l -110 838 l -110 800 l -190 800 l -190 863 l -117 936 l -31 936 l 58 864 l 85 864 l 110 889 l 110 928 l 190 928 l 190 865 l 117 792 l 31 792 l -58 864 z "},"̄":{"ha":0,"x_min":-194,"x_max":194,"o":"m -194 889 l 194 889 l 194 806 l -194 806 l -194 889 z "},"̉":{"ha":0,"x_min":-144,"x_max":144,"o":"m -44 831 l 58 932 l 58 971 l 36 993 l -40 993 l -65 968 l -65 933 l -144 933 l -144 994 l -74 1065 l 74 1065 l 144 994 l 144 917 l 46 818 l 46 778 l -44 778 l -44 831 z "},"̛":{"ha":0,"x_min":-126,"x_max":126,"o":"m -126 617 l -35 617 l 29 679 l 29 788 l 126 788 l 126 644 l 13 531 l -126 531 l -126 617 z "},"̣":{"ha":0,"x_min":-68,"x_max":68,"o":"m -68 -196 l -68 -135 l -31 -97 l 31 -97 l 68 -135 l 68 -196 l 31 -233 l -31 -233 l -68 -196 z "}}}
